<svg id="svg" xmlns="http://www.w3.org/2000/svg" viewBox="-9 -9.669999986886978 555 465" height="465"><path d="M 199,193.33 L 199,196.33 L 199,203.33 L 199,213.33 L 197,224.33 L 196,235.33 L 195,246.33 L 193,257.33 L 191,272.33 L 189,288.33 L 186,314.33 L 186,329.33 L 185,337.33 L 185,343.33 L 185,348.33 L 185,352.33 L 184,356.33 L 184,361.33 L 184,367.33 L 184,371.33 L 184,374.33 L 184,378.33 L 184,383.33 L 184,387.33 L 185,390.33 L 185,393.33 L 185,395.33 L 185,398.33 L 185,400.33 L 185,404.33 L 186,408.33 L 188,412.33 L 189,413.33 L 190,413.33 L 191,413.33 L 194,413.33 L 201,413.33 L 207,413.33 L 214,414.33 L 226,414.33 L 241,416.33 L 263,418.33 L 282,421.33 L 304,424.33 L 323,427.33 L 340,431.33 L 354,432.33 L 368,434.33 L 381,436.33 L 388,437.33 L 397,438.33 L 405,438.33 L 412,438.33 L 420,438.33 L 424,438.33 L 427,438.33 L 432,437.33 L 437,437.33 L 443,434.33 L 452,434.33 L 461,432.33 L 468,432.33 L 476,432.33 L 486,431.33 L 495,429.33 L 510,426.33 L 514,424.33 L 517,423.33 L 518,423.33 L 519,422.33 L 519,421.33 L 519,419.33 L 519,415.33 L 519,408.33 L 519,400.33 L 519,393.33 L 521,378.33 L 522,363.33 L 522,350.33 L 522,334.33 L 523,319.33 L 523,299.33 L 523,288.33 L 523,277.33 L 523,269.33 L 523,261.33 L 523,252.33 L 523,247.33 L 523,240.33 L 523,233.33 L 523,222.33 L 523,214.33 L 523,206.33 L 523,201.33 L 523,199.33" fill="none" stroke="#1a85ff" stroke-width="2"></path><path d="M 202,194.33 L 204,194.33 L 209,194.33 L 222,194.33 L 239,195.33 L 256,197.33 L 273,200.33 L 288,202.33 L 303,204.33 L 319,206.33 L 327,208.33 L 337,209.33 L 346,210.33 L 355,211.33 L 364,211.33 L 372,211.33 L 379,212.33 L 386,212.33 L 393,212.33 L 398,212.33 L 403,212.33 L 408,212.33 L 411,212.33 L 414,212.33 L 416,211.33 L 419,211.33 L 422,210.33 L 426,208.33 L 429,208.33 L 432,205.33 L 437,204.33 L 441,204.33 L 445,203.33 L 450,202.33 L 458,200.33 L 464,200.33 L 470,199.33 L 474,198.33 L 479,197.33 L 482,197.33 L 484,197.33 L 486,197.33 L 488,196.33 L 491,196.33 L 494,196.33 L 498,196.33 L 500,195.33 L 501,195.33 L 502,195.33 L 503,195.33 L 504,195.33 L 504,196.33 L 505,197.33 L 506,198.33 L 507,199.33 L 508,201.33 L 509,202.33 L 509,203.33 L 510,203.33 L 511,204.33 L 512,205.33 L 512,206.33 L 513,206.33 L 514,207.33 L 515,207.33 L 516,208.33 L 518,208.33 L 522,210.33 L 525,213.33 L 526,214.33 L 527,214.33 L 528,215.33 L 529,216.33" fill="none" stroke="#1a85ff" stroke-width="2"></path><path d="M 502,198.33 L 501,197.33 L 502,199.33 L 503,202.33 L 503,207.33 L 503,211.33 L 503,215.33 L 503,216.33 L 503,218.33 L 503,219.33 L 503,221.33 L 503,222.33 L 503,223.33 L 503,224.33 L 503,225.33 L 503,226.33 L 503,227.33 L 503,229.33 L 504,231.33 L 504,232.33 L 504,233.33 L 505,234.33 L 506,234.33 L 507,234.33 L 509,233.33 L 512,232.33 L 515,230.33 L 517,229.33 L 519,228.33 L 521,226.33 L 522,225.33 L 524,223.33 L 525,223.33 L 527,222.33 L 528,220.33 L 529,219.33 L 531,219.33 L 533,217.33 L 535,216.33 L 536,216.33 L 536,215.33" fill="none" stroke="#1a85ff" stroke-width="2"></path><text font-family="inherit" font-size="14" fill="#1a85ff" x="245" y="116.33">Note textuel</text><text font-family="inherit" font-size="14" fill="#1a85ff" x="220" y="231.33">saisir mot de passe</text><text font-family="inherit" font-size="14" fill="#1a85ff" x="225" y="251.33">mdp</text><path d="M 219,277.33" fill="none" stroke="#1a85ff" stroke-width="2"></path><path d="M 239,281.33" fill="none" stroke="#1a85ff" stroke-width="2"></path><path d="M 228,281.33 L 227,281.33 L 228,281.33 L 229,280.33 L 231,278.33 L 233,277.33 L 234,276.33 L 235,276.33 L 237,276.33 L 237,279.33 L 237,280.33 L 236,281.33 L 235,282.33 L 233,282.33 L 232,282.33 L 230,282.33 L 230,281.33 L 230,280.33 L 231,279.33 L 231,278.33 L 232,278.33 L 233,278.33 L 234,278.33 L 234,279.33 L 233,279.33" fill="none" stroke="#1a85ff" stroke-width="2"></path><path d="M 244,279.33 L 244,280.33 L 246,280.33 L 247,280.33 L 248,280.33 L 249,280.33 L 249,279.33 L 249,277.33 L 250,277.33 L 251,277.33 L 253,277.33 L 253,278.33 L 253,279.33 L 253,281.33 L 253,282.33 L 252,282.33 L 251,282.33 L 250,282.33 L 251,282.33 L 252,282.33 L 253,282.33 L 252,282.33 L 251,282.33 L 251,279.33 L 252,276.33 L 254,275.33 L 256,274.33" fill="none" stroke="#1a85ff" stroke-width="2"></path><path d="M 270,280.33 L 270,281.33 L 270,282.33 L 270,283.33 L 269,282.33 L 269,281.33 L 269,283.33 L 269,282.33" fill="none" stroke="#1a85ff" stroke-width="2"></path><path d="M 162,397.33 L 163,397.33 L 164,397.33 L 165,397.33 L 164,398.33 L 160,398.33 L 159,398.33 L 158,398.33 L 158,397.33 L 158,395.33 L 158,393.33 L 158,392.33 L 159,392.33" fill="none" stroke="#1a85ff" stroke-width="2"></path><path d="M 133,404.33 L 132,403.33 L 132,401.33 L 133,398.33 L 134,397.33 L 135,397.33 L 135,398.33 L 135,400.33 L 135,404.33 L 132,405.33 L 130,406.33 L 128,406.33 L 126,406.33 L 126,404.33 L 126,403.33" fill="none" stroke="#1a85ff" stroke-width="2"></path><path d="M 87,416.33 L 87,411.33 L 87,407.33 L 90,403.33 L 92,403.33 L 94,403.33 L 95,403.33 L 95,405.33 L 95,408.33 L 95,412.33 L 91,414.33 L 90,415.33 L 88,416.33 L 88,415.33 L 88,414.33" fill="none" stroke="#1a85ff" stroke-width="2"></path><path d="M 59,422.33 L 60,422.33 L 60,425.33 L 60,429.33 L 58,431.33 L 55,433.33 L 53,433.33 L 51,433.33 L 49,433.33 L 47,431.33 L 46,429.33 L 46,426.33 L 46,424.33 L 47,423.33 L 47,424.33 L 47,425.33 L 45,426.33" fill="none" stroke="#1a85ff" stroke-width="2"></path><path d="M 19,444.33 L 17,444.33 L 14,445.33 L 13,445.33 L 12,445.33 L 11,445.33 L 10,444.33 L 10,442.33 L 10,441.33 L 11,441.33 L 12,441.33 L 12,442.33 L 9,445.33 L 5,445.33 L 1,445.33 L 5,429.33 L 13,426.33 L 37,416.33 L 59,403.33 L 81,385.33 L 108,349.33 L 122,323.33 L 130,302.33 L 135,275.33 L 135,268.33 L 133,264.33 L 124,263.33 L 106,263.33 L 78,271.33 L 37,290.33 L 16,302.33 L 26,319.33 L 73,281.33 L 167,194.33 L 250,107.33 L 321,38.33 L 336,3.33 L 320,19.33 L 310,28.33 L 309,29.33 L 309,26.33 L 309,23.33 L 310,14.33 L 311,9.33 L 314,3.33 L 315,1.33 L 316,0.33" fill="none" stroke="#1a85ff" stroke-width="2"></path></svg>