<svg id="svg" xmlns="http://www.w3.org/2000/svg" viewBox="30 65.33000183105469 787 702" height="702"><path d="M 188,80.33 L 184,80.33 L 177,80.33 L 171,82.33 L 164,86.33 L 157,89.33 L 152,94.33 L 144,101.33 L 139,108.33 L 135,116.33 L 127,135.33 L 125,145.33 L 123,157.33 L 122,171.33 L 122,182.33 L 122,194.33 L 122,206.33 L 122,217.33 L 126,228.33 L 129,240.33 L 132,248.33 L 136,255.33 L 140,265.33 L 145,272.33 L 149,277.33 L 151,279.33 L 153,282.33 L 158,285.33 L 162,287.33 L 167,290.33 L 173,292.33 L 179,293.33 L 187,296.33 L 197,296.33 L 213,298.33 L 224,298.33 L 235,298.33 L 245,296.33 L 254,291.33 L 264,285.33 L 271,279.33 L 277,272.33 L 282,264.33 L 285,258.33 L 288,248.33 L 292,237.33 L 296,222.33 L 299,211.33 L 302,202.33 L 304,192.33 L 306,183.33 L 306,177.33 L 308,172.33 L 308,164.33 L 308,158.33 L 308,152.33 L 308,146.33 L 308,139.33 L 308,134.33 L 307,129.33 L 305,124.33 L 302,119.33 L 298,113.33 L 294,108.33 L 290,105.33 L 287,102.33 L 284,100.33 L 279,99.33 L 277,97.33 L 272,96.33 L 265,94.33 L 257,93.33 L 251,91.33 L 244,90.33 L 239,90.33 L 233,88.33 L 226,87.33 L 216,86.33 L 206,85.33 L 199,84.33 L 194,83.33 L 192,83.33 L 186,83.33 L 182,83.33 L 178,82.33 L 177,82.33 L 175,82.33 L 173,82.33" fill="none" stroke="#1a85ff" stroke-width="2"></path><path d="M 515,148.33 L 517,148.33 L 521,148.33 L 527,147.33 L 539,147.33 L 551,147.33 L 566,147.33 L 575,147.33 L 584,147.33 L 591,147.33 L 595,147.33 L 598,147.33 L 602,147.33 L 604,147.33 L 607,147.33 L 611,147.33 L 617,147.33 L 622,147.33 L 629,147.33 L 631,147.33 L 632,147.33 L 634,147.33 L 636,147.33 L 638,146.33 L 642,146.33 L 645,146.33 L 650,146.33 L 653,146.33 L 656,146.33 L 661,146.33 L 664,146.33 L 665,146.33 L 665,144.33 L 665,143.33 L 663,140.33 L 657,132.33 L 648,127.33 L 639,120.33 L 628,113.33 L 620,108.33 L 612,102.33 L 607,99.33 L 603,95.33 L 597,91.33 L 594,88.33 L 590,84.33 L 586,80.33 L 582,77.33 L 581,76.33 L 581,75.33 L 581,76.33 L 578,81.33 L 578,85.33 L 575,93.33 L 574,100.33 L 572,108.33 L 571,115.33 L 569,122.33 L 567,131.33 L 566,140.33 L 564,147.33 L 563,154.33 L 562,162.33 L 561,169.33 L 560,173.33 L 558,176.33 L 557,181.33 L 555,184.33 L 554,189.33 L 553,192.33 L 553,195.33 L 552,196.33 L 551,198.33 L 552,199.33 L 557,199.33 L 565,199.33 L 581,199.33 L 605,199.33 L 621,201.33 L 632,203.33 L 644,205.33 L 649,205.33 L 653,205.33 L 654,206.33 L 654,205.33 L 655,202.33 L 656,193.33 L 657,182.33 L 657,168.33 L 655,156.33 L 653,144.33 L 651,134.33 L 648,126.33 L 645,115.33 L 643,105.33 L 642,100.33 L 642,98.33 L 641,94.33 L 641,91.33 L 641,89.33 L 641,87.33 L 641,84.33 L 641,83.33 L 640,83.33 L 633,88.33 L 621,95.33 L 604,104.33 L 583,113.33 L 564,119.33 L 545,127.33 L 531,133.33 L 522,137.33 L 515,139.33 L 513,141.33 L 512,141.33 L 511,142.33 L 511,143.33 L 512,145.33 L 513,146.33 L 515,147.33 L 515,148.33 L 516,148.33" fill="none" stroke="#1a85ff" stroke-width="2"></path><path d="M 151,436.33 L 151,435.33 L 151,433.33 L 153,428.33 L 155,423.33 L 157,415.33 L 162,405.33 L 166,396.33 L 169,388.33 L 172,381.33 L 176,374.33 L 176,372.33 L 177,372.33 L 178,372.33 L 180,380.33 L 183,389.33 L 186,400.33 L 189,410.33 L 193,416.33 L 195,422.33 L 195,423.33" fill="none" stroke="#1a85ff" stroke-width="2"></path><path d="M 168,408.33 L 168,407.33 L 167,407.33 L 166,407.33 L 168,407.33 L 172,407.33 L 179,407.33 L 185,407.33 L 191,407.33 L 196,407.33 L 201,407.33 L 203,407.33 L 206,407.33" fill="none" stroke="#1a85ff" stroke-width="2"></path><path d="M 114,458.33 L 116,457.33 L 128,457.33 L 151,457.33 L 186,457.33 L 215,457.33 L 235,457.33 L 243,457.33 L 244,457.33" fill="none" stroke="#1a85ff" stroke-width="2"></path><path d="M 158,491.33 L 158,494.33 L 158,501.33 L 158,512.33 L 157,524.33 L 155,532.33 L 155,534.33 L 155,535.33 L 155,536.33" fill="none" stroke="#1a85ff" stroke-width="2"></path><path d="M 167,481.33 L 168,480.33 L 172,479.33 L 180,478.33 L 191,478.33 L 199,478.33 L 206,482.33 L 211,485.33 L 214,488.33 L 214,493.33 L 214,500.33 L 214,504.33 L 212,507.33 L 208,511.33 L 204,512.33 L 197,513.33 L 191,513.33 L 184,513.33 L 178,513.33 L 177,513.33" fill="none" stroke="#1a85ff" stroke-width="2"></path><path d="M 259,488.33 L 263,488.33 L 268,488.33 L 271,489.33 L 274,493.33 L 275,497.33 L 275,505.33 L 272,513.33 L 264,520.33 L 253,525.33 L 245,527.33 L 240,527.33 L 237,527.33 L 236,523.33 L 236,518.33 L 238,515.33 L 240,511.33 L 242,511.33 L 246,511.33 L 247,511.33 L 251,513.33 L 253,515.33 L 254,517.33 L 256,518.33 L 256,519.33" fill="none" stroke="#1a85ff" stroke-width="2"></path><path d="M 261,442.33 L 261,440.33 L 261,438.33 L 263,431.33 L 269,421.33 L 276,408.33 L 287,388.33 L 292,375.33 L 297,363.33 L 299,356.33 L 300,348.33 L 301,340.33 L 302,335.33 L 302,331.33 L 302,329.33 L 302,325.33 L 301,321.33 L 299,317.33 L 296,313.33 L 294,310.33 L 293,308.33" fill="none" stroke="#1a85ff" stroke-width="2"></path><path d="M 269,301.33 L 270,301.33 L 275,297.33 L 283,288.33 L 289,284.33 L 293,281.33 L 295,280.33 L 296,280.33 L 297,280.33 L 298,280.33 L 300,283.33 L 301,286.33 L 302,287.33 L 303,288.33 L 303,290.33 L 303,291.33 L 304,293.33 L 305,295.33 L 306,296.33 L 308,298.33" fill="none" stroke="#1a85ff" stroke-width="2"></path><path d="M 321,246.33 L 319,247.33 L 317,248.33 L 315,251.33 L 314,255.33 L 314,258.33 L 314,261.33 L 317,265.33 L 320,268.33 L 322,269.33 L 324,269.33 L 327,268.33 L 330,265.33 L 331,260.33 L 332,254.33 L 332,245.33 L 332,241.33 L 329,237.33 L 328,235.33 L 327,234.33 L 326,234.33" fill="none" stroke="#1a85ff" stroke-width="2"></path><path d="M 351,257.33" fill="none" stroke="#1a85ff" stroke-width="2"></path><path d="M 367,250.33 L 366,252.33 L 363,254.33 L 358,257.33 L 356,258.33 L 355,258.33 L 354,258.33 L 354,257.33 L 354,256.33 L 355,256.33 L 355,255.33" fill="none" stroke="#1a85ff" stroke-width="2"></path><path d="M 384,246.33 L 384,248.33 L 383,251.33 L 382,252.33 L 380,252.33 L 379,252.33 L 379,250.33 L 380,249.33 L 383,248.33 L 387,248.33 L 387,250.33 L 387,252.33 L 386,252.33" fill="none" stroke="#1a85ff" stroke-width="2"></path><path d="M 404,243.33 L 404,244.33 L 403,244.33 L 404,244.33 L 406,244.33 L 407,244.33 L 408,245.33 L 408,246.33 L 408,247.33 L 407,248.33 L 407,249.33" fill="none" stroke="#1a85ff" stroke-width="2"></path><path d="M 411,217.33 L 411,216.33 L 411,214.33 L 412,212.33 L 414,208.33 L 417,205.33 L 421,202.33 L 428,200.33 L 438,199.33 L 446,199.33 L 457,201.33 L 459,202.33 L 461,203.33 L 461,208.33 L 461,211.33 L 460,215.33 L 457,219.33 L 453,223.33 L 451,225.33 L 448,226.33 L 445,228.33 L 444,228.33 L 442,229.33 L 440,230.33 L 438,231.33 L 435,233.33 L 431,236.33" fill="none" stroke="#1a85ff" stroke-width="2"></path><path d="M 427,254.33 L 428,254.33 L 434,254.33 L 440,252.33 L 442,251.33 L 441,252.33 L 439,252.33 L 436,254.33 L 435,254.33 L 434,254.33 L 433,254.33 L 433,253.33 L 433,252.33 L 433,251.33" fill="none" stroke="#1a85ff" stroke-width="2"></path><text font-family="inherit" font-size="14" fill="#1a85ff" x="431" y="283.33">ramener a un </text><path d="M 342,421.33 L 343,415.33 L 347,408.33 L 352,402.33 L 357,392.33 L 362,385.33 L 367,377.33 L 370,370.33 L 373,366.33 L 374,362.33 L 377,359.33 L 379,356.33 L 381,354.33 L 382,356.33 L 385,365.33 L 386,373.33 L 389,382.33 L 391,388.33 L 391,391.33 L 392,395.33 L 393,401.33 L 393,402.33 L 393,405.33 L 394,408.33 L 394,409.33 L 394,410.33 L 394,411.33 L 394,412.33" fill="none" stroke="#1a85ff" stroke-width="2"></path><path d="M 366,395.33 L 366,394.33 L 369,393.33 L 373,391.33 L 378,391.33 L 384,390.33 L 389,390.33 L 394,390.33 L 398,390.33 L 400,390.33" fill="none" stroke="#1a85ff" stroke-width="2"></path><path d="M 419,398.33 L 418,398.33 L 414,400.33 L 413,400.33 L 413,401.33 L 412,401.33 L 411,402.33 L 411,403.33 L 411,404.33 L 412,406.33 L 414,407.33 L 415,407.33 L 416,409.33 L 419,409.33 L 423,410.33 L 424,411.33" fill="none" stroke="#1a85ff" stroke-width="2"></path><path d="M 325,446.33 L 327,448.33 L 336,448.33 L 357,448.33 L 384,448.33 L 410,445.33 L 437,442.33 L 459,438.33 L 471,436.33 L 473,436.33" fill="none" stroke="#1a85ff" stroke-width="2"></path><path d="M 362,475.33 L 362,479.33 L 354,514.33 L 353,514.33 L 353,511.33 L 353,508.33 L 355,504.33 L 356,500.33 L 358,497.33 L 361,493.33 L 363,490.33 L 364,488.33 L 365,487.33 L 365,486.33 L 365,485.33 L 365,484.33 L 365,483.33 L 364,483.33 L 363,482.33 L 362,481.33 L 362,480.33 L 362,478.33 L 362,477.33 L 362,475.33 L 362,473.33 L 362,472.33 L 363,470.33 L 366,470.33 L 368,470.33 L 369,470.33" fill="none" stroke="#1a85ff" stroke-width="2"></path><path d="M 369,470.33 L 373,470.33 L 377,471.33 L 381,473.33 L 383,475.33 L 385,476.33 L 385,477.33 L 386,479.33 L 387,481.33 L 387,483.33 L 387,487.33 L 384,490.33 L 380,491.33 L 375,492.33 L 369,492.33 L 364,492.33 L 363,492.33" fill="none" stroke="#1a85ff" stroke-width="2"></path><path d="M 379,502.33 L 379,503.33 L 378,503.33 L 378,504.33 L 376,506.33 L 375,508.33 L 375,509.33 L 375,510.33 L 376,511.33 L 377,511.33 L 378,511.33 L 381,511.33 L 383,512.33" fill="none" stroke="#1a85ff" stroke-width="2"></path><path d="M 422,470.33 L 422,469.33 L 422,467.33 L 423,467.33 L 426,469.33 L 428,471.33 L 430,472.33 L 430,474.33 L 431,476.33 L 431,481.33 L 425,486.33 L 420,489.33 L 412,490.33 L 408,491.33 L 407,491.33 L 407,488.33 L 407,486.33 L 408,484.33 L 412,484.33 L 417,484.33 L 421,484.33 L 424,484.33 L 425,484.33 L 425,485.33 L 426,485.33 L 427,485.33" fill="none" stroke="#1a85ff" stroke-width="2"></path><path d="M 486,425.33 L 487,425.33 L 491,425.33 L 495,425.33 L 499,425.33 L 507,426.33 L 508,426.33" fill="none" stroke="#1a85ff" stroke-width="2"></path><path d="M 478,454.33 L 479,454.33 L 482,454.33 L 486,454.33 L 490,454.33 L 493,453.33 L 494,453.33" fill="none" stroke="#1a85ff" stroke-width="2"></path><path d="M 517,394.33 L 519,394.33 L 523,393.33 L 528,393.33 L 533,391.33 L 539,390.33 L 546,388.33 L 550,387.33" fill="none" stroke="#1a85ff" stroke-width="2"></path><path d="M 539,394.33 L 539,400.33 L 539,405.33 L 539,410.33 L 539,415.33 L 538,417.33 L 537,419.33 L 535,420.33 L 530,421.33 L 526,421.33 L 522,421.33 L 520,421.33" fill="none" stroke="#1a85ff" stroke-width="2"></path><path d="M 546,395.33 L 547,395.33 L 547,399.33 L 546,402.33 L 545,408.33 L 545,411.33 L 545,414.33 L 546,416.33 L 547,417.33 L 549,417.33 L 552,417.33 L 554,417.33 L 556,417.33" fill="none" stroke="#1a85ff" stroke-width="2"></path><path d="M 575,407.33 L 575,409.33 L 576,416.33 L 576,420.33 L 576,422.33 L 576,424.33 L 576,422.33 L 576,417.33 L 576,412.33 L 576,407.33 L 577,402.33 L 578,400.33 L 578,398.33 L 579,397.33 L 580,396.33" fill="none" stroke="#1a85ff" stroke-width="2"></path><path d="M 602,382.33 L 605,383.33 L 605,384.33 L 606,384.33 L 606,386.33 L 606,387.33 L 606,391.33 L 600,393.33 L 594,395.33 L 592,395.33 L 590,395.33 L 590,393.33 L 591,393.33 L 596,393.33 L 599,393.33 L 602,393.33 L 603,393.33 L 604,394.33 L 605,394.33 L 606,395.33 L 607,397.33" fill="none" stroke="#1a85ff" stroke-width="2"></path><path d="M 508,449.33 L 509,449.33 L 520,449.33 L 541,449.33 L 568,449.33 L 594,449.33 L 615,449.33 L 627,449.33 L 635,449.33 L 636,449.33 L 637,448.33" fill="none" stroke="#1a85ff" stroke-width="2"></path><path d="M 527,463.33 L 526,465.33 L 524,468.33 L 522,473.33 L 520,480.33 L 520,489.33 L 520,495.33 L 520,500.33 L 522,505.33 L 522,507.33 L 523,509.33 L 524,510.33 L 524,511.33" fill="none" stroke="#1a85ff" stroke-width="2"></path><path d="M 555,464.33 L 565,465.33 L 568,468.33 L 571,471.33 L 571,477.33 L 570,483.33 L 561,492.33 L 548,499.33 L 536,502.33 L 526,503.33 L 521,503.33 L 520,503.33 L 519,503.33 L 519,500.33 L 522,497.33 L 529,496.33 L 540,494.33 L 550,494.33 L 556,494.33 L 559,495.33 L 559,497.33 L 559,498.33 L 560,500.33 L 560,501.33 L 560,503.33" fill="none" stroke="#1a85ff" stroke-width="2"></path><path d="M 572,486.33 L 575,486.33 L 582,486.33 L 591,486.33 L 596,486.33 L 599,486.33 L 599,485.33" fill="none" stroke="#1a85ff" stroke-width="2"></path><path d="M 586,484.33 L 586,487.33 L 586,490.33 L 586,493.33 L 586,494.33 L 585,497.33 L 583,499.33 L 576,502.33 L 571,503.33 L 566,504.33 L 564,504.33" fill="none" stroke="#1a85ff" stroke-width="2"></path><path d="M 595,489.33 L 594,491.33 L 593,492.33 L 592,495.33 L 592,496.33 L 592,498.33 L 590,499.33 L 590,500.33 L 590,501.33 L 592,501.33 L 593,501.33 L 594,501.33" fill="none" stroke="#1a85ff" stroke-width="2"></path><path d="M 611,495.33 L 611,496.33 L 611,498.33 L 611,499.33 L 611,500.33 L 610,500.33 L 610,498.33 L 610,494.33 L 610,492.33 L 610,489.33 L 610,487.33 L 611,486.33 L 614,484.33 L 616,484.33 L 618,484.33 L 620,484.33 L 621,484.33" fill="none" stroke="#1a85ff" stroke-width="2"></path><path d="M 619,468.33 L 621,469.33 L 624,473.33 L 627,478.33 L 630,482.33 L 630,484.33 L 630,488.33 L 630,490.33 L 630,494.33 L 629,496.33 L 627,500.33 L 626,501.33 L 625,502.33" fill="none" stroke="#1a85ff" stroke-width="2"></path><path d="M 635,468.33 L 637,467.33 L 639,467.33 L 641,468.33 L 642,469.33 L 642,471.33 L 642,472.33 L 642,474.33 L 642,475.33 L 641,476.33 L 643,476.33 L 648,476.33 L 652,477.33" fill="none" stroke="#1a85ff" stroke-width="2"></path><path d="M 669,444.33 L 670,443.33 L 671,443.33 L 672,443.33 L 674,443.33 L 678,442.33 L 686,441.33 L 694,440.33 L 698,440.33 L 701,440.33 L 702,440.33" fill="none" stroke="#1a85ff" stroke-width="2"></path><path d="M 672,455.33 L 673,455.33 L 675,455.33 L 677,455.33 L 682,454.33 L 688,453.33 L 691,453.33 L 694,453.33" fill="none" stroke="#1a85ff" stroke-width="2"></path><path d="M 724,401.33 L 726,401.33 L 728,401.33 L 732,401.33 L 737,401.33 L 740,401.33 L 743,401.33 L 745,401.33" fill="none" stroke="#1a85ff" stroke-width="2"></path><path d="M 731,403.33 L 731,405.33 L 731,408.33 L 732,411.33 L 732,413.33 L 732,415.33 L 730,416.33 L 728,418.33 L 721,419.33 L 716,419.33 L 713,420.33 L 712,420.33" fill="none" stroke="#1a85ff" stroke-width="2"></path><path d="M 742,407.33 L 741,407.33 L 740,409.33 L 740,410.33 L 740,412.33 L 740,413.33 L 741,415.33 L 742,416.33 L 743,417.33" fill="none" stroke="#1a85ff" stroke-width="2"></path><path d="M 758,413.33 L 758,412.33 L 757,411.33 L 757,410.33 L 757,407.33 L 756,405.33 L 756,403.33 L 756,402.33 L 757,400.33 L 762,400.33 L 765,399.33 L 768,398.33 L 769,398.33" fill="none" stroke="#1a85ff" stroke-width="2"></path><path d="M 776,386.33 L 777,386.33 L 778,387.33 L 779,388.33 L 781,392.33 L 781,394.33 L 782,398.33 L 782,401.33 L 781,404.33 L 779,406.33 L 777,406.33 L 775,406.33 L 774,406.33 L 773,406.33 L 773,405.33 L 773,404.33 L 774,403.33 L 778,403.33 L 781,403.33 L 784,404.33 L 785,405.33 L 786,406.33" fill="none" stroke="#1a85ff" stroke-width="2"></path><path d="M 709,444.33 L 715,444.33 L 720,444.33 L 727,444.33 L 744,444.33 L 760,444.33 L 779,444.33 L 788,444.33 L 792,444.33 L 794,444.33 L 796,444.33" fill="none" stroke="#1a85ff" stroke-width="2"></path><path d="M 707,468.33 L 707,470.33 L 709,472.33 L 710,474.33 L 711,476.33 L 713,476.33 L 715,476.33 L 717,476.33 L 719,476.33 L 720,476.33 L 721,475.33 L 721,474.33 L 721,472.33 L 721,471.33 L 722,467.33 L 723,466.33 L 723,467.33 L 723,472.33 L 723,477.33 L 723,481.33 L 723,485.33 L 723,487.33 L 723,488.33" fill="none" stroke="#1a85ff" stroke-width="2"></path><path d="M 736,481.33 L 737,481.33 L 738,481.33 L 743,481.33 L 750,481.33 L 754,481.33 L 756,480.33 L 757,480.33 L 758,480.33 L 759,478.33 L 760,477.33" fill="none" stroke="#1a85ff" stroke-width="2"></path><path d="M 753,477.33 L 754,478.33 L 754,479.33 L 754,481.33 L 755,483.33 L 755,485.33 L 755,486.33 L 755,488.33 L 753,489.33 L 750,490.33 L 748,490.33 L 747,490.33" fill="none" stroke="#1a85ff" stroke-width="2"></path><path d="M 758,480.33 L 758,479.33 L 758,480.33 L 758,481.33 L 758,484.33 L 758,485.33 L 758,487.33 L 758,489.33 L 758,490.33 L 758,491.33 L 760,491.33 L 760,490.33" fill="none" stroke="#1a85ff" stroke-width="2"></path><path d="M 764,463.33 L 766,463.33 L 768,463.33 L 770,464.33 L 771,464.33 L 771,465.33 L 771,466.33 L 771,468.33 L 771,469.33 L 771,472.33 L 771,473.33 L 770,473.33 L 770,472.33 L 771,472.33 L 772,472.33 L 773,473.33" fill="none" stroke="#1a85ff" stroke-width="2"></path><path d="M 765,463.33 L 766,463.33 L 767,465.33 L 767,466.33 L 767,468.33 L 767,470.33 L 767,472.33 L 767,475.33 L 764,476.33 L 759,477.33 L 757,477.33 L 754,477.33 L 753,477.33 L 752,477.33 L 751,477.33 L 751,476.33 L 751,474.33 L 751,473.33 L 752,472.33 L 756,471.33 L 758,470.33 L 761,470.33 L 763,470.33 L 765,471.33 L 766,472.33 L 767,472.33 L 768,473.33 L 769,473.33 L 769,474.33 L 770,475.33 L 771,475.33 L 773,476.33 L 774,476.33" fill="none" stroke="#1a85ff" stroke-width="2"></path><path d="M 784,485.33 L 784,486.33 L 784,487.33 L 784,488.33 L 784,490.33 L 784,492.33 L 783,493.33 L 782,495.33 L 781,495.33 L 780,493.33 L 779,488.33 L 778,484.33 L 778,481.33 L 778,477.33 L 778,475.33 L 779,473.33 L 779,472.33 L 780,472.33 L 781,472.33 L 782,472.33 L 783,472.33 L 786,472.33 L 787,472.33" fill="none" stroke="#1a85ff" stroke-width="2"></path><path d="M 794,460.33 L 795,460.33 L 797,461.33 L 798,463.33 L 798,464.33 L 798,465.33 L 798,468.33 L 798,471.33 L 797,472.33 L 796,472.33 L 795,472.33 L 794,472.33 L 795,470.33 L 797,470.33 L 799,470.33 L 802,470.33 L 803,470.33 L 804,471.33 L 806,472.33 L 807,473.33" fill="none" stroke="#1a85ff" stroke-width="2"></path><path d="M 131,571.33 L 132,571.33 L 132,575.33 L 133,578.33 L 134,581.33 L 134,585.33 L 135,586.33 L 135,587.33 L 135,589.33" fill="none" stroke="#1a85ff" stroke-width="2"></path><path d="M 111,596.33 L 111,597.33 L 112,597.33 L 119,597.33 L 139,597.33 L 162,597.33 L 189,597.33 L 215,597.33 L 219,597.33 L 220,597.33 L 220,598.33" fill="none" stroke="#1a85ff" stroke-width="2"></path><path d="M 147,607.33 L 146,608.33 L 146,610.33 L 146,615.33 L 146,617.33 L 147,619.33 L 149,620.33 L 150,620.33 L 154,620.33 L 156,619.33 L 160,616.33" fill="none" stroke="#1a85ff" stroke-width="2"></path><path d="M 162,608.33 L 162,611.33 L 163,616.33 L 163,619.33 L 163,623.33 L 163,626.33 L 163,629.33 L 163,631.33 L 163,632.33 L 163,633.33 L 163,635.33" fill="none" stroke="#1a85ff" stroke-width="2"></path><path d="M 175,620.33 L 175,619.33 L 180,619.33 L 190,617.33 L 197,616.33 L 205,614.33 L 208,613.33" fill="none" stroke="#1a85ff" stroke-width="2"></path><path d="M 191,614.33 L 191,618.33 L 191,620.33 L 192,621.33 L 192,623.33 L 192,625.33 L 192,628.33 L 187,630.33 L 181,631.33 L 174,631.33 L 171,631.33 L 170,631.33" fill="none" stroke="#1a85ff" stroke-width="2"></path><path d="M 206,617.33 L 206,618.33 L 205,621.33 L 204,625.33 L 204,626.33 L 204,628.33 L 204,629.33 L 206,629.33 L 207,629.33 L 212,629.33 L 217,629.33 L 221,628.33 L 224,628.33" fill="none" stroke="#1a85ff" stroke-width="2"></path><path d="M 59,600.33 L 61,599.33 L 66,599.33 L 74,597.33 L 80,596.33 L 82,596.33" fill="none" stroke="#1a85ff" stroke-width="2"></path><path d="M 65,609.33 L 65,610.33 L 65,611.33 L 69,611.33 L 82,611.33 L 92,611.33 L 98,611.33 L 101,611.33" fill="none" stroke="#1a85ff" stroke-width="2"></path><path d="M 388,638.33 L 393,638.33 L 402,637.33 L 413,636.33 L 424,636.33 L 429,636.33 L 430,636.33" fill="none" stroke="#1a85ff" stroke-width="2"></path><path d="M 531,583.33 L 531,588.33 L 530,620.33 L 532,620.33 L 536,620.33 L 540,616.33 L 545,612.33 L 545,610.33 L 546,608.33 L 546,607.33 L 546,606.33 L 546,605.33 L 546,604.33 L 545,604.33 L 541,603.33 L 540,602.33 L 537,602.33 L 534,600.33 L 531,598.33 L 530,597.33 L 529,596.33 L 528,595.33 L 527,595.33 L 527,594.33 L 527,592.33 L 528,591.33 L 529,591.33 L 532,590.33 L 539,588.33 L 545,588.33 L 548,588.33 L 549,588.33 L 550,588.33" fill="none" stroke="#1a85ff" stroke-width="2"></path><path d="M 491,576.33 L 490,580.33 L 490,610.33 L 491,610.33 L 493,610.33 L 496,609.33 L 499,606.33 L 501,604.33 L 502,603.33 L 502,602.33 L 502,601.33 L 502,600.33 L 501,599.33 L 500,598.33 L 499,598.33 L 498,597.33 L 497,596.33 L 496,596.33 L 496,595.33 L 496,594.33 L 496,593.33 L 496,592.33 L 497,591.33 L 498,591.33 L 500,590.33 L 501,589.33 L 503,588.33 L 504,587.33 L 507,586.33 L 511,585.33 L 517,583.33 L 522,583.33 L 527,583.33 L 535,583.33 L 536,583.33 L 536,584.33 L 535,586.33 L 532,589.33 L 528,590.33 L 525,592.33 L 521,594.33 L 516,595.33 L 508,597.33 L 505,597.33 L 502,597.33 L 502,598.33 L 506,598.33 L 512,598.33 L 519,598.33 L 523,599.33 L 524,600.33 L 523,601.33 L 517,604.33 L 505,607.33 L 495,612.33 L 489,615.33 L 487,615.33 L 486,616.33 L 491,617.33 L 504,617.33 L 522,617.33 L 544,617.33 L 562,617.33 L 574,617.33 L 581,617.33 L 582,617.33 L 580,619.33 L 571,622.33 L 559,625.33 L 544,627.33 L 528,631.33 L 513,634.33 L 495,638.33 L 479,643.33 L 470,644.33 L 467,644.33 L 466,644.33 L 474,638.33 L 487,631.33 L 503,625.33 L 521,617.33 L 539,612.33 L 553,608.33 L 556,608.33 L 555,608.33 L 548,608.33 L 536,608.33 L 527,608.33 L 520,608.33 L 516,608.33 L 513,608.33 L 511,606.33 L 509,603.33 L 509,596.33 L 509,592.33 L 509,589.33 L 509,588.33" fill="none" stroke="#1a85ff" stroke-width="2"></path><path d="M 103,679.33 L 104,678.33 L 102,677.33 L 96,676.33 L 87,676.33 L 83,676.33 L 75,679.33 L 67,683.33 L 62,688.33 L 54,695.33 L 49,702.33 L 43,712.33 L 40,718.33 L 40,721.33 L 40,722.33 L 44,722.33 L 53,722.33 L 63,722.33 L 72,722.33 L 79,722.33 L 82,722.33 L 84,722.33 L 85,722.33 L 86,722.33" fill="none" stroke="#1a85ff" stroke-width="2"></path><path d="M 107,692.33 L 110,692.33 L 121,692.33 L 134,692.33 L 144,692.33 L 150,692.33 L 151,692.33" fill="none" stroke="#1a85ff" stroke-width="2"></path><path d="M 105,708.33 L 109,708.33 L 119,708.33 L 131,708.33 L 140,708.33 L 148,708.33" fill="none" stroke="#1a85ff" stroke-width="2"></path><path d="M 183,654.33 L 182,654.33 L 182,657.33 L 182,659.33 L 184,666.33 L 185,667.33 L 185,669.33 L 186,670.33 L 187,671.33 L 188,671.33 L 189,671.33 L 193,671.33 L 196,671.33" fill="none" stroke="#1a85ff" stroke-width="2"></path><path d="M 207,659.33 L 206,662.33 L 203,669.33 L 202,675.33 L 202,678.33 L 202,680.33 L 202,681.33 L 202,682.33" fill="none" stroke="#1a85ff" stroke-width="2"></path><path d="M 221,674.33 L 227,672.33 L 234,672.33 L 241,671.33 L 245,670.33 L 248,669.33 L 248,668.33" fill="none" stroke="#1a85ff" stroke-width="2"></path><path d="M 239,679.33 L 238,680.33 L 237,682.33 L 237,683.33 L 233,684.33 L 231,685.33 L 225,685.33 L 221,685.33 L 217,685.33 L 213,685.33 L 211,685.33" fill="none" stroke="#1a85ff" stroke-width="2"></path><path d="M 245,673.33 L 242,674.33 L 240,677.33 L 238,680.33 L 238,683.33 L 238,684.33 L 238,687.33 L 239,688.33 L 241,689.33 L 244,690.33 L 247,690.33 L 248,691.33 L 251,691.33 L 253,692.33" fill="none" stroke="#1a85ff" stroke-width="2"></path><path d="M 262,698.33 L 263,697.33 L 264,691.33 L 265,684.33 L 266,676.33 L 268,671.33 L 269,666.33 L 272,661.33 L 273,659.33 L 274,657.33 L 275,657.33 L 275,659.33 L 275,662.33 L 277,669.33 L 278,674.33 L 280,679.33 L 281,681.33 L 281,682.33 L 282,683.33 L 282,684.33" fill="none" stroke="#1a85ff" stroke-width="2"></path><path d="M 262,677.33 L 263,677.33 L 266,677.33 L 275,675.33 L 280,675.33 L 283,675.33 L 285,675.33" fill="none" stroke="#1a85ff" stroke-width="2"></path><path d="M 156,712.33 L 162,712.33 L 183,712.33 L 218,712.33 L 249,712.33 L 277,712.33 L 295,712.33 L 300,712.33" fill="none" stroke="#1a85ff" stroke-width="2"></path><path d="M 210,724.33 L 209,729.33 L 209,740.33 L 209,748.33 L 209,753.33 L 209,756.33 L 209,757.33" fill="none" stroke="#1a85ff" stroke-width="2"></path><path d="M 219,719.33 L 222,719.33 L 224,719.33 L 238,724.33 L 245,727.33 L 250,729.33 L 251,730.33 L 251,731.33 L 251,734.33 L 248,738.33 L 244,741.33 L 238,744.33 L 229,746.33 L 224,746.33 L 220,746.33 L 219,746.33 L 218,745.33" fill="none" stroke="#1a85ff" stroke-width="2"></path><path d="M 267,715.33 L 269,715.33 L 274,716.33 L 281,717.33 L 285,718.33 L 286,719.33 L 287,720.33 L 288,721.33 L 288,724.33 L 286,729.33 L 281,732.33 L 273,734.33 L 265,735.33 L 260,735.33 L 256,735.33 L 255,735.33 L 255,734.33 L 259,731.33 L 262,731.33 L 267,730.33 L 271,730.33 L 274,730.33 L 276,730.33 L 277,730.33 L 277,731.33 L 279,732.33 L 280,734.33 L 283,734.33" fill="none" stroke="#1a85ff" stroke-width="2"></path></svg>