<svg id="svg" xmlns="http://www.w3.org/2000/svg" viewBox="24 88.33000183105469 745 379" height="379"><path d="M 100,203.33 L 100,202.33 L 101,199.33 L 103,193.33 L 106,185.33 L 108,177.33 L 112,165.33 L 115,157.33 L 118,152.33 L 120,149.33 L 121,147.33 L 122,145.33 L 124,144.33 L 124,143.33 L 125,143.33 L 127,148.33 L 132,160.33 L 136,168.33 L 138,174.33 L 140,179.33 L 140,182.33 L 141,186.33 L 142,189.33 L 143,191.33 L 144,193.33 L 144,194.33" fill="none" stroke="#3794ff" stroke-width="2"></path><path d="M 114,178.33 L 113,178.33 L 114,178.33 L 117,178.33 L 122,178.33 L 128,178.33 L 132,178.33 L 136,178.33 L 139,178.33 L 142,178.33 L 144,178.33 L 145,178.33 L 146,178.33 L 148,177.33 L 146,177.33 L 143,177.33 L 138,177.33 L 132,177.33 L 127,176.33 L 120,176.33 L 114,175.33 L 111,175.33 L 109,175.33 L 108,175.33" fill="none" stroke="#3794ff" stroke-width="2"></path><path d="M 103,265.33 L 103,267.33 L 103,269.33 L 103,277.33 L 103,284.33 L 103,292.33 L 103,295.33 L 103,297.33 L 103,298.33" fill="none" stroke="#3794ff" stroke-width="2"></path><path d="M 101,266.33 L 101,265.33 L 101,264.33 L 102,261.33 L 103,259.33 L 104,257.33 L 107,253.33 L 112,252.33 L 117,252.33 L 123,252.33 L 129,252.33 L 132,252.33 L 134,253.33 L 135,254.33 L 135,255.33 L 136,257.33 L 136,258.33 L 136,261.33 L 136,263.33 L 135,265.33 L 131,267.33 L 127,268.33 L 122,269.33 L 120,270.33 L 116,271.33 L 115,271.33 L 114,271.33" fill="none" stroke="#3794ff" stroke-width="2"></path><path d="M 86,360.33 L 85,360.33 L 85,359.33 L 85,357.33 L 85,350.33 L 85,343.33 L 87,338.33 L 88,333.33 L 90,329.33 L 91,325.33 L 92,322.33 L 92,321.33 L 93,321.33 L 93,323.33 L 93,328.33 L 93,335.33 L 94,340.33 L 95,345.33 L 97,350.33 L 97,352.33 L 98,353.33 L 99,353.33 L 99,354.33 L 104,349.33 L 109,343.33 L 112,338.33 L 116,330.33 L 118,325.33 L 119,321.33 L 120,317.33 L 121,316.33 L 122,314.33" fill="none" stroke="#3794ff" stroke-width="2"></path><path d="M 134,339.33 L 134,340.33 L 131,343.33 L 126,345.33 L 120,347.33 L 117,350.33 L 114,355.33 L 114,357.33 L 114,358.33 L 115,359.33 L 117,359.33 L 121,359.33 L 127,360.33 L 132,360.33 L 135,360.33 L 137,360.33" fill="none" stroke="#3794ff" stroke-width="2"></path><path d="M 237,98.33 L 237,100.33 L 237,103.33 L 237,105.33 L 237,111.33 L 237,117.33 L 237,123.33 L 237,129.33 L 237,132.33 L 237,136.33 L 237,137.33 L 237,139.33" fill="none" stroke="#3794ff" stroke-width="2"></path><path d="M 209,110.33 L 211,110.33 L 212,110.33 L 219,110.33 L 228,110.33 L 242,110.33 L 255,110.33 L 270,110.33 L 278,111.33 L 280,111.33" fill="none" stroke="#3794ff" stroke-width="2"></path><path d="M 302,118.33 L 302,120.33 L 302,124.33 L 302,127.33 L 302,131.33 L 302,132.33 L 302,134.33 L 301,135.33 L 301,136.33 L 301,137.33 L 300,138.33 L 299,137.33 L 298,137.33 L 298,136.33 L 297,130.33 L 297,127.33 L 297,124.33 L 297,120.33 L 299,118.33 L 300,116.33 L 301,115.33 L 305,115.33 L 307,115.33 L 310,115.33 L 313,115.33 L 314,115.33" fill="none" stroke="#3794ff" stroke-width="2"></path><path d="M 362,105.33 L 361,105.33 L 358,106.33 L 356,108.33 L 355,111.33 L 355,113.33 L 355,116.33 L 356,121.33 L 361,127.33 L 366,130.33 L 372,134.33 L 375,137.33 L 377,138.33 L 378,138.33 L 378,140.33 L 378,142.33 L 378,143.33 L 377,144.33 L 374,144.33 L 371,144.33 L 366,144.33 L 363,144.33 L 361,144.33 L 359,144.33 L 358,144.33 L 355,143.33 L 353,143.33" fill="none" stroke="#3794ff" stroke-width="2"></path><path d="M 221,170.33 L 221,171.33 L 221,172.33 L 223,174.33 L 223,175.33 L 224,176.33 L 226,177.33 L 229,177.33 L 234,176.33 L 237,173.33 L 241,171.33 L 242,169.33 L 242,167.33 L 242,165.33 L 242,164.33 L 242,163.33" fill="none" stroke="#3794ff" stroke-width="2"></path><path d="M 200,260.33 L 200,261.33 L 202,261.33 L 204,260.33 L 207,258.33 L 211,256.33 L 217,253.33 L 219,251.33 L 221,249.33 L 222,247.33 L 222,246.33" fill="none" stroke="#3794ff" stroke-width="2"></path><path d="M 190,350.33 L 190,351.33 L 190,352.33 L 193,352.33 L 199,350.33 L 207,346.33 L 211,343.33 L 217,339.33 L 219,337.33 L 220,335.33 L 221,333.33 L 222,331.33 L 222,330.33 L 223,328.33 L 223,327.33" fill="none" stroke="#3794ff" stroke-width="2"></path><path d="M 291,176.33 L 291,177.33 L 291,178.33 L 291,179.33 L 291,181.33 L 292,182.33 L 293,182.33 L 294,182.33 L 296,182.33 L 300,178.33 L 304,174.33 L 306,170.33 L 308,167.33 L 309,165.33 L 310,163.33" fill="none" stroke="#3794ff" stroke-width="2"></path><path d="M 280,246.33 L 280,247.33 L 281,248.33 L 281,249.33 L 283,253.33 L 286,257.33 L 289,257.33 L 292,253.33 L 297,246.33 L 301,242.33 L 302,238.33 L 304,235.33 L 304,233.33 L 305,232.33 L 305,231.33" fill="none" stroke="#3794ff" stroke-width="2"></path><path d="M 258,334.33 L 258,335.33 L 258,339.33 L 259,351.33 L 259,352.33 L 259,354.33 L 260,357.33 L 260,358.33 L 261,358.33 L 263,358.33 L 267,356.33 L 273,350.33 L 280,343.33 L 285,338.33 L 290,332.33 L 295,327.33 L 297,323.33 L 298,322.33 L 299,319.33" fill="none" stroke="#3794ff" stroke-width="2"></path><path d="M 369,177.33 L 369,176.33 L 370,176.33 L 371,179.33 L 374,183.33 L 374,186.33 L 375,189.33 L 376,190.33 L 377,191.33 L 377,192.33" fill="none" stroke="#3794ff" stroke-width="2"></path><path d="M 382,179.33 L 380,181.33 L 376,184.33 L 372,186.33 L 366,190.33 L 359,195.33 L 354,197.33" fill="none" stroke="#3794ff" stroke-width="2"></path><path d="M 351,255.33 L 351,256.33 L 352,257.33 L 355,257.33 L 360,259.33 L 363,260.33 L 365,261.33 L 367,263.33 L 368,264.33 L 370,265.33 L 370,266.33 L 371,267.33 L 372,269.33" fill="none" stroke="#3794ff" stroke-width="2"></path><path d="M 374,250.33 L 371,251.33 L 366,254.33 L 359,258.33 L 355,261.33 L 350,265.33 L 348,267.33 L 347,268.33 L 347,269.33 L 347,270.33 L 347,271.33" fill="none" stroke="#3794ff" stroke-width="2"></path><path d="M 347,344.33 L 347,346.33 L 347,349.33 L 347,354.33 L 348,358.33 L 349,361.33 L 349,363.33 L 349,364.33 L 353,362.33 L 365,352.33 L 388,332.33 L 401,320.33 L 414,310.33 L 419,304.33 L 421,302.33" fill="none" stroke="#3794ff" stroke-width="2"></path><path d="M 363,163.33 L 360,163.33 L 358,164.33 L 356,167.33 L 354,170.33 L 351,174.33 L 348,178.33 L 346,183.33 L 343,189.33 L 340,194.33 L 338,200.33 L 335,206.33 L 332,215.33 L 331,219.33 L 330,226.33 L 328,232.33 L 327,237.33 L 326,243.33 L 326,249.33 L 326,255.33 L 326,260.33 L 328,267.33 L 331,272.33 L 333,276.33 L 337,279.33 L 339,281.33 L 342,282.33 L 346,284.33 L 351,285.33 L 355,285.33 L 358,286.33 L 361,287.33 L 365,287.33 L 369,287.33 L 373,287.33 L 377,286.33 L 383,283.33 L 387,280.33 L 389,277.33 L 390,271.33 L 393,262.33 L 394,256.33 L 395,249.33 L 396,240.33 L 397,231.33 L 398,222.33 L 398,215.33 L 398,208.33 L 398,198.33 L 398,193.33 L 396,188.33 L 395,184.33 L 393,180.33 L 391,177.33 L 389,175.33 L 387,172.33 L 385,170.33 L 383,167.33 L 380,164.33 L 377,161.33 L 372,158.33 L 371,156.33 L 369,155.33 L 368,155.33" fill="none" stroke="#e51400" stroke-width="2"></path><path d="M 74,135.33 L 69,135.33 L 62,135.33 L 56,135.33 L 53,137.33 L 51,140.33 L 49,145.33 L 48,152.33 L 48,159.33 L 52,171.33 L 57,179.33 L 66,187.33 L 74,193.33 L 81,197.33 L 86,200.33 L 91,204.33 L 92,205.33 L 92,206.33 L 92,208.33 L 92,211.33 L 88,215.33 L 83,217.33 L 80,219.33 L 77,220.33 L 73,221.33 L 71,221.33 L 69,223.33 L 66,223.33 L 64,225.33 L 63,226.33 L 63,227.33 L 64,228.33 L 69,232.33 L 70,233.33 L 71,234.33 L 72,236.33 L 72,239.33 L 70,244.33 L 65,249.33 L 59,255.33 L 53,261.33 L 49,268.33 L 48,273.33 L 47,279.33 L 47,281.33 L 48,283.33 L 51,287.33 L 58,291.33 L 73,297.33 L 91,301.33 L 103,305.33 L 107,307.33 L 109,307.33" fill="none" stroke="#e51400" stroke-width="2"></path><path d="M 34,314.33 L 34,317.33 L 39,324.33 L 47,335.33 L 55,346.33 L 61,354.33 L 66,362.33 L 67,362.33 L 67,364.33" fill="none" stroke="#e51400" stroke-width="2"></path><path d="M 68,332.33 L 67,332.33 L 64,332.33 L 60,334.33 L 55,338.33 L 51,341.33 L 47,344.33 L 44,346.33 L 42,347.33 L 40,349.33" fill="none" stroke="#e51400" stroke-width="2"></path><text font-family="inherit" font-size="14" fill="#e51400" x="434" y="197.33">ratio, par exemple %</text><path d="M 600,203.33 L 601,203.33 L 602,203.33 L 602,201.33 L 604,197.33 L 604,194.33 L 606,188.33 L 606,184.33 L 608,178.33 L 610,171.33 L 612,165.33 L 613,162.33 L 615,157.33 L 616,154.33 L 617,152.33 L 618,150.33 L 619,149.33 L 620,149.33 L 622,151.33 L 624,155.33 L 626,161.33 L 628,167.33 L 629,171.33 L 630,176.33 L 632,180.33 L 632,184.33 L 633,186.33 L 634,188.33 L 634,190.33 L 635,192.33 L 635,195.33 L 635,197.33 L 635,199.33 L 635,202.33 L 635,206.33 L 635,208.33" fill="none" stroke="#bf8803" stroke-width="2"></path><path d="M 607,183.33 L 609,182.33 L 611,182.33 L 617,182.33 L 622,182.33 L 629,182.33 L 634,182.33 L 638,182.33 L 639,181.33" fill="none" stroke="#bf8803" stroke-width="2"></path><path d="M 665,173.33 L 666,173.33 L 669,173.33 L 675,173.33 L 685,173.33 L 693,171.33 L 698,171.33 L 699,171.33" fill="none" stroke="#bf8803" stroke-width="2"></path><path d="M 637,193.33 L 637,194.33 L 639,194.33 L 644,194.33 L 652,196.33 L 661,196.33 L 668,197.33 L 672,197.33 L 675,197.33 L 677,197.33 L 678,197.33" fill="none" stroke="#bf8803" stroke-width="2"></path><path d="M 709,174.33 L 713,175.33 L 717,181.33 L 722,187.33 L 725,190.33 L 728,193.33 L 728,194.33" fill="none" stroke="#bf8803" stroke-width="2"></path><path d="M 731,174.33 L 730,175.33 L 727,180.33 L 723,187.33 L 721,191.33 L 720,194.33 L 719,197.33 L 718,200.33 L 717,201.33 L 717,202.33" fill="none" stroke="#bf8803" stroke-width="2"></path><path d="M 755,150.33 L 757,150.33 L 758,151.33 L 759,153.33 L 759,156.33 L 759,159.33 L 757,162.33 L 754,165.33 L 750,167.33 L 746,167.33 L 744,167.33 L 743,167.33 L 742,166.33 L 742,163.33 L 742,161.33 L 742,159.33 L 744,158.33 L 746,158.33 L 748,158.33 L 751,159.33 L 753,161.33 L 754,163.33 L 755,164.33 L 756,166.33 L 756,167.33 L 757,168.33 L 757,169.33 L 757,170.33" fill="none" stroke="#bf8803" stroke-width="2"></path><path d="M 596,252.33 L 597,252.33 L 598,253.33 L 600,257.33 L 601,264.33 L 603,271.33 L 603,276.33 L 603,280.33 L 603,285.33 L 603,287.33 L 603,288.33" fill="none" stroke="#bf8803" stroke-width="2"></path><path d="M 604,252.33 L 605,251.33 L 606,249.33 L 609,247.33 L 616,246.33 L 625,244.33 L 634,244.33 L 638,244.33 L 640,245.33 L 642,248.33 L 643,251.33 L 643,255.33 L 642,260.33 L 638,265.33 L 633,266.33 L 627,268.33 L 623,269.33 L 620,269.33 L 617,269.33 L 616,269.33 L 615,269.33 L 614,269.33 L 613,268.33 L 612,267.33" fill="none" stroke="#bf8803" stroke-width="2"></path><path d="M 657,264.33 L 658,264.33 L 664,264.33 L 670,264.33 L 673,264.33 L 676,263.33 L 677,263.33" fill="none" stroke="#bf8803" stroke-width="2"></path><path d="M 655,282.33 L 659,282.33 L 665,281.33 L 671,280.33 L 676,279.33 L 678,278.33 L 680,278.33" fill="none" stroke="#bf8803" stroke-width="2"></path><path d="M 711,246.33 L 711,249.33 L 711,254.33 L 714,263.33 L 716,269.33 L 718,275.33 L 720,279.33 L 721,282.33 L 721,283.33 L 722,283.33 L 723,285.33" fill="none" stroke="#bf8803" stroke-width="2"></path><path d="M 728,257.33 L 726,259.33 L 722,264.33 L 716,270.33 L 711,274.33 L 708,276.33 L 705,279.33 L 703,281.33 L 702,282.33" fill="none" stroke="#bf8803" stroke-width="2"></path><path d="M 652,313.33 L 653,313.33 L 654,314.33 L 655,318.33 L 655,324.33 L 657,329.33 L 657,334.33 L 658,338.33 L 658,341.33 L 658,343.33 L 658,345.33 L 659,346.33 L 659,347.33" fill="none" stroke="#bf8803" stroke-width="2"></path><path d="M 645,349.33 L 645,355.33 L 645,362.33 L 645,368.33 L 648,373.33 L 651,377.33 L 653,379.33 L 656,380.33 L 659,380.33 L 664,380.33 L 667,380.33 L 672,375.33 L 675,372.33 L 677,367.33 L 679,362.33 L 680,358.33 L 682,355.33 L 682,354.33" fill="none" stroke="#bf8803" stroke-width="2"></path><path d="M 594,423.33 L 595,424.33 L 595,427.33 L 595,430.33 L 595,439.33 L 595,446.33 L 595,450.33 L 595,455.33 L 595,456.33 L 596,457.33" fill="none" stroke="#bf8803" stroke-width="2"></path><path d="M 600,415.33 L 602,413.33 L 605,413.33 L 609,412.33 L 614,412.33 L 619,416.33 L 622,418.33 L 624,422.33 L 626,426.33 L 627,428.33 L 627,430.33 L 627,432.33 L 627,435.33 L 627,437.33 L 625,438.33 L 623,439.33 L 620,439.33 L 618,439.33 L 616,439.33 L 615,439.33 L 614,439.33 L 613,439.33" fill="none" stroke="#bf8803" stroke-width="2"></path><path d="M 643,424.33 L 656,424.33 L 666,424.33 L 672,424.33" fill="none" stroke="#bf8803" stroke-width="2"></path><path d="M 660,437.33 L 660,438.33 L 661,438.33 L 663,438.33 L 664,438.33 L 665,438.33 L 666,438.33" fill="none" stroke="#bf8803" stroke-width="2"></path><path d="M 695,415.33 L 697,421.33 L 701,428.33 L 705,437.33 L 707,440.33 L 709,442.33 L 710,443.33 L 710,444.33 L 711,444.33 L 712,445.33 L 713,445.33" fill="none" stroke="#bf8803" stroke-width="2"></path><path d="M 712,418.33 L 710,423.33 L 708,427.33 L 705,433.33 L 701,441.33 L 698,445.33 L 695,449.33 L 693,452.33 L 693,454.33 L 692,455.33 L 691,456.33 L 691,457.33" fill="none" stroke="#bf8803" stroke-width="2"></path><path d="M 711,396.33 L 712,396.33 L 717,396.33 L 724,396.33 L 729,396.33 L 736,396.33 L 739,398.33 L 741,400.33 L 742,402.33 L 742,405.33 L 742,408.33 L 741,415.33 L 736,420.33 L 732,421.33 L 729,422.33 L 726,422.33 L 725,422.33 L 725,419.33 L 725,417.33 L 725,415.33 L 727,415.33 L 728,415.33 L 731,415.33 L 734,416.33 L 735,417.33 L 735,418.33 L 736,418.33 L 736,419.33 L 737,422.33 L 737,423.33 L 737,425.33 L 738,426.33" fill="none" stroke="#bf8803" stroke-width="2"></path></svg>