<svg id="svg" xmlns="http://www.w3.org/2000/svg" viewBox="-4 135.3300018310547 538 194.99998474121094" height="194.99998474121094"><rect x="96" y="200.33" fill="none" stroke="#3794ff" stroke-width="2" width="345" height="105.99999999999997" d="M 96 200.33 h 345 v 105.99999999999997 h -345 Z"></rect><path d="M 23,200.33 L 27,200.33 L 39,202.33 L 55,204.33 L 74,204.33 L 92,206.33 L 106,207.33 L 116,207.33 L 124,209.33 L 129,209.33 L 134,209.33 L 138,209.33 L 141,209.33 L 145,209.33 L 147,209.33 L 148,209.33 L 149,209.33 L 149,208.33 L 150,207.33 L 150,206.33 L 150,205.33 L 150,204.33 L 150,203.33 L 150,202.33 L 150,201.33" fill="none" stroke="#3794ff" stroke-width="2"></path><path d="M 120,320.33 L 120,319.33 L 120,317.33 L 117,317.33 L 107,316.33 L 95,316.33 L 81,316.33 L 68,316.33 L 54,315.33 L 41,314.33 L 31,314.33 L 24,314.33 L 19,314.33 L 15,314.33 L 11,314.33 L 9,314.33 L 7,314.33 L 6,314.33" fill="none" stroke="#3794ff" stroke-width="2"></path><path d="M 434,194.33 L 438,194.33 L 448,192.33 L 462,191.33 L 486,188.33 L 504,188.33 L 516,188.33 L 522,188.33 L 524,188.33" fill="none" stroke="#3794ff" stroke-width="2"></path><path d="M 422,306.33 L 423,306.33 L 427,306.33 L 436,304.33 L 457,302.33 L 470,301.33 L 481,301.33 L 486,301.33 L 488,301.33 L 489,301.33 L 490,301.33 L 491,301.33" fill="none" stroke="#3794ff" stroke-width="2"></path><path d="M 95,161.33 L 96,162.33 L 96,163.33 L 96,165.33 L 96,168.33 L 96,170.33 L 96,171.33 L 96,172.33 L 96,173.33 L 96,174.33 L 96,176.33 L 96,178.33 L 96,180.33 L 96,181.33 L 96,182.33 L 96,183.33" fill="none" stroke="#3794ff" stroke-width="2"></path><path d="M 102,162.33 L 103,161.33 L 103,162.33 L 103,166.33 L 103,170.33 L 103,172.33 L 103,175.33 L 102,177.33 L 102,178.33 L 101,178.33 L 101,177.33 L 102,172.33 L 103,169.33 L 106,164.33 L 109,162.33 L 111,160.33 L 113,160.33 L 114,160.33 L 115,160.33 L 116,160.33 L 116,161.33 L 118,163.33 L 119,167.33 L 119,169.33 L 119,172.33 L 119,174.33 L 119,176.33 L 119,177.33 L 118,178.33" fill="none" stroke="#3794ff" stroke-width="2"></path><path d="M 136,145.33 L 136,149.33 L 135,155.33 L 134,164.33 L 133,171.33 L 133,176.33 L 133,180.33 L 133,182.33 L 133,184.33" fill="none" stroke="#3794ff" stroke-width="2"></path><path d="M 117,150.33 L 122,149.33 L 139,152.33 L 150,154.33 L 160,154.33 L 163,154.33 L 164,154.33" fill="none" stroke="#3794ff" stroke-width="2"></path><path d="M 191,158.33 L 191,159.33 L 191,164.33 L 190,168.33 L 189,172.33 L 189,175.33 L 189,177.33 L 188,178.33 L 187,180.33 L 187,181.33" fill="none" stroke="#3794ff" stroke-width="2"></path><path d="M 181,167.33 L 182,167.33 L 184,167.33 L 185,167.33 L 186,166.33 L 192,166.33 L 196,166.33 L 199,166.33 L 202,165.33" fill="none" stroke="#3794ff" stroke-width="2"></path><path d="M 203,173.33 L 202,174.33 L 201,175.33 L 200,177.33 L 200,179.33 L 200,181.33 L 200,182.33 L 200,183.33 L 202,183.33 L 204,183.33 L 207,180.33 L 209,178.33 L 210,175.33 L 210,173.33 L 210,172.33 L 209,172.33 L 209,175.33 L 209,177.33 L 209,179.33 L 209,180.33 L 209,182.33 L 210,182.33 L 211,182.33 L 213,182.33 L 216,181.33 L 218,180.33" fill="none" stroke="#3794ff" stroke-width="2"></path><path d="M 229,151.33 L 228,151.33 L 225,154.33 L 221,159.33 L 217,166.33 L 214,174.33 L 214,178.33 L 214,180.33 L 215,183.33 L 216,183.33 L 219,183.33 L 224,183.33 L 227,183.33 L 230,181.33 L 230,180.33 L 230,178.33 L 230,177.33 L 230,174.33 L 230,172.33 L 229,172.33 L 227,172.33 L 226,172.33 L 224,172.33 L 223,172.33" fill="none" stroke="#3794ff" stroke-width="2"></path><path d="M 261,152.33 L 259,152.33 L 258,152.33 L 257,152.33 L 254,151.33 L 253,151.33 L 251,151.33 L 250,151.33 L 249,151.33 L 249,155.33 L 249,159.33 L 249,162.33 L 249,165.33 L 249,168.33 L 249,173.33 L 249,175.33 L 249,178.33 L 248,180.33 L 248,181.33 L 248,182.33 L 251,183.33 L 252,183.33" fill="none" stroke="#3794ff" stroke-width="2"></path><path d="M 271,158.33 L 271,157.33 L 272,156.33 L 275,156.33 L 278,156.33 L 280,156.33 L 282,156.33 L 283,157.33 L 284,157.33 L 284,158.33 L 284,159.33 L 281,163.33 L 280,164.33 L 278,164.33 L 277,165.33 L 279,166.33 L 280,166.33 L 283,167.33 L 285,169.33 L 286,170.33 L 287,171.33 L 288,173.33 L 288,174.33 L 288,175.33 L 286,176.33 L 281,176.33 L 277,176.33 L 273,177.33 L 271,178.33" fill="none" stroke="#3794ff" stroke-width="2"></path><path d="M 305,156.33 L 304,156.33 L 305,154.33 L 309,151.33 L 313,150.33 L 318,148.33 L 323,145.33 L 325,145.33 L 327,145.33 L 328,145.33 L 330,145.33 L 331,146.33 L 332,150.33 L 333,155.33 L 334,161.33 L 335,164.33 L 336,169.33 L 336,171.33 L 337,175.33 L 337,177.33 L 337,178.33 L 336,178.33 L 335,178.33 L 329,178.33 L 324,178.33 L 321,178.33 L 318,178.33 L 317,179.33" fill="none" stroke="#3794ff" stroke-width="2"></path><path d="M 359,152.33 L 359,151.33 L 359,152.33 L 359,153.33 L 360,153.33 L 361,153.33 L 363,153.33 L 364,153.33 L 364,152.33 L 364,151.33 L 364,149.33 L 362,149.33" fill="none" stroke="#3794ff" stroke-width="2"></path><path d="M 364,169.33 L 365,170.33 L 365,171.33 L 365,172.33 L 362,174.33 L 360,175.33 L 355,175.33 L 353,176.33 L 350,176.33 L 348,177.33" fill="none" stroke="#3794ff" stroke-width="2"></path><path d="M 168,208.33 L 169,208.33 L 170,215.33 L 171,221.33 L 172,233.33 L 172,243.33 L 172,252.33 L 172,260.33 L 172,267.33 L 172,271.33 L 172,276.33 L 172,280.33 L 172,283.33 L 172,288.33 L 171,294.33 L 170,296.33 L 170,297.33 L 170,298.33 L 170,299.33 L 170,300.33 L 170,301.33 L 170,302.33 L 170,303.33 L 170,304.33 L 170,305.33 L 169,306.33 L 169,307.33" fill="none" stroke="#3794ff" stroke-width="2"></path><path d="M 111,230.33 L 113,228.33 L 121,228.33 L 135,228.33 L 141,228.33 L 146,228.33 L 149,230.33 L 152,233.33 L 154,236.33 L 154,240.33 L 154,244.33 L 154,247.33 L 154,251.33 L 151,252.33 L 144,253.33 L 134,253.33 L 129,253.33 L 125,253.33 L 123,252.33 L 123,251.33 L 122,251.33 L 122,250.33 L 126,250.33 L 133,250.33 L 143,254.33 L 152,260.33 L 157,264.33 L 158,266.33 L 158,268.33 L 158,271.33 L 157,274.33 L 154,275.33 L 149,276.33 L 144,277.33 L 139,277.33 L 135,277.33 L 132,278.33 L 130,279.33" fill="none" stroke="#3794ff" stroke-width="2"></path><path d="M 232,234.33 L 239,233.33 L 253,233.33 L 264,233.33 L 271,233.33 L 275,234.33 L 279,237.33 L 280,239.33 L 281,243.33 L 281,249.33 L 281,255.33 L 276,261.33 L 271,267.33 L 254,277.33 L 238,283.33 L 222,285.33 L 207,285.33 L 198,285.33 L 194,284.33 L 193,284.33 L 193,281.33 L 195,277.33 L 203,271.33 L 214,268.33 L 224,268.33 L 232,268.33 L 237,270.33 L 242,273.33 L 245,277.33 L 247,280.33 L 249,283.33 L 250,285.33 L 250,286.33 L 251,289.33 L 251,291.33 L 252,291.33 L 252,292.33 L 254,292.33 L 257,292.33" fill="none" stroke="#3794ff" stroke-width="2"></path><path d="M 382,218.33 L 383,218.33 L 385,220.33 L 386,229.33 L 386,235.33 L 386,241.33 L 386,245.33 L 386,249.33 L 385,254.33 L 384,256.33 L 384,259.33 L 383,260.33 L 382,262.33 L 382,263.33 L 382,265.33 L 382,268.33 L 381,271.33 L 381,277.33 L 381,287.33 L 381,292.33 L 381,296.33 L 381,299.33 L 381,300.33 L 381,301.33" fill="none" stroke="#3794ff" stroke-width="2"></path><path d="M 321,210.33 L 321,216.33 L 321,225.33 L 321,235.33 L 321,243.33 L 321,250.33 L 321,256.33 L 321,262.33 L 321,267.33 L 321,280.33 L 321,286.33 L 321,289.33 L 321,291.33 L 321,292.33 L 321,294.33 L 321,295.33 L 321,296.33 L 321,298.33 L 321,299.33 L 321,300.33 L 321,301.33 L 321,302.33 L 321,303.33 L 321,304.33 L 321,305.33 L 321,306.33 L 320,306.33" fill="none" stroke="#3794ff" stroke-width="2"></path><path d="M 389,216.33 L 388,217.33 L 383,221.33 L 379,224.33 L 375,226.33 L 370,229.33 L 368,231.33 L 365,233.33 L 364,233.33 L 363,235.33" fill="none" stroke="#3794ff" stroke-width="2"></path><path d="M 361,288.33 L 362,288.33 L 363,288.33 L 366,288.33 L 370,287.33 L 376,286.33 L 382,285.33 L 387,285.33 L 389,284.33 L 391,284.33 L 392,284.33 L 394,284.33 L 397,285.33 L 399,285.33 L 400,286.33 L 401,286.33" fill="none" stroke="#3794ff" stroke-width="2"></path></svg>