<svg id="svg" xmlns="http://www.w3.org/2000/svg" viewBox="17 56.33000183105469 498 342" height="342"><rect x="119" y="198.33" fill="none" stroke="#3794ff" stroke-width="2" width="328" height="102.99999999999997" d="M 119 198.33 h 328 v 102.99999999999997 h -328 Z"></rect><line x1="206" y1="201.33" x2="207" y2="301.33" fill="none" stroke="#3794ff" stroke-width="2" d="M 206 201.33 L 207 301.33"></line><line x1="329" y1="198.33" x2="327" y2="305.33" fill="none" stroke="#3794ff" stroke-width="2" d="M 329 198.33 L 327 305.33"></line><path d="M 148,272.33 L 148,269.33 L 149,266.33 L 153,258.33 L 160,245.33 L 163,240.33 L 165,235.33 L 165,231.33 L 167,228.33 L 167,229.33 L 167,233.33 L 167,237.33 L 167,244.33 L 167,257.33 L 167,261.33 L 167,263.33 L 168,263.33 L 170,262.33 L 174,255.33 L 178,246.33 L 180,239.33 L 181,230.33 L 182,228.33 L 182,226.33" fill="none" stroke="#3794ff" stroke-width="2"></path><path d="M 221,223.33 L 224,224.33 L 227,227.33 L 230,232.33 L 231,237.33 L 233,242.33 L 234,248.33 L 234,254.33 L 234,261.33 L 234,264.33 L 234,267.33 L 233,269.33 L 233,271.33 L 233,272.33" fill="none" stroke="#3794ff" stroke-width="2"></path><path d="M 247,219.33 L 249,217.33 L 250,216.33 L 251,216.33 L 252,216.33 L 253,216.33 L 255,218.33 L 257,222.33 L 257,227.33 L 257,230.33 L 256,235.33 L 254,237.33 L 252,239.33 L 250,240.33 L 248,240.33 L 246,240.33 L 243,240.33 L 240,240.33 L 238,239.33" fill="none" stroke="#3794ff" stroke-width="2"></path><path d="M 360,239.33 L 360,238.33 L 360,237.33 L 359,237.33 L 358,237.33 L 354,239.33 L 350,249.33 L 346,255.33 L 344,263.33 L 343,268.33 L 343,269.33 L 343,270.33 L 345,270.33 L 348,269.33 L 351,266.33 L 356,263.33 L 362,258.33 L 364,256.33 L 366,254.33 L 366,253.33 L 366,254.33 L 366,257.33 L 366,263.33 L 366,267.33 L 367,268.33 L 367,269.33 L 368,269.33" fill="none" stroke="#3794ff" stroke-width="2"></path><path d="M 125,199.33 L 124,198.33 L 121,198.33 L 115,197.33 L 107,197.33 L 102,197.33 L 96,197.33 L 91,197.33 L 86,196.33 L 81,196.33 L 76,196.33 L 67,196.33 L 64,196.33 L 61,195.33 L 60,195.33 L 59,195.33 L 58,195.33 L 57,195.33 L 56,195.33 L 55,195.33" fill="none" stroke="#3794ff" stroke-width="2"></path><path d="M 124,301.33 L 123,301.33 L 121,301.33 L 118,300.33 L 113,298.33 L 104,298.33 L 93,296.33 L 77,294.33 L 60,292.33 L 40,289.33 L 32,287.33 L 30,287.33 L 29,286.33 L 28,286.33 L 27,286.33" fill="none" stroke="#3794ff" stroke-width="2"></path><path d="M 420,200.33 L 421,200.33 L 422,200.33 L 423,200.33 L 427,200.33 L 434,201.33 L 441,202.33 L 455,203.33 L 462,203.33 L 469,203.33 L 475,203.33 L 481,203.33 L 486,203.33 L 488,203.33 L 492,203.33 L 493,203.33" fill="none" stroke="#3794ff" stroke-width="2"></path><path d="M 434,304.33 L 434,302.33 L 435,302.33 L 438,302.33 L 446,302.33 L 457,302.33 L 470,302.33 L 482,302.33 L 494,302.33 L 501,302.33 L 504,302.33 L 505,302.33" fill="none" stroke="#3794ff" stroke-width="2"></path><path d="M 110,308.33 L 111,308.33 L 115,308.33 L 125,308.33 L 135,309.33 L 146,311.33 L 156,313.33 L 170,317.33 L 179,321.33 L 192,327.33 L 202,333.33 L 211,338.33 L 219,344.33 L 226,348.33 L 230,350.33 L 232,352.33 L 235,355.33 L 239,358.33 L 241,360.33 L 243,362.33 L 243,363.33 L 244,365.33 L 244,366.33 L 244,368.33 L 244,369.33 L 244,371.33 L 244,373.33 L 244,375.33 L 244,377.33 L 244,380.33 L 244,382.33 L 244,384.33 L 244,385.33 L 244,386.33 L 244,387.33 L 244,388.33 L 244,387.33 L 244,385.33 L 244,381.33 L 246,372.33 L 249,367.33 L 252,358.33 L 255,352.33 L 257,348.33 L 259,347.33 L 260,345.33 L 263,343.33 L 266,341.33 L 269,341.33 L 271,341.33 L 277,341.33 L 280,341.33 L 284,341.33 L 287,342.33 L 290,342.33 L 292,344.33 L 294,346.33 L 296,346.33 L 297,347.33 L 300,349.33 L 303,351.33 L 312,354.33 L 324,359.33 L 343,367.33 L 353,371.33 L 365,375.33 L 370,376.33 L 377,377.33 L 389,377.33 L 403,377.33 L 415,377.33 L 426,377.33 L 432,377.33 L 436,377.33 L 439,376.33 L 469,344.33 L 470,343.33 L 471,342.33 L 471,341.33 L 471,340.33 L 471,339.33" fill="none" stroke="#3794ff" stroke-width="2"></path><path d="M 148,207.33 L 147,206.33 L 147,203.33 L 146,198.33 L 144,193.33 L 143,187.33 L 140,181.33 L 138,176.33 L 137,173.33 L 136,172.33 L 135,171.33 L 135,170.33 L 133,169.33 L 130,164.33 L 127,160.33 L 124,156.33 L 123,151.33 L 121,146.33 L 121,142.33 L 120,140.33 L 119,139.33" fill="none" stroke="#3794ff" stroke-width="2"></path><path d="M 88,119.33 L 89,119.33 L 93,119.33 L 97,119.33 L 111,119.33 L 126,119.33 L 135,119.33 L 140,119.33 L 143,119.33" fill="none" stroke="#3794ff" stroke-width="2"></path><path d="M 114,114.33 L 114,112.33 L 114,110.33 L 115,104.33 L 115,98.33 L 115,91.33 L 115,88.33 L 114,84.33 L 114,81.33 L 113,79.33 L 112,78.33 L 112,77.33" fill="none" stroke="#3794ff" stroke-width="2"></path><path d="M 74,69.33 L 77,68.33 L 83,68.33 L 92,68.33 L 101,68.33 L 108,68.33 L 112,68.33 L 116,68.33 L 117,68.33" fill="none" stroke="#3794ff" stroke-width="2"></path><path d="M 108,67.33 L 109,67.33 L 111,67.33 L 113,67.33 L 117,66.33 L 125,66.33 L 131,66.33 L 135,66.33 L 139,66.33 L 143,66.33 L 144,66.33 L 146,66.33 L 147,66.33 L 148,66.33" fill="none" stroke="#3794ff" stroke-width="2"></path><path d="M 287,81.33" fill="none" stroke="#3794ff" stroke-width="2"></path><path d="M 181,257.33" fill="none" stroke="#3794ff" stroke-width="2"></path></svg>