<svg id="svg" xmlns="http://www.w3.org/2000/svg" viewBox="12 -2.6700000762939453 783 916" height="916"><path d="M 175,182.33 L 177,184.33 L 180,190.33 L 182,205.33 L 184,225.33 L 185,244.33 L 185,268.33 L 186,301.33 L 186,321.33 L 186,339.33 L 186,353.33 L 186,369.33 L 186,385.33 L 186,400.33 L 188,410.33 L 191,420.33 L 192,425.33 L 194,431.33 L 197,442.33 L 207,459.33 L 214,470.33 L 220,476.33 L 231,481.33 L 244,483.33 L 257,483.33 L 266,483.33 L 273,481.33 L 280,478.33 L 286,476.33 L 293,473.33 L 299,472.33 L 306,470.33 L 310,469.33 L 314,467.33 L 319,463.33 L 323,460.33 L 327,454.33 L 329,441.33 L 332,417.33 L 336,380.33 L 336,337.33 L 333,294.33 L 326,260.33 L 321,226.33 L 320,207.33 L 320,191.33 L 320,180.33 L 320,175.33 L 320,172.33 L 320,170.33 L 320,167.33 L 321,165.33 L 323,161.33 L 325,159.33 L 326,157.33 L 326,156.33 L 326,154.33 L 325,150.33 L 320,147.33 L 308,145.33 L 292,145.33 L 271,146.33 L 251,149.33 L 234,153.33 L 222,155.33 L 214,156.33 L 212,156.33 L 211,157.33 L 210,157.33 L 208,158.33 L 205,159.33 L 200,162.33 L 188,164.33 L 183,165.33 L 180,165.33 L 179,165.33 L 178,165.33" fill="none" stroke="#3794ff" stroke-width="2"></path><path d="M 22,255.33 L 26,253.33 L 33,252.33 L 40,252.33 L 51,251.33 L 62,251.33 L 75,251.33 L 89,251.33 L 104,251.33 L 110,251.33 L 112,251.33 L 113,251.33 L 115,251.33 L 120,251.33 L 124,251.33 L 131,251.33 L 140,251.33 L 148,251.33 L 151,251.33 L 153,251.33" fill="none" stroke="#3794ff" stroke-width="2"></path><path d="M 157,225.33 L 158,225.33 L 175,233.33 L 186,238.33 L 195,241.33 L 200,242.33 L 201,243.33 L 201,244.33 L 202,244.33 L 203,245.33 L 203,246.33 L 203,248.33 L 203,249.33 L 203,251.33 L 201,252.33 L 198,255.33 L 194,257.33 L 190,259.33 L 185,261.33 L 182,263.33 L 178,264.33 L 177,265.33 L 176,265.33" fill="none" stroke="#3794ff" stroke-width="2"></path><path d="M 40,338.33 L 42,338.33 L 46,338.33 L 58,338.33 L 69,338.33 L 80,338.33 L 90,338.33 L 99,338.33 L 106,339.33 L 111,339.33 L 116,340.33 L 119,341.33 L 121,341.33 L 123,341.33 L 124,341.33 L 125,341.33 L 126,341.33 L 127,341.33 L 128,341.33" fill="none" stroke="#3794ff" stroke-width="2"></path><path d="M 147,327.33 L 152,327.33 L 154,327.33 L 156,327.33 L 159,327.33 L 160,328.33 L 161,329.33 L 163,330.33 L 164,332.33 L 165,333.33 L 166,336.33 L 166,338.33 L 166,340.33 L 166,344.33 L 166,347.33 L 161,349.33 L 157,349.33 L 151,351.33 L 146,352.33 L 143,352.33 L 140,353.33 L 138,354.33 L 137,354.33 L 137,355.33" fill="none" stroke="#3794ff" stroke-width="2"></path><path d="M 61,403.33 L 61,405.33 L 70,408.33 L 75,408.33 L 85,409.33 L 95,409.33 L 106,409.33 L 112,409.33 L 117,409.33 L 121,409.33 L 125,409.33 L 128,409.33 L 133,409.33 L 135,409.33" fill="none" stroke="#3794ff" stroke-width="2"></path><path d="M 148,398.33 L 154,398.33 L 160,399.33 L 165,401.33 L 169,403.33 L 169,404.33 L 170,404.33 L 172,406.33 L 172,407.33 L 172,408.33 L 172,411.33 L 172,412.33 L 172,414.33 L 170,416.33 L 167,418.33 L 164,421.33 L 162,421.33 L 160,422.33 L 159,422.33 L 157,423.33 L 154,423.33 L 152,424.33 L 150,424.33 L 149,425.33 L 149,426.33" fill="none" stroke="#3794ff" stroke-width="2"></path><path d="M 363,286.33 L 364,286.33 L 367,286.33 L 383,288.33 L 398,290.33 L 414,290.33 L 432,290.33 L 446,290.33 L 458,290.33 L 465,290.33 L 470,290.33 L 473,290.33 L 474,290.33 L 475,290.33" fill="none" stroke="#3794ff" stroke-width="2"></path><path d="M 491,274.33 L 493,274.33 L 497,276.33 L 501,277.33 L 508,282.33 L 517,287.33 L 523,291.33 L 530,295.33 L 532,296.33 L 532,297.33 L 527,298.33 L 519,299.33 L 512,302.33 L 509,303.33 L 507,304.33 L 506,304.33 L 506,305.33 L 505,305.33" fill="none" stroke="#3794ff" stroke-width="2"></path><path d="M 310,253.33 L 310,252.33 L 314,251.33 L 328,251.33 L 345,251.33 L 365,251.33 L 383,251.33 L 396,251.33 L 407,251.33 L 416,251.33 L 421,251.33 L 422,251.33" fill="none" stroke="#3794ff" stroke-width="2"></path><path d="M 473,228.33 L 475,229.33 L 480,232.33 L 486,236.33 L 492,238.33 L 496,239.33 L 497,240.33 L 498,240.33 L 498,242.33 L 497,243.33 L 495,244.33 L 493,246.33 L 489,247.33 L 486,248.33 L 482,249.33 L 479,251.33 L 476,252.33 L 475,253.33 L 474,253.33 L 474,254.33 L 473,254.33 L 472,255.33 L 472,256.33 L 472,257.33" fill="none" stroke="#3794ff" stroke-width="2"></path><path d="M 65,160.33 L 65,161.33 L 65,162.33 L 65,164.33 L 66,167.33 L 68,172.33 L 69,174.33 L 70,175.33 L 70,178.33 L 71,180.33 L 72,181.33 L 72,183.33 L 72,184.33 L 73,185.33 L 73,186.33 L 73,187.33 L 73,188.33 L 74,190.33 L 74,191.33 L 74,193.33 L 75,195.33 L 75,197.33 L 75,200.33 L 75,204.33 L 75,205.33 L 75,207.33 L 76,209.33 L 76,211.33 L 76,212.33" fill="none" stroke="#3794ff" stroke-width="2"></path><path d="M 66,170.33 L 66,169.33 L 70,168.33 L 76,166.33 L 86,163.33 L 94,163.33 L 99,162.33 L 102,160.33 L 103,160.33" fill="none" stroke="#3794ff" stroke-width="2"></path><path d="M 68,185.33 L 68,186.33 L 71,186.33 L 77,186.33 L 88,185.33 L 97,184.33 L 105,183.33 L 109,182.33 L 110,182.33" fill="none" stroke="#3794ff" stroke-width="2"></path><path d="M 129,157.33 L 128,157.33 L 126,158.33 L 125,159.33 L 124,159.33 L 122,161.33 L 120,162.33 L 119,164.33 L 118,165.33 L 117,166.33 L 114,169.33 L 113,170.33 L 111,173.33 L 111,174.33 L 111,176.33 L 111,177.33 L 111,178.33 L 111,179.33 L 111,180.33 L 111,182.33 L 111,183.33 L 112,185.33 L 113,186.33 L 115,188.33 L 116,189.33 L 119,190.33 L 122,190.33 L 124,190.33 L 127,190.33 L 129,190.33 L 130,190.33 L 130,189.33" fill="none" stroke="#3794ff" stroke-width="2"></path><path d="M 142,154.33 L 143,155.33 L 144,157.33 L 145,158.33 L 145,162.33 L 145,165.33 L 146,170.33 L 146,173.33 L 147,177.33 L 148,178.33 L 148,179.33 L 148,180.33 L 148,181.33 L 148,182.33 L 148,184.33 L 148,185.33 L 148,186.33 L 148,187.33 L 148,188.33 L 148,189.33 L 148,190.33 L 148,192.33 L 148,195.33 L 148,197.33 L 148,198.33 L 148,199.33" fill="none" stroke="#3794ff" stroke-width="2"></path><path d="M 127,153.33 L 127,152.33 L 128,152.33 L 131,151.33 L 133,150.33 L 137,149.33 L 142,148.33 L 148,148.33 L 152,147.33 L 157,146.33 L 159,146.33 L 163,145.33 L 166,145.33 L 167,145.33 L 168,144.33" fill="none" stroke="#3794ff" stroke-width="2"></path><path d="M 72,115.33 L 72,113.33 L 72,111.33 L 72,109.33 L 73,105.33 L 74,103.33 L 74,99.33 L 74,98.33 L 74,96.33 L 74,95.33 L 75,93.33 L 75,92.33 L 76,91.33 L 76,90.33 L 76,89.33 L 76,88.33" fill="none" stroke="#3794ff" stroke-width="2"></path><path d="M 67,78.33 L 67,77.33 L 67,76.33 L 67,74.33 L 69,72.33 L 72,69.33 L 77,64.33 L 81,61.33 L 83,59.33 L 86,57.33 L 88,57.33 L 88,56.33 L 89,56.33 L 90,56.33 L 91,56.33 L 93,61.33 L 93,65.33 L 94,67.33 L 94,70.33 L 95,71.33 L 95,73.33 L 95,74.33 L 95,75.33 L 95,77.33 L 95,78.33 L 96,79.33 L 96,80.33" fill="none" stroke="#3794ff" stroke-width="2"></path><path d="M 90,13.33 L 90,12.33 L 89,12.33 L 87,12.33 L 83,12.33 L 82,12.33 L 80,14.33 L 80,16.33 L 80,20.33 L 80,24.33 L 80,26.33 L 81,28.33 L 82,32.33 L 83,34.33 L 83,36.33 L 83,39.33 L 83,41.33 L 83,42.33 L 82,43.33 L 81,44.33 L 80,45.33 L 78,45.33 L 76,45.33 L 75,45.33 L 73,45.33 L 72,45.33 L 71,44.33 L 71,43.33 L 70,42.33" fill="none" stroke="#3794ff" stroke-width="2"></path><path d="M 108,7.33 L 108,9.33 L 107,12.33 L 105,17.33 L 103,21.33 L 101,24.33 L 99,28.33 L 99,29.33 L 99,31.33 L 99,33.33 L 99,34.33 L 99,35.33 L 98,37.33 L 98,38.33 L 98,39.33 L 97,40.33 L 97,41.33 L 97,44.33 L 94,46.33 L 94,47.33" fill="none" stroke="#3794ff" stroke-width="2"></path><path d="M 116,39.33 L 113,38.33 L 111,38.33 L 108,38.33 L 105,38.33 L 103,38.33 L 102,40.33 L 101,43.33 L 100,45.33 L 100,47.33 L 100,49.33 L 100,50.33 L 101,52.33 L 102,53.33 L 105,54.33 L 110,54.33 L 117,54.33 L 121,54.33 L 126,52.33 L 127,52.33 L 128,51.33 L 128,49.33 L 128,47.33 L 128,45.33 L 128,43.33 L 128,41.33 L 128,40.33 L 127,38.33 L 126,38.33" fill="none" stroke="#3794ff" stroke-width="2"></path><path d="M 172,22.33 L 172,24.33 L 169,29.33 L 165,35.33 L 162,41.33 L 159,45.33 L 157,49.33 L 156,52.33 L 155,52.33 L 155,53.33 L 155,54.33 L 154,55.33 L 154,56.33 L 153,57.33" fill="none" stroke="#3794ff" stroke-width="2"></path><path d="M 143,32.33 L 143,31.33 L 145,31.33 L 149,31.33 L 164,31.33 L 176,31.33 L 190,32.33 L 200,34.33 L 203,34.33 L 205,34.33" fill="none" stroke="#3794ff" stroke-width="2"></path><path d="M 209,138.33 L 208,138.33 L 208,136.33 L 208,134.33 L 209,130.33 L 212,124.33 L 214,119.33 L 217,114.33 L 219,110.33 L 224,104.33 L 228,100.33 L 230,98.33 L 231,97.33 L 232,95.33 L 233,94.33 L 234,94.33 L 235,93.33 L 237,91.33 L 239,89.33 L 241,88.33 L 243,87.33 L 245,86.33 L 245,85.33 L 246,85.33 L 247,85.33 L 248,86.33 L 248,88.33 L 248,94.33 L 250,103.33 L 251,108.33 L 251,112.33 L 252,116.33 L 252,119.33 L 253,122.33 L 253,123.33 L 253,124.33 L 253,125.33 L 253,127.33 L 253,128.33 L 254,129.33" fill="none" stroke="#3794ff" stroke-width="2"></path><path d="M 216,115.33 L 216,114.33 L 221,113.33 L 227,113.33 L 234,113.33 L 240,113.33 L 244,112.33 L 246,112.33 L 247,112.33" fill="none" stroke="#3794ff" stroke-width="2"></path><path d="M 377,152.33 L 376,152.33 L 374,152.33 L 373,152.33 L 372,152.33 L 370,152.33 L 370,154.33 L 370,156.33 L 370,158.33 L 370,161.33 L 370,164.33 L 372,167.33 L 373,170.33 L 374,172.33 L 375,175.33 L 376,179.33 L 377,179.33 L 377,180.33 L 378,181.33 L 378,182.33 L 378,183.33 L 377,184.33 L 373,185.33 L 364,185.33 L 353,182.33 L 340,179.33 L 332,176.33 L 330,176.33 L 329,176.33 L 329,175.33" fill="none" stroke="#3794ff" stroke-width="2"></path><path d="M 384,171.33 L 385,171.33 L 385,175.33 L 385,178.33 L 384,182.33 L 384,184.33 L 383,186.33" fill="none" stroke="#3794ff" stroke-width="2"></path><path d="M 386,161.33" fill="none" stroke="#3794ff" stroke-width="2"></path><path d="M 374,159.33 L 375,159.33 L 376,159.33 L 374,160.33 L 371,161.33 L 370,160.33 L 370,157.33 L 372,155.33 L 373,154.33 L 374,154.33 L 375,154.33" fill="none" stroke="#3794ff" stroke-width="2"></path><path d="M 426,169.33 L 415,169.33 L 400,169.33 L 397,170.33 L 396,171.33 L 395,172.33 L 395,176.33 L 395,182.33 L 397,187.33 L 405,194.33 L 410,195.33 L 415,195.33 L 419,194.33 L 422,192.33 L 424,188.33 L 427,183.33 L 427,180.33 L 427,177.33 L 427,176.33 L 427,177.33 L 427,180.33 L 427,182.33 L 427,186.33 L 426,188.33 L 425,191.33 L 422,195.33 L 419,196.33 L 414,196.33 L 399,197.33 L 392,197.33 L 387,196.33 L 384,195.33 L 381,194.33 L 381,193.33 L 383,190.33" fill="none" stroke="#3794ff" stroke-width="2"></path><path d="M 437,174.33 L 437,176.33 L 437,178.33 L 436,182.33 L 434,186.33 L 431,191.33 L 430,194.33 L 428,197.33 L 427,197.33 L 427,194.33 L 429,185.33 L 433,181.33 L 442,176.33 L 452,173.33 L 459,172.33 L 462,172.33 L 465,172.33 L 466,174.33 L 466,178.33 L 466,185.33 L 464,191.33 L 460,195.33 L 457,197.33 L 455,199.33 L 454,199.33 L 458,198.33" fill="none" stroke="#3794ff" stroke-width="2"></path><path d="M 505,188.33 L 503,188.33 L 499,187.33 L 494,187.33 L 490,188.33 L 488,189.33 L 485,192.33 L 485,194.33 L 485,195.33 L 485,198.33 L 486,199.33 L 489,199.33 L 493,199.33 L 499,199.33 L 505,196.33 L 509,191.33 L 510,189.33 L 510,188.33 L 508,188.33 L 506,189.33 L 505,192.33 L 502,196.33 L 500,200.33 L 499,201.33 L 499,202.33" fill="none" stroke="#3794ff" stroke-width="2"></path><path d="M 550,158.33 L 550,160.33 L 548,165.33 L 545,171.33 L 541,176.33 L 537,181.33 L 534,184.33 L 532,186.33 L 531,188.33 L 530,189.33 L 527,191.33 L 525,193.33 L 525,194.33 L 523,195.33 L 522,197.33 L 521,198.33 L 520,198.33 L 519,200.33" fill="none" stroke="#3794ff" stroke-width="2"></path><path d="M 606,187.33 L 606,186.33 L 608,186.33 L 610,196.33 L 611,209.33 L 611,229.33 L 611,249.33 L 611,271.33 L 611,289.33 L 611,304.33 L 611,316.33 L 611,338.33 L 611,356.33 L 611,376.33 L 611,396.33 L 611,415.33 L 611,429.33 L 612,436.33 L 614,440.33 L 614,441.33 L 616,443.33 L 621,445.33 L 632,448.33 L 647,450.33 L 665,451.33 L 683,451.33 L 701,451.33 L 717,452.33 L 732,454.33 L 747,456.33 L 757,457.33 L 762,457.33 L 764,457.33 L 764,455.33 L 765,451.33 L 767,445.33 L 769,435.33 L 774,420.33 L 778,405.33 L 783,387.33 L 785,358.33 L 785,340.33 L 785,324.33 L 783,303.33 L 780,289.33 L 779,283.33 L 778,278.33 L 777,273.33 L 777,269.33 L 776,265.33 L 775,260.33 L 774,255.33 L 772,240.33 L 772,229.33 L 771,221.33 L 770,217.33 L 769,212.33 L 766,208.33 L 766,206.33 L 764,204.33 L 764,202.33 L 763,201.33 L 762,198.33 L 760,194.33 L 758,190.33 L 758,189.33 L 757,188.33 L 756,187.33 L 753,187.33 L 748,187.33 L 736,189.33 L 724,191.33 L 710,193.33 L 693,196.33 L 684,197.33 L 673,198.33 L 664,198.33 L 657,198.33 L 652,198.33 L 647,199.33 L 643,200.33 L 639,201.33 L 636,201.33 L 632,202.33 L 627,204.33 L 619,205.33 L 618,205.33 L 616,205.33 L 615,205.33 L 613,205.33 L 612,204.33 L 611,203.33 L 610,202.33 L 609,201.33" fill="none" stroke="#3794ff" stroke-width="2"></path><path d="M 639,113.33 L 639,112.33 L 639,113.33 L 640,117.33 L 640,131.33 L 640,143.33 L 640,151.33 L 640,158.33 L 640,163.33 L 640,165.33 L 640,167.33 L 640,168.33 L 640,167.33 L 640,164.33 L 640,156.33 L 641,147.33 L 643,138.33 L 645,128.33 L 648,119.33 L 650,113.33 L 651,109.33 L 655,104.33 L 658,102.33 L 664,100.33 L 680,99.33 L 693,103.33 L 702,106.33 L 708,111.33 L 709,114.33 L 709,116.33 L 709,120.33 L 706,124.33 L 700,128.33 L 688,132.33 L 673,133.33 L 659,133.33 L 647,132.33 L 645,132.33 L 645,131.33 L 645,130.33 L 647,130.33 L 653,130.33 L 661,131.33 L 666,135.33 L 671,140.33 L 673,144.33 L 675,149.33 L 675,155.33 L 675,157.33 L 672,159.33 L 666,161.33 L 658,162.33 L 650,162.33 L 646,162.33 L 645,162.33" fill="none" stroke="#3794ff" stroke-width="2"></path><path d="M 606,249.33 L 607,249.33 L 610,249.33 L 616,249.33 L 624,247.33 L 631,246.33 L 635,245.33 L 636,245.33 L 638,245.33 L 639,245.33 L 640,245.33 L 641,245.33 L 643,245.33 L 644,244.33" fill="none" stroke="#3794ff" stroke-width="2"></path><path d="M 651,234.33 L 653,234.33 L 655,235.33 L 659,238.33 L 663,240.33 L 664,241.33 L 665,242.33 L 665,243.33 L 665,244.33 L 665,246.33 L 665,247.33 L 665,248.33 L 665,249.33 L 663,250.33 L 662,251.33 L 661,251.33" fill="none" stroke="#3794ff" stroke-width="2"></path><path d="M 585,323.33 L 587,323.33 L 592,323.33 L 603,322.33 L 614,322.33 L 622,322.33 L 627,321.33 L 628,321.33 L 629,321.33 L 631,320.33 L 631,319.33 L 632,319.33 L 633,319.33 L 635,319.33 L 636,318.33 L 637,318.33" fill="none" stroke="#3794ff" stroke-width="2"></path><path d="M 638,303.33 L 640,303.33 L 642,303.33 L 647,305.33 L 651,307.33 L 655,309.33 L 655,310.33 L 656,311.33 L 656,312.33 L 656,314.33 L 656,316.33 L 656,319.33 L 654,321.33 L 651,322.33 L 650,322.33 L 648,323.33" fill="none" stroke="#3794ff" stroke-width="2"></path><path d="M 553,393.33 L 553,394.33 L 554,394.33 L 558,394.33 L 569,394.33 L 580,394.33 L 595,391.33 L 604,389.33 L 608,387.33 L 609,387.33 L 610,387.33 L 612,387.33 L 613,387.33 L 615,386.33 L 616,385.33" fill="none" stroke="#3794ff" stroke-width="2"></path><path d="M 649,365.33 L 655,365.33 L 661,365.33 L 663,366.33 L 664,367.33 L 664,368.33 L 664,369.33 L 664,372.33 L 658,379.33 L 651,383.33 L 649,385.33 L 647,387.33 L 646,387.33 L 645,387.33" fill="none" stroke="#3794ff" stroke-width="2"></path><path d="M 547,534.33 L 548,533.33 L 551,555.33 L 551,572.33 L 551,626.33 L 544,683.33 L 535,736.33 L 531,776.33 L 529,813.33 L 529,846.33 L 529,869.33 L 530,882.33 L 532,889.33 L 534,893.33 L 535,894.33 L 536,894.33 L 540,894.33 L 550,894.33 L 570,889.33 L 589,887.33 L 609,884.33 L 633,880.33 L 652,879.33 L 670,879.33 L 680,879.33 L 686,879.33 L 687,879.33 L 691,873.33 L 698,859.33 L 704,834.33 L 712,803.33 L 713,771.33 L 713,742.33 L 710,712.33 L 710,681.33 L 710,648.33 L 710,611.33 L 709,594.33 L 709,583.33 L 709,579.33 L 709,575.33 L 709,574.33 L 708,574.33 L 703,574.33 L 688,574.33 L 654,574.33 L 626,571.33 L 599,567.33 L 579,563.33 L 566,561.33 L 559,560.33 L 555,559.33 L 554,558.33" fill="none" stroke="#3794ff" stroke-width="2"></path><path d="M 633,489.33 L 616,489.33 L 603,490.33 L 595,496.33 L 590,502.33 L 588,512.33 L 588,521.33 L 590,527.33 L 594,532.33 L 599,533.33 L 608,535.33 L 625,535.33 L 634,535.33 L 643,532.33 L 648,531.33 L 653,529.33 L 654,529.33 L 656,528.33" fill="none" stroke="#3794ff" stroke-width="2"></path><path d="M 175,558.33 L 175,580.33 L 180,615.33 L 186,663.33 L 194,708.33 L 197,740.33 L 202,763.33 L 202,790.33 L 202,829.33 L 202,851.33 L 202,867.33 L 202,880.33 L 202,887.33 L 202,894.33 L 204,899.33 L 207,901.33 L 212,902.33 L 221,903.33 L 237,903.33 L 255,903.33 L 285,903.33 L 301,903.33 L 315,903.33 L 327,903.33 L 333,901.33 L 342,895.33 L 352,882.33 L 359,866.33 L 364,838.33 L 365,807.33 L 366,772.33 L 364,730.33 L 356,684.33 L 350,650.33 L 346,627.33 L 345,609.33 L 345,594.33 L 345,585.33 L 345,576.33 L 346,570.33 L 346,565.33 L 343,558.33 L 341,558.33 L 336,557.33 L 308,557.33 L 283,557.33 L 257,557.33 L 231,557.33 L 208,556.33 L 192,554.33 L 185,552.33 L 183,552.33" fill="none" stroke="#3794ff" stroke-width="2"></path><path d="M 189,536.33 L 191,528.33 L 193,521.33 L 198,511.33 L 203,501.33 L 206,494.33 L 210,488.33 L 215,484.33 L 217,481.33 L 221,480.33 L 221,483.33 L 221,501.33 L 221,514.33 L 221,528.33 L 221,540.33 L 222,549.33 L 222,555.33 L 223,557.33" fill="none" stroke="#3794ff" stroke-width="2"></path><path d="M 163,522.33 L 167,521.33 L 173,521.33 L 186,521.33 L 209,521.33 L 227,523.33 L 239,525.33 L 248,528.33 L 250,528.33" fill="none" stroke="#3794ff" stroke-width="2"></path><path d="M 248,548.33 L 248,549.33 L 249,549.33 L 252,548.33" fill="none" stroke="#3794ff" stroke-width="2"></path><path d="M 295,529.33 L 295,528.33 L 297,526.33 L 301,522.33 L 305,514.33 L 308,507.33 L 310,500.33 L 312,492.33 L 312,489.33 L 313,486.33 L 313,489.33 L 311,498.33 L 310,508.33 L 308,519.33 L 308,526.33 L 308,531.33 L 308,534.33 L 308,536.33 L 308,537.33 L 308,538.33 L 308,539.33 L 308,540.33 L 308,541.33 L 308,542.33" fill="none" stroke="#3794ff" stroke-width="2"></path><path d="M 90,649.33 L 112,644.33 L 129,643.33 L 147,642.33 L 159,640.33" fill="none" stroke="#3794ff" stroke-width="2"></path><path d="M 176,615.33 L 177,619.33 L 184,627.33 L 197,636.33 L 209,644.33 L 220,650.33 L 226,653.33 L 229,655.33 L 229,656.33 L 229,657.33 L 224,663.33 L 215,667.33 L 199,672.33 L 190,676.33" fill="none" stroke="#3794ff" stroke-width="2"></path><path d="M 101,738.33 L 101,739.33 L 101,741.33 L 103,741.33 L 117,741.33 L 134,742.33 L 153,742.33 L 170,742.33 L 183,742.33" fill="none" stroke="#3794ff" stroke-width="2"></path><path d="M 195,706.33 L 194,707.33 L 195,711.33 L 199,717.33 L 217,736.33 L 228,748.33 L 231,752.33 L 233,755.33 L 233,758.33 L 233,760.33 L 232,765.33 L 220,769.33 L 201,772.33 L 179,773.33" fill="none" stroke="#3794ff" stroke-width="2"></path><path d="M 101,823.33 L 102,824.33 L 111,824.33 L 125,824.33 L 143,824.33 L 163,824.33 L 179,825.33 L 191,827.33 L 195,827.33" fill="none" stroke="#3794ff" stroke-width="2"></path><path d="M 171,798.33 L 173,798.33 L 177,799.33 L 190,802.33 L 204,809.33 L 220,814.33 L 233,818.33 L 241,821.33 L 241,822.33 L 241,825.33 L 240,828.33 L 234,836.33 L 228,843.33 L 223,847.33 L 219,850.33 L 217,851.33 L 216,852.33 L 215,853.33" fill="none" stroke="#3794ff" stroke-width="2"></path><path d="M 456,630.33 L 457,630.33 L 458,630.33 L 459,630.33 L 460,630.33 L 463,630.33 L 472,631.33 L 491,634.33 L 506,637.33 L 525,639.33" fill="none" stroke="#3794ff" stroke-width="2"></path><path d="M 548,623.33 L 563,631.33 L 573,636.33 L 578,641.33 L 579,642.33 L 579,645.33 L 577,649.33 L 573,655.33 L 566,659.33 L 550,669.33" fill="none" stroke="#3794ff" stroke-width="2"></path><path d="M 455,745.33 L 456,746.33 L 458,746.33 L 463,748.33 L 480,751.33 L 500,754.33 L 522,757.33 L 541,760.33 L 547,760.33" fill="none" stroke="#3794ff" stroke-width="2"></path><path d="M 543,739.33 L 544,741.33 L 547,743.33 L 558,754.33 L 569,764.33 L 579,774.33 L 579,778.33 L 579,780.33 L 578,785.33 L 574,787.33 L 568,791.33 L 559,794.33" fill="none" stroke="#3794ff" stroke-width="2"></path><path d="M 476,853.33 L 476,854.33 L 479,854.33 L 487,853.33 L 498,850.33 L 506,849.33" fill="none" stroke="#3794ff" stroke-width="2"></path><path d="M 535,841.33 L 540,843.33 L 545,845.33 L 551,847.33 L 553,848.33 L 554,848.33 L 554,849.33 L 553,853.33 L 549,856.33 L 546,859.33 L 541,862.33 L 536,864.33 L 529,866.33 L 525,868.33 L 524,869.33" fill="none" stroke="#3794ff" stroke-width="2"></path><path d="M 288,601.33 L 290,601.33 L 293,601.33 L 303,601.33 L 327,601.33 L 342,603.33 L 351,604.33 L 357,606.33 L 359,607.33" fill="none" stroke="#3794ff" stroke-width="2"></path><path d="M 369,590.33 L 385,595.33 L 402,601.33 L 412,606.33 L 415,608.33 L 416,611.33 L 415,614.33 L 405,619.33 L 396,622.33 L 385,624.33" fill="none" stroke="#3794ff" stroke-width="2"></path><path d="M 320,736.33 L 323,736.33 L 329,736.33 L 339,736.33 L 345,736.33" fill="none" stroke="#3794ff" stroke-width="2"></path><path d="M 395,726.33 L 407,732.33 L 415,738.33 L 418,741.33 L 422,744.33 L 423,745.33 L 423,748.33 L 423,751.33 L 419,755.33 L 406,757.33 L 383,761.33" fill="none" stroke="#3794ff" stroke-width="2"></path><path d="M 306,845.33 L 308,845.33 L 319,845.33 L 334,845.33 L 348,845.33" fill="none" stroke="#3794ff" stroke-width="2"></path><path d="M 349,835.33 L 357,835.33 L 374,835.33 L 389,835.33 L 399,836.33 L 401,838.33 L 401,839.33 L 401,843.33 L 398,847.33 L 395,850.33 L 391,851.33 L 388,852.33 L 387,852.33" fill="none" stroke="#3794ff" stroke-width="2"></path><rect x="456" y="522.33" fill="rgba(240, 240,240, 0.4)" stroke="#BBB" stroke-width="1"></rect><rect x="454" y="474.33" fill="rgba(240, 240,240, 0.4)" stroke="#BBB" stroke-width="1" width="296" height="416.00000000000006"></rect><rect x="750" y="890.33" fill="rgba(240, 240,240, 0.4)" stroke="#BBB" stroke-width="1"></rect><rect x="739" y="889.33" fill="rgba(240, 240,240, 0.4)" stroke="#BBB" stroke-width="1"></rect><rect x="758" y="860.33" fill="rgba(240, 240,240, 0.4)" stroke="#BBB" stroke-width="1"></rect><path d="M 80,87.33 L 80,89.33 L 80,90.33 L 78,94.33 L 77,98.33 L 76,102.33 L 73,107.33 L 72,111.33 L 69,116.33 L 68,117.33 L 68,119.33 L 68,120.33" fill="none" stroke="#3794ff" stroke-width="2"></path><path d="M 278,380.33 L 279,380.33 L 281,380.33 L 284,380.33 L 290,380.33 L 296,380.33 L 303,380.33 L 309,381.33 L 317,381.33 L 324,381.33 L 333,381.33 L 338,381.33 L 341,381.33 L 344,381.33" fill="none" stroke="#3794ff" stroke-width="2"></path><path d="M 345,368.33 L 353,370.33 L 356,372.33 L 361,373.33 L 369,377.33 L 373,379.33 L 374,380.33 L 375,382.33 L 375,385.33 L 375,389.33 L 375,391.33 L 374,394.33 L 370,398.33 L 365,400.33 L 362,402.33 L 360,403.33 L 359,404.33" fill="none" stroke="#3794ff" stroke-width="2"></path><path d="M 374,379.33 L 375,379.33 L 382,381.33 L 389,382.33 L 400,384.33 L 410,387.33 L 419,390.33 L 427,392.33 L 431,394.33 L 433,394.33 L 436,395.33 L 437,396.33 L 439,397.33 L 441,399.33 L 444,404.33 L 446,409.33 L 451,419.33 L 456,428.33 L 459,439.33 L 461,448.33 L 464,458.33 L 465,467.33 L 466,474.33 L 467,481.33 L 468,489.33 L 468,495.33 L 468,506.33 L 468,512.33 L 468,518.33 L 468,523.33 L 468,527.33 L 468,532.33 L 467,536.33 L 467,540.33 L 466,543.33 L 465,546.33 L 465,548.33 L 465,550.33 L 464,554.33 L 463,556.33 L 463,558.33 L 462,559.33 L 461,562.33 L 460,564.33 L 459,565.33 L 459,567.33 L 457,568.33 L 457,570.33 L 455,572.33 L 454,573.33 L 453,575.33 L 453,577.33 L 452,579.33 L 451,583.33 L 451,584.33 L 451,586.33 L 451,588.33 L 451,591.33 L 450,593.33 L 450,595.33 L 450,598.33 L 449,600.33 L 449,603.33 L 449,605.33 L 449,607.33 L 449,608.33 L 449,609.33 L 448,611.33 L 448,613.33 L 447,614.33 L 447,616.33 L 447,617.33 L 447,618.33 L 447,619.33 L 447,620.33 L 447,621.33 L 447,622.33 L 447,623.33 L 447,625.33 L 447,627.33 L 447,630.33 L 447,631.33 L 447,633.33 L 447,634.33 L 448,636.33 L 450,636.33 L 451,636.33 L 454,636.33 L 457,636.33 L 460,636.33 L 463,636.33 L 464,636.33 L 465,636.33 L 467,636.33 L 468,636.33 L 469,636.33" fill="none" stroke="#3794ff" stroke-width="2"></path><path d="M 405,841.33 L 405,842.33 L 406,842.33 L 407,841.33 L 410,840.33 L 412,839.33 L 418,836.33 L 422,833.33 L 428,830.33 L 433,826.33 L 437,825.33 L 441,823.33 L 444,821.33 L 447,820.33 L 449,819.33 L 450,818.33 L 452,816.33 L 453,815.33 L 453,814.33 L 453,813.33 L 453,810.33 L 453,807.33 L 453,805.33 L 453,802.33 L 453,798.33 L 453,795.33 L 453,789.33 L 452,786.33 L 452,783.33 L 452,780.33 L 451,777.33 L 451,774.33 L 451,772.33 L 451,770.33 L 451,767.33 L 451,765.33 L 451,763.33 L 452,760.33 L 454,756.33 L 455,756.33 L 455,755.33 L 455,754.33 L 456,753.33 L 457,753.33 L 457,752.33 L 458,752.33 L 459,751.33 L 460,751.33 L 461,750.33 L 463,750.33 L 466,748.33 L 467,748.33 L 468,748.33 L 469,748.33 L 470,748.33 L 471,748.33 L 472,748.33 L 473,748.33 L 474,748.33 L 475,748.33 L 477,749.33 L 480,749.33" fill="none" stroke="#3794ff" stroke-width="2"></path></svg>