<svg id="svg" xmlns="http://www.w3.org/2000/svg" viewBox="43 180.3300018310547 643 130.99998474121094" height="130.99998474121094"><path d="M 53,223.33 L 56,222.33 L 65,221.33 L 78,220.33 L 91,220.33 L 105,219.33 L 116,218.33 L 128,218.33 L 140,218.33 L 160,218.33 L 172,218.33 L 186,218.33 L 200,218.33 L 213,218.33 L 224,217.33 L 237,216.33 L 255,214.33 L 271,214.33 L 286,214.33 L 304,214.33 L 320,214.33 L 347,214.33 L 363,214.33 L 377,214.33 L 384,214.33 L 390,215.33 L 396,216.33 L 404,216.33 L 411,217.33 L 418,217.33 L 425,217.33 L 431,217.33 L 440,217.33 L 451,218.33 L 459,218.33 L 468,218.33 L 477,218.33 L 489,218.33 L 500,218.33 L 511,218.33 L 521,218.33 L 532,218.33 L 544,218.33 L 557,218.33 L 567,218.33 L 581,218.33 L 585,218.33 L 587,218.33 L 588,218.33 L 589,218.33 L 590,218.33 L 593,218.33 L 598,218.33 L 604,218.33 L 608,218.33 L 611,218.33 L 613,218.33 L 616,218.33 L 618,218.33 L 621,218.33 L 626,218.33 L 632,218.33 L 638,218.33 L 644,218.33 L 649,218.33 L 651,219.33 L 652,219.33 L 653,219.33 L 654,219.33 L 655,219.33 L 659,219.33 L 662,219.33 L 663,219.33" fill="none" stroke="#3794ff" stroke-width="2"></path><path d="M 657,193.33 L 657,194.33 L 657,202.33 L 657,204.33 L 657,206.33 L 657,212.33 L 657,219.33 L 658,223.33 L 658,225.33 L 658,226.33" fill="none" stroke="#3794ff" stroke-width="2"></path><path d="M 661,201.33 L 662,201.33 L 663,201.33 L 664,201.33 L 668,205.33 L 671,208.33 L 673,211.33 L 674,213.33 L 675,214.33 L 676,215.33 L 676,216.33" fill="none" stroke="#3794ff" stroke-width="2"></path><path d="M 655,229.33 L 656,229.33 L 659,226.33 L 662,224.33 L 667,222.33 L 669,220.33 L 672,218.33 L 673,217.33 L 674,215.33 L 675,215.33 L 675,214.33" fill="none" stroke="#3794ff" stroke-width="2"></path><path d="M 62,190.33 L 61,191.33 L 60,194.33 L 60,196.33 L 59,206.33 L 56,215.33 L 55,224.33 L 55,230.33 L 55,237.33 L 55,242.33 L 55,246.33 L 55,247.33 L 55,248.33" fill="none" stroke="#3794ff" stroke-width="2"></path><path d="M 245,207.33 L 245,209.33 L 245,213.33 L 245,218.33 L 245,221.33 L 245,224.33 L 245,226.33 L 245,227.33 L 245,230.33 L 244,231.33 L 244,232.33" fill="none" stroke="#3794ff" stroke-width="2"></path><path d="M 230,251.33 L 232,251.33 L 235,251.33 L 240,251.33 L 248,251.33 L 253,251.33 L 257,251.33 L 259,251.33 L 262,251.33 L 263,251.33 L 264,252.33 L 265,252.33 L 264,252.33 L 264,251.33 L 263,250.33 L 262,250.33 L 260,249.33 L 259,248.33 L 257,247.33 L 256,246.33 L 255,245.33 L 254,244.33 L 253,243.33 L 252,243.33 L 252,242.33 L 252,241.33 L 252,240.33 L 251,239.33 L 250,239.33 L 247,241.33 L 246,243.33 L 245,245.33 L 244,248.33 L 244,249.33 L 242,252.33 L 241,254.33 L 241,255.33 L 239,257.33 L 238,259.33 L 238,260.33 L 238,261.33 L 237,262.33 L 237,263.33 L 237,264.33 L 237,265.33 L 237,266.33 L 238,266.33 L 240,266.33 L 243,265.33 L 245,265.33 L 248,264.33 L 251,264.33 L 252,264.33 L 255,264.33 L 256,264.33 L 258,263.33 L 260,263.33 L 261,262.33 L 262,262.33 L 263,262.33 L 263,261.33 L 262,261.33 L 261,259.33 L 260,258.33 L 257,255.33 L 254,252.33 L 252,251.33 L 250,249.33 L 249,248.33 L 248,247.33 L 246,246.33 L 246,245.33 L 245,245.33 L 245,244.33 L 244,244.33 L 243,244.33 L 242,244.33 L 241,244.33 L 239,244.33 L 238,246.33 L 238,247.33 L 237,249.33 L 236,250.33" fill="none" stroke="#3794ff" stroke-width="2"></path><path d="M 215,276.33 L 217,276.33 L 219,276.33 L 222,276.33 L 224,276.33 L 226,276.33 L 227,277.33 L 227,278.33 L 227,280.33 L 227,285.33 L 224,287.33 L 220,290.33 L 219,292.33 L 217,293.33" fill="none" stroke="#3794ff" stroke-width="2"></path><path d="M 214,284.33 L 215,284.33 L 219,284.33 L 224,284.33 L 228,284.33 L 234,284.33 L 237,284.33 L 238,284.33" fill="none" stroke="#3794ff" stroke-width="2"></path><path d="M 246,280.33 L 244,280.33 L 242,282.33 L 242,286.33 L 243,289.33 L 245,292.33 L 247,294.33 L 247,295.33 L 247,296.33 L 245,296.33 L 243,296.33 L 241,295.33 L 240,295.33 L 239,294.33 L 238,293.33 L 238,292.33" fill="none" stroke="#3794ff" stroke-width="2"></path><path d="M 269,283.33 L 265,283.33 L 261,285.33 L 259,287.33 L 258,288.33 L 258,290.33 L 261,290.33 L 263,290.33 L 265,290.33 L 266,289.33 L 266,288.33 L 266,287.33 L 265,287.33 L 264,286.33" fill="none" stroke="#3794ff" stroke-width="2"></path><path d="M 474,218.33 L 474,221.33 L 474,222.33 L 474,223.33 L 474,224.33 L 474,226.33 L 474,228.33 L 474,230.33 L 474,231.33" fill="none" stroke="#3794ff" stroke-width="2"></path><path d="M 479,211.33 L 479,210.33 L 478,210.33 L 478,212.33 L 478,214.33 L 478,215.33 L 478,217.33 L 478,218.33 L 478,219.33 L 478,220.33 L 478,221.33 L 478,222.33 L 478,223.33 L 479,224.33" fill="none" stroke="#3794ff" stroke-width="2"></path><path d="M 463,241.33 L 459,241.33 L 453,241.33 L 449,243.33 L 447,245.33 L 446,246.33 L 446,248.33 L 446,251.33 L 446,253.33 L 447,255.33 L 449,256.33 L 453,258.33 L 459,259.33 L 463,259.33 L 466,259.33 L 469,258.33 L 470,257.33 L 472,255.33 L 472,251.33 L 473,249.33 L 473,247.33 L 473,244.33 L 473,242.33 L 473,240.33 L 472,238.33 L 471,237.33 L 470,237.33 L 469,237.33 L 467,237.33 L 466,237.33 L 465,237.33" fill="none" stroke="#3794ff" stroke-width="2"></path><path d="M 440,277.33 L 440,279.33 L 440,285.33 L 439,292.33 L 438,296.33 L 437,299.33 L 437,300.33 L 437,301.33 L 438,301.33" fill="none" stroke="#3794ff" stroke-width="2"></path><path d="M 471,278.33 L 468,278.33 L 462,282.33 L 458,286.33 L 455,291.33 L 454,295.33 L 453,298.33 L 453,299.33 L 454,299.33 L 458,299.33 L 467,296.33 L 472,291.33 L 475,285.33 L 475,282.33" fill="none" stroke="#3794ff" stroke-width="2"></path><path d="M 502,282.33 L 502,281.33 L 501,281.33 L 497,284.33 L 492,288.33 L 488,292.33 L 486,294.33 L 486,295.33 L 486,296.33 L 487,296.33 L 491,294.33 L 496,290.33 L 497,287.33 L 497,285.33 L 497,283.33" fill="none" stroke="#3794ff" stroke-width="2"></path><path d="M 511,282.33 L 506,284.33 L 498,289.33 L 493,294.33 L 493,295.33 L 493,297.33 L 494,297.33 L 496,297.33 L 498,296.33 L 499,295.33 L 500,293.33 L 500,292.33 L 500,290.33 L 500,289.33 L 499,289.33" fill="none" stroke="#3794ff" stroke-width="2"></path><path d="M 299,219.33" fill="none" stroke="#3794ff" stroke-width="2"></path></svg>