<svg id="svg" xmlns="http://www.w3.org/2000/svg" viewBox="32 47.33000183105469 503 613" height="613"><path d="M 51,99.33 L 49,101.33 L 47,103.33 L 44,106.33 L 42,109.33 L 42,113.33 L 42,117.33 L 42,119.33 L 44,120.33 L 48,120.33 L 52,120.33 L 57,118.33 L 62,114.33 L 64,109.33 L 66,103.33 L 67,96.33 L 67,90.33 L 67,81.33 L 67,70.33 L 67,64.33 L 67,60.33 L 67,57.33 L 67,59.33 L 67,62.33 L 67,66.33 L 66,75.33 L 66,83.33 L 66,93.33 L 66,96.33 L 66,98.33 L 66,99.33 L 66,100.33 L 66,101.33 L 67,103.33" fill="none" stroke="#cca700" stroke-width="2"></path><path d="M 88,102.33 L 88,105.33 L 87,111.33 L 85,117.33 L 84,122.33 L 84,124.33 L 84,123.33" fill="none" stroke="#cca700" stroke-width="2"></path><path d="M 96,81.33 L 96,82.33 L 96,83.33 L 96,84.33 L 96,86.33" fill="none" stroke="#cca700" stroke-width="2"></path><path d="M 116,104.33 L 115,104.33 L 113,105.33 L 110,108.33 L 109,112.33 L 109,115.33 L 109,118.33 L 110,121.33 L 110,122.33 L 111,124.33 L 111,125.33 L 109,125.33 L 108,125.33 L 106,125.33 L 106,123.33 L 106,121.33 L 108,116.33" fill="none" stroke="#cca700" stroke-width="2"></path><path d="M 148,71.33 L 146,77.33 L 144,87.33 L 141,97.33 L 140,109.33 L 139,117.33 L 138,124.33 L 138,127.33 L 138,128.33 L 139,128.33 L 144,125.33" fill="none" stroke="#cca700" stroke-width="2"></path><path d="M 139,83.33 L 140,83.33 L 141,83.33 L 145,84.33 L 151,85.33 L 154,85.33 L 157,86.33 L 158,87.33" fill="none" stroke="#cca700" stroke-width="2"></path><path d="M 172,103.33 L 173,104.33 L 175,104.33 L 181,104.33 L 186,104.33 L 190,104.33 L 192,104.33" fill="none" stroke="#cca700" stroke-width="2"></path><path d="M 174,116.33 L 176,116.33 L 180,116.33 L 191,115.33 L 201,115.33 L 208,114.33 L 211,114.33" fill="none" stroke="#cca700" stroke-width="2"></path><path d="M 225,90.33 L 229,90.33 L 242,90.33 L 258,90.33 L 269,92.33 L 274,93.33 L 275,93.33 L 275,95.33 L 274,99.33 L 272,105.33 L 269,111.33 L 267,116.33 L 265,121.33 L 264,122.33 L 264,123.33 L 265,123.33 L 266,122.33 L 268,118.33 L 272,113.33 L 273,106.33 L 274,97.33 L 274,89.33 L 274,79.33 L 274,74.33 L 274,70.33 L 274,67.33 L 276,65.33 L 279,65.33 L 287,64.33 L 305,64.33 L 326,64.33 L 356,64.33 L 389,64.33 L 417,64.33 L 450,64.33 L 464,64.33 L 469,64.33 L 473,64.33 L 474,64.33" fill="none" stroke="#cca700" stroke-width="2"></path><path d="M 310,115.33 L 310,110.33 L 310,100.33 L 310,96.33 L 311,95.33 L 312,90.33 L 313,88.33 L 315,86.33 L 315,85.33 L 316,86.33 L 316,88.33 L 318,92.33 L 320,97.33 L 321,99.33 L 322,101.33 L 323,101.33 L 323,103.33 L 323,104.33 L 323,105.33 L 323,106.33 L 323,108.33 L 322,108.33 L 320,108.33 L 317,109.33 L 313,110.33 L 309,110.33" fill="none" stroke="#cca700" stroke-width="2"></path><path d="M 332,83.33 L 333,83.33 L 335,83.33 L 338,83.33 L 340,83.33 L 341,83.33 L 342,85.33 L 342,89.33 L 342,91.33 L 342,92.33 L 342,94.33 L 341,94.33 L 341,93.33 L 341,92.33 L 342,92.33 L 342,91.33 L 343,91.33 L 344,91.33 L 345,91.33 L 346,91.33 L 346,92.33" fill="none" stroke="#cca700" stroke-width="2"></path><path d="M 352,115.33 L 354,115.33 L 357,115.33 L 361,115.33 L 364,115.33 L 367,115.33 L 368,115.33 L 369,114.33 L 370,114.33" fill="none" stroke="#cca700" stroke-width="2"></path><path d="M 364,106.33 L 364,108.33 L 364,110.33 L 364,112.33 L 364,113.33 L 364,114.33 L 364,115.33" fill="none" stroke="#cca700" stroke-width="2"></path><path d="M 327,114.33 L 329,115.33 L 331,117.33 L 334,119.33 L 336,120.33 L 337,120.33" fill="none" stroke="#cca700" stroke-width="2"></path><path d="M 336,112.33 L 336,113.33 L 335,114.33 L 334,117.33 L 332,120.33 L 330,123.33 L 329,124.33 L 328,125.33" fill="none" stroke="#cca700" stroke-width="2"></path><path d="M 385,115.33 L 385,114.33 L 385,110.33 L 388,105.33 L 392,98.33 L 394,93.33 L 395,89.33 L 397,86.33 L 399,84.33 L 400,85.33 L 401,88.33 L 403,93.33 L 406,100.33 L 408,104.33 L 410,108.33 L 411,110.33 L 411,111.33 L 410,111.33 L 407,111.33 L 403,111.33 L 399,111.33 L 395,111.33 L 392,111.33 L 391,111.33 L 390,111.33 L 389,111.33 L 387,111.33 L 385,111.33" fill="none" stroke="#cca700" stroke-width="2"></path><path d="M 412,85.33 L 413,85.33 L 420,83.33 L 424,81.33 L 427,81.33 L 428,81.33 L 428,82.33 L 428,85.33 L 428,86.33 L 428,89.33 L 428,92.33 L 428,93.33 L 427,93.33 L 426,93.33 L 425,93.33 L 424,93.33 L 423,92.33 L 423,91.33 L 423,90.33 L 423,88.33 L 423,87.33 L 424,88.33 L 424,89.33 L 424,90.33 L 424,91.33 L 424,92.33" fill="none" stroke="#cca700" stroke-width="2"></path><path d="M 415,104.33 L 415,105.33 L 417,108.33 L 418,109.33 L 418,110.33 L 419,111.33 L 420,111.33 L 422,111.33 L 423,111.33 L 423,110.33 L 423,109.33 L 423,108.33 L 423,107.33 L 422,107.33 L 421,107.33 L 419,107.33 L 419,108.33 L 418,110.33 L 418,113.33 L 418,116.33 L 418,117.33 L 418,118.33 L 418,119.33 L 418,121.33 L 418,122.33 L 415,122.33 L 409,121.33 L 407,120.33 L 404,119.33 L 404,117.33" fill="none" stroke="#cca700" stroke-width="2"></path><path d="M 443,106.33 L 443,105.33 L 452,105.33 L 454,105.33 L 456,105.33 L 458,104.33" fill="none" stroke="#cca700" stroke-width="2"></path><path d="M 451,98.33 L 449,99.33 L 448,102.33 L 448,106.33 L 447,110.33 L 447,112.33 L 447,113.33 L 447,114.33" fill="none" stroke="#cca700" stroke-width="2"></path><path d="M 467,108.33 L 467,107.33 L 470,104.33 L 473,100.33 L 475,98.33 L 477,96.33 L 482,93.33 L 484,92.33 L 485,92.33 L 486,92.33 L 487,92.33 L 488,92.33 L 488,93.33 L 490,98.33 L 491,102.33 L 493,105.33 L 493,106.33 L 493,107.33 L 492,107.33 L 487,108.33 L 483,108.33 L 479,109.33 L 475,109.33 L 471,109.33 L 469,109.33" fill="none" stroke="#cca700" stroke-width="2"></path><path d="M 501,82.33 L 502,82.33 L 503,82.33 L 505,84.33 L 505,87.33 L 505,90.33 L 504,92.33 L 502,92.33 L 500,93.33 L 499,93.33 L 498,92.33 L 498,91.33 L 498,90.33 L 498,88.33 L 499,88.33 L 501,88.33 L 503,90.33 L 504,91.33 L 504,92.33 L 505,93.33 L 506,93.33 L 506,94.33 L 507,94.33 L 510,96.33" fill="none" stroke="#cca700" stroke-width="2"></path><path d="M 502,107.33 L 505,107.33 L 509,107.33 L 515,107.33 L 521,108.33 L 525,109.33 L 525,110.33 L 524,113.33 L 518,115.33 L 511,117.33 L 507,119.33 L 506,119.33 L 506,120.33 L 511,119.33 L 516,119.33 L 519,118.33 L 522,118.33 L 523,118.33" fill="none" stroke="#cca700" stroke-width="2"></path><path d="M 100,252.33 L 100,253.33 L 97,256.33 L 96,258.33 L 96,262.33 L 96,263.33 L 97,266.33 L 102,266.33 L 108,266.33 L 115,266.33 L 121,264.33 L 126,261.33 L 130,257.33 L 132,253.33 L 133,248.33 L 133,242.33 L 133,238.33 L 133,233.33 L 134,228.33 L 136,224.33 L 136,225.33 L 136,228.33 L 136,236.33 L 136,245.33 L 136,252.33 L 137,258.33 L 139,264.33 L 142,268.33 L 142,269.33 L 143,270.33 L 143,271.33 L 145,272.33 L 149,272.33" fill="none" stroke="#cca700" stroke-width="2"></path><path d="M 186,249.33 L 187,248.33 L 190,247.33 L 199,247.33 L 211,246.33 L 220,244.33 L 223,243.33" fill="none" stroke="#cca700" stroke-width="2"></path><path d="M 199,261.33 L 200,262.33 L 208,262.33 L 223,262.33 L 240,262.33 L 253,262.33 L 256,262.33" fill="none" stroke="#cca700" stroke-width="2"></path><path d="M 366,224.33 L 366,223.33 L 365,223.33 L 360,223.33 L 353,223.33 L 345,223.33 L 335,225.33 L 329,225.33 L 325,227.33 L 322,228.33 L 320,229.33 L 319,229.33 L 318,229.33 L 317,230.33 L 316,231.33 L 315,231.33 L 314,232.33 L 314,233.33 L 314,234.33 L 319,235.33 L 325,237.33 L 332,238.33 L 340,240.33 L 345,241.33 L 348,243.33 L 350,243.33 L 351,244.33 L 353,245.33 L 355,245.33 L 358,245.33 L 359,245.33 L 360,246.33 L 360,248.33 L 355,249.33 L 350,252.33 L 343,255.33 L 338,257.33 L 332,261.33 L 327,264.33 L 325,266.33 L 324,267.33 L 324,268.33 L 324,269.33 L 324,270.33 L 326,272.33 L 328,272.33 L 331,273.33 L 342,276.33 L 354,277.33 L 361,278.33 L 366,279.33 L 367,280.33 L 368,280.33" fill="none" stroke="#cca700" stroke-width="2"></path><path d="M 332,207.33 L 331,209.33 L 331,211.33 L 330,214.33 L 330,215.33 L 329,216.33 L 329,214.33 L 330,213.33 L 332,210.33 L 333,208.33 L 335,207.33 L 336,206.33 L 338,206.33 L 338,207.33 L 339,208.33 L 340,208.33 L 340,210.33 L 341,213.33 L 341,214.33 L 341,215.33 L 341,216.33 L 341,217.33 L 341,218.33" fill="none" stroke="#cca700" stroke-width="2"></path><path d="M 370,258.33 L 371,256.33 L 372,256.33 L 372,255.33 L 373,255.33 L 373,254.33 L 375,253.33 L 376,251.33 L 378,249.33 L 379,247.33 L 381,246.33 L 382,244.33 L 383,244.33 L 384,245.33 L 384,247.33 L 384,250.33 L 384,253.33 L 384,255.33 L 384,257.33 L 384,258.33 L 384,259.33 L 383,259.33 L 381,259.33 L 379,259.33 L 374,259.33 L 370,259.33 L 366,259.33 L 364,259.33 L 363,259.33 L 364,260.33" fill="none" stroke="#cca700" stroke-width="2"></path><path d="M 385,262.33 L 386,262.33 L 387,262.33 L 388,263.33 L 388,265.33 L 389,268.33 L 389,270.33 L 389,272.33 L 389,275.33 L 389,276.33" fill="none" stroke="#cca700" stroke-width="2"></path><path d="M 393,258.33 L 393,256.33 L 393,255.33 L 393,253.33 L 393,252.33" fill="none" stroke="#cca700" stroke-width="2"></path><path d="M 326,305.33 L 326,306.33 L 326,307.33 L 326,308.33 L 326,309.33 L 326,310.33 L 326,311.33 L 326,312.33 L 326,313.33" fill="none" stroke="#cca700" stroke-width="2"></path><path d="M 326,296.33 L 326,295.33 L 326,294.33 L 327,294.33 L 328,294.33" fill="none" stroke="#cca700" stroke-width="2"></path><path d="M 350,304.33 L 350,305.33 L 351,305.33 L 353,304.33 L 355,304.33 L 356,304.33" fill="none" stroke="#cca700" stroke-width="2"></path><path d="M 341,306.33 L 342,306.33 L 345,306.33 L 346,306.33 L 347,306.33 L 349,306.33 L 350,306.33 L 352,306.33 L 354,306.33" fill="none" stroke="#cca700" stroke-width="2"></path><path d="M 349,313.33 L 348,313.33 L 346,313.33 L 348,313.33 L 349,313.33 L 350,312.33 L 351,312.33 L 352,312.33 L 353,312.33 L 354,312.33 L 355,312.33 L 356,312.33 L 357,311.33" fill="none" stroke="#cca700" stroke-width="2"></path><path d="M 367,302.33 L 367,301.33 L 368,300.33 L 368,298.33 L 369,297.33 L 368,299.33 L 368,301.33 L 367,306.33 L 366,309.33 L 366,312.33 L 366,313.33 L 366,314.33 L 367,314.33 L 368,314.33 L 369,314.33" fill="none" stroke="#cca700" stroke-width="2"></path><path d="M 358,320.33 L 359,320.33 L 363,319.33 L 365,319.33 L 369,318.33 L 371,317.33 L 372,317.33 L 374,316.33 L 375,316.33" fill="none" stroke="#cca700" stroke-width="2"></path><path d="M 367,299.33 L 366,300.33 L 365,300.33 L 364,301.33 L 363,302.33 L 362,302.33 L 361,303.33 L 361,304.33" fill="none" stroke="#cca700" stroke-width="2"></path><path d="M 406,233.33 L 406,234.33 L 407,235.33 L 408,236.33 L 408,237.33 L 408,239.33 L 408,241.33 L 407,242.33 L 406,243.33 L 404,244.33 L 402,244.33 L 403,243.33 L 404,243.33 L 405,243.33 L 407,243.33 L 408,244.33 L 409,244.33 L 409,245.33 L 410,245.33 L 411,245.33 L 415,247.33 L 417,247.33 L 420,249.33 L 421,249.33" fill="none" stroke="#cca700" stroke-width="2"></path><path d="M 260,217.33 L 264,217.33 L 274,217.33 L 282,217.33 L 287,217.33 L 291,218.33 L 292,219.33 L 292,220.33 L 292,222.33 L 292,227.33 L 292,236.33 L 292,244.33 L 292,252.33 L 292,263.33 L 291,273.33 L 291,283.33 L 291,288.33 L 291,294.33 L 291,297.33 L 292,299.33 L 293,297.33 L 293,285.33 L 293,260.33 L 287,242.33 L 283,228.33 L 280,215.33 L 280,198.33 L 280,184.33 L 280,178.33 L 282,171.33 L 283,170.33 L 283,169.33 L 284,168.33 L 288,168.33 L 298,167.33 L 314,167.33 L 335,167.33 L 352,167.33 L 370,167.33 L 387,167.33 L 402,167.33 L 416,167.33 L 420,167.33 L 422,167.33 L 423,168.33 L 424,168.33" fill="none" stroke="#cca700" stroke-width="2"></path><path d="M 96,258.33 L 96,257.33 L 96,255.33 L 97,254.33 L 98,252.33 L 99,252.33 L 100,251.33 L 102,249.33 L 105,248.33 L 110,247.33 L 114,247.33 L 118,247.33 L 120,247.33 L 122,247.33 L 124,247.33 L 126,247.33 L 127,247.33 L 128,247.33 L 129,247.33 L 130,247.33 L 131,247.33" fill="none" stroke="#cca700" stroke-width="2"></path><path d="M 148,249.33 L 148,250.33 L 148,252.33 L 148,253.33 L 148,256.33 L 148,258.33 L 148,260.33 L 148,261.33 L 148,262.33 L 149,262.33 L 149,263.33 L 150,264.33" fill="none" stroke="#cca700" stroke-width="2"></path><path d="M 151,240.33 L 151,239.33 L 151,238.33 L 151,237.33 L 150,237.33 L 149,237.33 L 148,238.33" fill="none" stroke="#cca700" stroke-width="2"></path><path d="M 173,250.33 L 172,250.33 L 171,250.33 L 170,250.33 L 169,250.33 L 168,250.33 L 167,252.33 L 167,254.33 L 167,257.33 L 167,258.33 L 169,261.33 L 169,262.33 L 170,263.33 L 171,264.33 L 171,265.33 L 171,266.33 L 171,267.33 L 170,268.33 L 169,268.33 L 168,268.33 L 167,267.33 L 166,267.33 L 166,265.33 L 166,264.33 L 166,263.33" fill="none" stroke="#cca700" stroke-width="2"></path><path d="M 183,235.33 L 183,236.33 L 183,241.33 L 183,246.33 L 183,252.33 L 184,256.33 L 185,260.33 L 185,262.33 L 186,264.33 L 186,265.33" fill="none" stroke="#cca700" stroke-width="2"></path><path d="M 173,248.33 L 173,247.33 L 173,246.33 L 175,243.33 L 183,242.33 L 194,240.33 L 203,239.33 L 206,238.33 L 207,237.33" fill="none" stroke="#cca700" stroke-width="2"></path><text font-family="inherit" font-size="14" fill="#cca700" x="111" y="337.33">i = la dimension</text><text font-family="inherit" font-size="14" fill="#cca700" x="113" y="367.33"> ceci represente la sommes des dimmenssion au carree</text><path d="M 59,462.33 L 62,463.33 L 75,465.33 L 91,468.33 L 110,468.33 L 126,468.33 L 137,468.33 L 144,469.33 L 145,469.33" fill="none" stroke="#cca700" stroke-width="2"></path><path d="M 103,468.33 L 99,474.33 L 96,483.33 L 93,496.33 L 88,516.33 L 83,534.33 L 82,540.33 L 82,546.33 L 81,551.33 L 80,552.33 L 80,553.33 L 80,554.33" fill="none" stroke="#cca700" stroke-width="2"></path><path d="M 140,477.33 L 139,481.33 L 138,486.33 L 137,493.33 L 135,506.33 L 134,518.33 L 133,529.33 L 132,536.33 L 132,542.33 L 131,545.33 L 130,548.33 L 130,549.33 L 130,551.33 L 130,553.33 L 130,554.33 L 130,555.33 L 130,556.33 L 130,557.33 L 130,558.33" fill="none" stroke="#cca700" stroke-width="2"></path><path d="M 98,433.33 L 98,434.33 L 98,437.33 L 98,443.33 L 96,449.33 L 95,452.33 L 94,454.33 L 94,452.33 L 95,447.33 L 97,443.33 L 101,439.33 L 105,438.33 L 107,438.33 L 110,438.33 L 111,438.33 L 112,438.33 L 113,442.33 L 114,447.33 L 115,451.33 L 115,455.33 L 116,457.33 L 117,459.33" fill="none" stroke="#cca700" stroke-width="2"></path><path d="M 166,543.33 L 166,541.33 L 166,540.33 L 166,537.33 L 167,534.33 L 168,530.33 L 169,527.33 L 172,522.33 L 174,519.33 L 176,516.33 L 177,515.33 L 178,515.33 L 180,515.33 L 182,518.33 L 184,522.33 L 187,526.33 L 188,529.33 L 189,531.33 L 189,532.33 L 189,534.33 L 189,535.33 L 189,536.33 L 188,538.33 L 181,538.33 L 173,539.33 L 164,539.33 L 159,539.33 L 158,539.33 L 157,539.33" fill="none" stroke="#cca700" stroke-width="2"></path><path d="M 199,538.33 L 199,539.33 L 199,543.33 L 199,548.33 L 198,550.33 L 197,551.33 L 197,553.33 L 197,552.33 L 197,548.33 L 199,543.33" fill="none" stroke="#cca700" stroke-width="2"></path><path d="M 204,523.33" fill="none" stroke="#cca700" stroke-width="2"></path><path d="M 111,585.33 L 110,585.33 L 110,586.33 L 109,590.33 L 108,593.33 L 107,598.33 L 106,600.33 L 106,603.33 L 106,604.33 L 106,605.33" fill="none" stroke="#cca700" stroke-width="2"></path><path d="M 118,576.33 L 118,575.33 L 118,574.33 L 116,574.33 L 115,574.33 L 116,574.33 L 117,575.33 L 119,575.33 L 120,576.33 L 122,577.33" fill="none" stroke="#cca700" stroke-width="2"></path><path d="M 140,595.33 L 141,595.33 L 146,593.33 L 151,592.33 L 157,591.33 L 161,590.33 L 162,590.33" fill="none" stroke="#cca700" stroke-width="2"></path><path d="M 129,596.33 L 131,596.33 L 134,596.33 L 140,597.33 L 146,597.33 L 151,597.33 L 156,597.33 L 157,597.33" fill="none" stroke="#cca700" stroke-width="2"></path><path d="M 181,592.33 L 180,592.33 L 184,588.33 L 187,584.33 L 190,580.33 L 190,578.33 L 191,576.33 L 191,575.33 L 191,576.33 L 184,595.33 L 181,603.33 L 181,607.33 L 181,609.33 L 181,611.33 L 183,612.33 L 185,612.33 L 186,612.33" fill="none" stroke="#cca700" stroke-width="2"></path><path d="M 177,615.33 L 177,616.33 L 182,616.33 L 195,616.33 L 204,616.33 L 210,614.33 L 213,614.33 L 214,613.33" fill="none" stroke="#cca700" stroke-width="2"></path><text font-family="inherit" font-size="14" fill="#cca700" x="130" y="646.33">on multiplie les dimmenssion</text><path d="M 200,500.33 L 200,499.33 L 200,498.33 L 200,497.33 L 201,497.33 L 202,497.33 L 203,497.33 L 204,497.33 L 205,497.33 L 206,497.33 L 206,498.33 L 207,499.33 L 208,500.33 L 208,502.33 L 208,504.33 L 208,505.33 L 208,506.33 L 208,507.33 L 208,509.33 L 207,510.33 L 206,510.33 L 204,511.33 L 202,511.33 L 199,512.33 L 198,512.33 L 197,512.33 L 197,511.33 L 197,510.33 L 197,509.33 L 197,508.33 L 199,507.33 L 200,507.33 L 202,507.33 L 204,507.33 L 206,508.33 L 206,509.33 L 207,510.33 L 208,511.33 L 210,513.33 L 216,515.33 L 221,515.33" fill="none" stroke="#cca700" stroke-width="2"></path><path d="M 200,530.33 L 200,529.33 L 200,530.33 L 200,531.33 L 202,531.33 L 203,531.33" fill="none" stroke="#cca700" stroke-width="2"></path></svg>