<svg id="svg" xmlns="http://www.w3.org/2000/svg" viewBox="27 8.329999923706055 607 327.0000305175781" height="327.0000305175781"><rect x="55" y="81.33" fill="none" stroke="#3794ff" stroke-width="2" width="225" height="219" d="M 55 81.33 h 225 v 219 h -225 Z"></rect><text font-family="inherit" font-size="14" fill="#3794ff" x="37" y="167.33">100</text><text font-family="inherit" font-size="14" fill="#3794ff" x="109" y="321.33">100</text><circle cx="420" cy="100.33" fill="none" stroke="#3794ff" stroke-width="2" r="22.80350850198276" d="M 397.1964914980172 100.33 a 22.80350850198276 22.80350850198276 0 1 0 45.60701700396552 0a 22.80350850198276 22.80350850198276 0 1 0 -45.60701700396552 0 Z"></circle><path d="M 339,224.33 L 340,224.33 L 342,224.33 L 343,224.33 L 347,224.33 L 354,224.33 L 370,226.33 L 378,227.33 L 388,228.33 L 393,228.33 L 398,228.33 L 402,228.33 L 406,228.33 L 410,228.33 L 414,228.33 L 416,228.33 L 417,228.33 L 418,228.33 L 420,228.33 L 421,228.33 L 422,228.33 L 423,228.33 L 423,227.33 L 423,226.33 L 422,226.33 L 421,225.33 L 420,224.33 L 419,223.33 L 418,222.33 L 417,220.33 L 415,217.33 L 412,213.33 L 410,209.33 L 408,206.33 L 406,201.33 L 404,198.33 L 403,194.33 L 403,192.33 L 402,190.33 L 401,188.33 L 400,186.33 L 399,184.33 L 399,183.33 L 398,182.33 L 398,181.33 L 397,181.33 L 396,180.33 L 395,178.33 L 393,176.33 L 392,175.33 L 391,175.33 L 390,175.33 L 389,175.33 L 387,176.33 L 385,178.33 L 383,181.33 L 381,184.33 L 380,188.33 L 379,192.33 L 377,195.33 L 377,198.33 L 376,200.33 L 375,203.33 L 374,206.33 L 373,209.33 L 371,212.33 L 370,216.33 L 369,219.33 L 368,222.33 L 366,224.33 L 366,226.33 L 365,228.33 L 364,230.33 L 363,231.33 L 362,232.33 L 362,233.33 L 362,235.33 L 360,236.33 L 360,238.33 L 359,239.33 L 359,240.33 L 359,241.33 L 359,242.33 L 359,243.33 L 358,244.33 L 358,245.33 L 358,246.33 L 358,247.33 L 357,248.33 L 357,249.33 L 357,251.33 L 356,252.33 L 356,254.33 L 356,255.33 L 355,255.33 L 355,257.33 L 355,258.33 L 355,259.33 L 354,260.33 L 354,261.33 L 354,262.33 L 354,263.33 L 354,264.33 L 354,265.33 L 355,265.33 L 357,264.33 L 360,263.33 L 362,260.33 L 366,258.33 L 370,254.33 L 374,251.33 L 376,250.33 L 379,247.33 L 380,245.33 L 382,244.33 L 385,242.33 L 386,241.33 L 389,238.33 L 391,236.33 L 393,235.33 L 396,232.33 L 399,229.33 L 400,227.33 L 402,225.33 L 403,224.33 L 404,222.33 L 405,221.33 L 407,218.33 L 408,217.33 L 408,216.33 L 410,213.33 L 411,212.33 L 411,211.33 L 413,208.33 L 413,207.33 L 414,206.33 L 416,204.33 L 417,203.33 L 417,202.33 L 418,202.33 L 419,201.33 L 418,201.33 L 415,201.33 L 411,201.33 L 405,201.33 L 399,201.33 L 394,200.33 L 391,199.33 L 388,199.33 L 384,199.33 L 379,199.33 L 375,199.33 L 372,199.33 L 367,199.33 L 363,199.33 L 361,199.33 L 360,199.33 L 358,199.33 L 357,199.33 L 355,199.33 L 353,199.33 L 351,199.33 L 350,199.33 L 350,201.33 L 351,203.33 L 355,204.33 L 359,208.33 L 366,212.33 L 373,219.33 L 382,225.33 L 384,227.33 L 386,230.33 L 389,232.33 L 390,234.33 L 391,235.33 L 392,236.33 L 393,236.33 L 394,238.33 L 395,239.33 L 396,241.33 L 397,242.33 L 398,244.33 L 399,245.33 L 400,245.33 L 400,246.33 L 400,247.33 L 401,248.33 L 401,249.33 L 402,249.33 L 402,250.33 L 403,250.33 L 404,251.33 L 404,252.33 L 405,253.33 L 406,253.33 L 406,254.33 L 407,254.33 L 408,254.33 L 409,254.33 L 410,255.33 L 411,256.33 L 414,257.33 L 417,258.33 L 419,260.33 L 420,260.33 L 420,259.33 L 420,258.33 L 420,257.33 L 420,256.33 L 419,255.33 L 419,254.33 L 418,254.33 L 418,252.33 L 417,251.33 L 417,250.33 L 416,250.33 L 415,249.33 L 414,247.33 L 413,246.33 L 412,245.33 L 411,244.33 L 411,243.33 L 410,242.33 L 408,241.33 L 406,240.33 L 405,239.33 L 404,238.33 L 404,237.33 L 403,237.33 L 402,236.33 L 401,235.33 L 401,234.33 L 401,233.33 L 400,232.33 L 399,231.33 L 399,230.33 L 399,228.33" fill="none" stroke="#3794ff" stroke-width="2"></path><path d="M 450,237.33 L 450,236.33 L 450,235.33 L 450,232.33 L 450,228.33 L 453,218.33 L 454,212.33 L 455,205.33 L 458,198.33 L 459,192.33 L 461,188.33 L 461,187.33 L 463,190.33 L 464,193.33 L 466,201.33 L 468,207.33 L 469,213.33 L 469,218.33 L 469,223.33 L 469,225.33 L 469,226.33 L 469,227.33" fill="none" stroke="#3794ff" stroke-width="2"></path><path d="M 458,220.33 L 459,219.33 L 461,219.33 L 466,219.33 L 472,218.33 L 475,218.33 L 478,217.33 L 480,217.33" fill="none" stroke="#3794ff" stroke-width="2"></path><path d="M 487,216.33 L 488,216.33 L 491,216.33 L 496,216.33 L 502,216.33 L 508,216.33 L 512,216.33 L 513,216.33" fill="none" stroke="#3794ff" stroke-width="2"></path><path d="M 495,229.33 L 496,229.33 L 498,229.33 L 500,229.33 L 504,229.33 L 508,229.33 L 511,229.33 L 512,229.33" fill="none" stroke="#3794ff" stroke-width="2"></path><path d="M 532,219.33 L 535,217.33 L 542,216.33 L 550,216.33 L 557,216.33 L 558,217.33 L 559,218.33 L 559,221.33 L 559,224.33 L 559,227.33 L 555,232.33 L 552,236.33 L 549,239.33 L 547,240.33 L 546,241.33 L 546,242.33" fill="none" stroke="#3794ff" stroke-width="2"></path><path d="M 535,235.33 L 543,233.33 L 558,233.33 L 573,233.33 L 586,233.33 L 590,233.33 L 591,233.33" fill="none" stroke="#3794ff" stroke-width="2"></path><path d="M 595,223.33 L 595,222.33 L 594,222.33 L 591,224.33 L 591,226.33 L 591,231.33 L 591,235.33 L 592,238.33 L 594,240.33 L 594,241.33 L 594,242.33 L 594,243.33 L 594,244.33 L 592,245.33 L 590,245.33 L 587,245.33 L 583,245.33 L 580,245.33 L 579,243.33 L 578,242.33 L 578,240.33 L 578,239.33" fill="none" stroke="#3794ff" stroke-width="2"></path><path d="M 624,234.33 L 620,234.33 L 613,235.33 L 608,238.33 L 606,240.33 L 606,241.33 L 606,243.33 L 609,243.33 L 614,243.33 L 619,240.33 L 622,237.33 L 624,235.33 L 624,234.33 L 623,233.33" fill="none" stroke="#3794ff" stroke-width="2"></path><path d="M 449,116.33 L 449,114.33 L 449,108.33 L 449,104.33 L 449,99.33 L 449,94.33 L 450,91.33 L 452,87.33 L 454,86.33 L 455,85.33 L 456,83.33 L 457,86.33" fill="none" stroke="#3794ff" stroke-width="2"></path><path d="M 471,116.33 L 472,117.33 L 472,119.33 L 473,119.33 L 473,120.33" fill="none" stroke="#3794ff" stroke-width="2"></path><path d="M 461,88.33 L 460,88.33 L 460,89.33 L 460,96.33 L 462,100.33 L 465,105.33 L 466,109.33 L 469,113.33 L 470,115.33 L 470,117.33 L 471,118.33" fill="none" stroke="#3794ff" stroke-width="2"></path><path d="M 454,107.33 L 454,106.33 L 454,105.33 L 459,103.33 L 464,103.33 L 467,103.33 L 472,103.33 L 476,103.33 L 478,103.33" fill="none" stroke="#3794ff" stroke-width="2"></path><path d="M 516,94.33 L 516,97.33 L 516,104.33 L 515,113.33 L 513,120.33 L 512,126.33 L 512,128.33 L 512,129.33" fill="none" stroke="#3794ff" stroke-width="2"></path><path d="M 549,99.33 L 546,99.33 L 540,99.33 L 533,102.33 L 529,105.33 L 526,109.33 L 526,111.33 L 526,113.33 L 528,114.33 L 533,114.33 L 540,114.33 L 546,114.33 L 551,114.33 L 554,112.33 L 555,109.33 L 555,108.33" fill="none" stroke="#3794ff" stroke-width="2"></path><path d="M 572,111.33 L 572,110.33 L 570,110.33 L 569,111.33 L 568,112.33 L 568,113.33 L 568,114.33 L 568,115.33 L 568,116.33 L 569,116.33 L 570,116.33 L 575,115.33 L 578,112.33 L 579,110.33 L 579,108.33 L 579,107.33 L 579,106.33" fill="none" stroke="#3794ff" stroke-width="2"></path><path d="M 609,108.33 L 609,107.33 L 606,107.33 L 601,109.33 L 596,112.33 L 596,115.33 L 596,116.33 L 596,117.33 L 596,118.33 L 599,118.33 L 601,118.33 L 608,118.33 L 614,116.33 L 616,114.33 L 616,113.33 L 616,112.33" fill="none" stroke="#3794ff" stroke-width="2"></path><path d="M 309,106.33 L 308,106.33 L 307,103.33 L 307,96.33 L 307,89.33 L 307,79.33 L 307,72.33 L 307,64.33 L 307,58.33 L 307,52.33 L 307,48.33 L 308,47.33 L 309,45.33 L 310,46.33 L 312,47.33 L 317,53.33 L 322,59.33 L 325,63.33 L 328,66.33 L 329,68.33 L 330,68.33 L 330,69.33 L 330,71.33 L 330,73.33 L 331,76.33 L 332,77.33 L 333,79.33 L 334,81.33 L 334,83.33 L 335,83.33" fill="none" stroke="#3794ff" stroke-width="2"></path><path d="M 308,73.33 L 310,72.33 L 315,70.33 L 322,69.33 L 331,65.33 L 336,64.33 L 339,63.33" fill="none" stroke="#3794ff" stroke-width="2"></path><path d="M 368,45.33 L 368,49.33 L 372,69.33 L 376,69.33 L 383,68.33 L 390,66.33 L 397,63.33 L 402,60.33 L 405,57.33 L 406,56.33 L 406,55.33 L 407,54.33 L 407,53.33 L 407,51.33 L 405,51.33 L 402,51.33 L 394,51.33" fill="none" stroke="#3794ff" stroke-width="2"></path><path d="M 394,51.33 L 389,51.33 L 384,52.33 L 382,53.33 L 382,55.33 L 382,56.33 L 383,57.33 L 384,57.33 L 387,57.33 L 393,56.33 L 397,54.33 L 399,53.33 L 401,51.33" fill="none" stroke="#3794ff" stroke-width="2"></path><path d="M 417,40.33 L 416,40.33 L 415,41.33 L 414,44.33 L 414,48.33 L 414,49.33 L 415,52.33 L 421,53.33 L 426,53.33 L 430,53.33 L 433,53.33 L 434,53.33 L 434,52.33 L 434,51.33 L 434,50.33 L 433,49.33" fill="none" stroke="#3794ff" stroke-width="2"></path><path d="M 443,18.33 L 444,18.33 L 445,18.33 L 446,19.33 L 447,23.33 L 449,28.33 L 452,33.33 L 452,36.33 L 454,39.33 L 454,43.33 L 454,46.33 L 455,48.33 L 456,51.33" fill="none" stroke="#3794ff" stroke-width="2"></path><path d="M 431,41.33 L 431,40.33 L 429,39.33 L 429,38.33 L 428,38.33 L 425,38.33 L 424,38.33 L 422,38.33 L 421,38.33 L 419,39.33 L 418,39.33 L 416,40.33" fill="none" stroke="#3794ff" stroke-width="2"></path><path d="M 402,45.33 L 400,45.33 L 398,45.33 L 397,46.33 L 396,48.33 L 394,51.33 L 394,54.33 L 392,57.33 L 392,59.33 L 392,60.33 L 392,61.33 L 392,63.33 L 394,65.33 L 397,65.33 L 401,65.33 L 403,65.33 L 406,65.33 L 407,64.33 L 408,63.33 L 409,61.33 L 409,59.33 L 409,57.33 L 408,55.33 L 406,52.33 L 402,49.33 L 401,48.33 L 397,47.33 L 394,46.33" fill="none" stroke="#3794ff" stroke-width="2"></path><path d="M 338,62.33 L 340,62.33 L 345,61.33 L 351,60.33 L 355,60.33 L 357,59.33" fill="none" stroke="#3794ff" stroke-width="2"></path><path d="M 350,68.33 L 351,68.33 L 354,68.33 L 358,66.33 L 362,66.33 L 364,65.33 L 366,64.33" fill="none" stroke="#3794ff" stroke-width="2"></path><path d="M 133,147.33 L 133,144.33 L 136,140.33 L 141,135.33 L 146,133.33 L 154,130.33 L 164,129.33 L 179,129.33 L 193,129.33 L 206,132.33 L 216,137.33 L 217,139.33 L 217,142.33 L 216,147.33 L 212,151.33 L 208,155.33 L 204,158.33 L 202,159.33 L 200,161.33 L 197,162.33 L 195,164.33 L 193,165.33 L 191,166.33 L 190,168.33 L 190,169.33 L 190,170.33 L 190,173.33 L 190,174.33 L 190,175.33 L 190,178.33 L 190,180.33 L 191,184.33 L 192,191.33 L 196,202.33 L 198,207.33" fill="none" stroke="#3794ff" stroke-width="2"></path><path d="M 200,230.33" fill="none" stroke="#3794ff" stroke-width="2"></path><path d="M 182,210.33 L 184,210.33 L 187,210.33 L 189,211.33 L 191,212.33 L 191,215.33 L 191,217.33 L 191,218.33 L 191,219.33 L 194,219.33 L 198,219.33 L 200,218.33 L 198,218.33 L 197,218.33" fill="none" stroke="#3794ff" stroke-width="2"></path></svg>