<svg id="svg" xmlns="http://www.w3.org/2000/svg" viewBox="32 11.329999923706055 649 578" height="578"><path d="M 120,90.33 L 120,92.33 L 122,95.33 L 126,111.33 L 128,132.33 L 129,168.33 L 129,222.33 L 129,282.33 L 131,348.33 L 131,397.33 L 135,438.33 L 136,471.33 L 136,499.33 L 136,519.33 L 136,527.33 L 136,536.33 L 136,542.33 L 136,543.33 L 136,544.33 L 136,545.33 L 136,546.33 L 136,547.33 L 137,548.33 L 137,552.33 L 138,556.33 L 142,562.33 L 142,563.33 L 144,566.33 L 146,568.33 L 148,571.33 L 150,573.33 L 153,575.33 L 156,576.33 L 157,577.33 L 159,577.33 L 160,577.33 L 163,577.33 L 169,577.33 L 179,577.33 L 196,577.33 L 227,577.33 L 279,577.33 L 325,577.33 L 377,577.33 L 426,577.33 L 475,577.33 L 516,577.33 L 547,577.33 L 577,579.33 L 588,579.33 L 594,579.33 L 598,579.33" fill="none" stroke="#3794ff" stroke-width="2"></path><path d="M 71,284.33 L 71,283.33 L 71,280.33 L 72,276.33 L 73,271.33 L 74,266.33 L 75,260.33 L 75,256.33 L 76,253.33 L 77,250.33 L 77,249.33" fill="none" stroke="#3794ff" stroke-width="2"></path><path d="M 78,251.33 L 79,251.33 L 82,252.33 L 86,257.33 L 90,263.33 L 93,267.33 L 96,272.33 L 97,274.33 L 99,277.33 L 100,279.33 L 101,280.33 L 98,280.33 L 95,280.33 L 91,278.33 L 76,274.33 L 66,272.33 L 56,269.33 L 50,268.33 L 45,266.33 L 43,266.33 L 42,266.33 L 44,266.33 L 47,266.33 L 53,266.33 L 61,266.33 L 68,266.33 L 73,266.33 L 77,265.33 L 79,264.33 L 81,264.33 L 84,262.33 L 88,262.33 L 90,260.33 L 92,259.33 L 95,257.33 L 96,256.33 L 99,254.33 L 100,253.33 L 101,252.33 L 101,251.33 L 100,254.33 L 99,257.33 L 98,261.33 L 95,269.33 L 94,275.33 L 94,278.33 L 94,279.33 L 93,279.33 L 92,279.33 L 89,276.33 L 84,270.33 L 77,264.33 L 69,259.33 L 63,256.33 L 60,255.33 L 59,254.33" fill="none" stroke="#3794ff" stroke-width="2"></path><path d="M 70,341.33 L 70,340.33 L 72,338.33 L 75,332.33 L 79,327.33 L 85,321.33 L 89,316.33 L 90,314.33 L 90,313.33 L 92,316.33 L 93,322.33 L 95,330.33 L 95,332.33 L 95,333.33 L 95,334.33 L 96,335.33 L 93,335.33 L 87,335.33 L 79,335.33 L 70,335.33 L 65,334.33 L 63,334.33 L 65,334.33" fill="none" stroke="#3794ff" stroke-width="2"></path><path d="M 104,430.33 L 96,436.33 L 87,441.33 L 77,449.33 L 68,457.33 L 64,465.33 L 63,471.33 L 62,475.33 L 62,479.33 L 62,482.33 L 64,482.33 L 66,482.33 L 71,480.33 L 82,476.33 L 90,472.33 L 95,469.33 L 98,466.33 L 98,463.33 L 98,459.33 L 97,455.33 L 95,452.33 L 90,447.33 L 90,446.33" fill="none" stroke="#3794ff" stroke-width="2"></path><path d="M 385,45.33 L 385,47.33 L 386,50.33 L 386,52.33 L 386,56.33 L 386,59.33 L 386,61.33 L 386,63.33 L 386,64.33 L 386,65.33" fill="none" stroke="#3794ff" stroke-width="2"></path><path d="M 376,37.33 L 374,40.33 L 371,47.33 L 371,53.33 L 371,61.33 L 371,67.33 L 374,74.33 L 377,76.33 L 380,78.33 L 384,78.33 L 389,78.33 L 395,78.33 L 401,77.33 L 404,73.33 L 404,68.33 L 404,61.33 L 402,58.33 L 398,53.33 L 394,50.33 L 392,49.33" fill="none" stroke="#3794ff" stroke-width="2"></path><path d="M 441,58.33 L 440,59.33 L 437,60.33 L 432,63.33 L 431,64.33 L 431,66.33 L 431,67.33 L 433,67.33 L 439,64.33 L 446,60.33 L 451,54.33 L 456,46.33 L 459,33.33 L 459,27.33 L 459,23.33 L 459,22.33 L 459,21.33 L 457,22.33 L 457,24.33 L 456,30.33 L 456,38.33 L 456,44.33 L 456,51.33 L 458,55.33 L 459,57.33 L 459,58.33 L 460,60.33 L 460,61.33 L 461,62.33 L 462,63.33" fill="none" stroke="#3794ff" stroke-width="2"></path><path d="M 366,106.33 L 366,107.33 L 366,111.33 L 366,114.33 L 366,115.33" fill="none" stroke="#3794ff" stroke-width="2"></path><path d="M 385,107.33 L 386,107.33 L 389,107.33 L 391,109.33 L 392,110.33 L 393,111.33 L 393,113.33 L 393,116.33 L 393,120.33 L 386,124.33 L 381,125.33 L 375,126.33 L 371,126.33 L 370,126.33 L 370,123.33 L 371,120.33 L 377,118.33 L 384,118.33 L 390,118.33 L 394,119.33 L 396,121.33 L 397,125.33 L 398,129.33 L 398,130.33 L 398,131.33 L 399,131.33 L 400,128.33" fill="none" stroke="#3794ff" stroke-width="2"></path><path d="M 370,95.33 L 362,106.33 L 359,118.33 L 359,130.33 L 362,139.33 L 366,145.33 L 373,149.33 L 383,149.33 L 393,149.33 L 407,141.33 L 410,138.33 L 413,135.33 L 414,130.33 L 414,125.33 L 414,122.33 L 413,119.33 L 412,117.33 L 411,116.33" fill="none" stroke="#3794ff" stroke-width="2"></path><path d="M 444,113.33 L 444,114.33 L 444,117.33 L 444,119.33 L 444,121.33 L 444,123.33 L 443,126.33 L 443,128.33 L 443,130.33 L 443,131.33 L 443,133.33 L 443,134.33 L 443,136.33 L 443,137.33 L 443,138.33" fill="none" stroke="#3794ff" stroke-width="2"></path><path d="M 449,126.33 L 451,125.33 L 453,124.33 L 456,121.33 L 457,121.33 L 458,119.33 L 458,118.33 L 458,117.33 L 458,116.33 L 458,115.33" fill="none" stroke="#3794ff" stroke-width="2"></path><path d="M 453,124.33 L 453,126.33 L 454,128.33 L 454,130.33 L 454,131.33 L 454,133.33 L 454,135.33 L 454,137.33 L 454,138.33 L 454,139.33 L 453,139.33 L 453,140.33" fill="none" stroke="#3794ff" stroke-width="2"></path><path d="M 461,129.33 L 462,128.33 L 463,128.33 L 465,128.33 L 468,128.33 L 472,127.33 L 476,126.33" fill="none" stroke="#3794ff" stroke-width="2"></path><path d="M 463,137.33 L 468,137.33 L 473,137.33 L 479,136.33 L 482,136.33 L 485,136.33" fill="none" stroke="#3794ff" stroke-width="2"></path><path d="M 492,118.33 L 492,119.33 L 491,124.33 L 491,126.33 L 491,128.33 L 491,129.33 L 491,130.33 L 495,130.33 L 497,130.33 L 502,130.33 L 503,129.33 L 505,128.33 L 505,127.33" fill="none" stroke="#3794ff" stroke-width="2"></path><path d="M 509,117.33 L 510,117.33 L 511,120.33 L 511,124.33 L 511,127.33 L 511,130.33 L 511,132.33 L 510,136.33 L 510,139.33 L 510,140.33 L 508,142.33 L 507,144.33" fill="none" stroke="#3794ff" stroke-width="2"></path><path d="M 378,174.33 L 380,174.33 L 384,176.33 L 389,179.33 L 393,180.33 L 394,181.33 L 395,182.33 L 392,186.33 L 385,189.33 L 379,192.33 L 377,193.33 L 377,194.33 L 377,195.33 L 377,196.33 L 378,198.33 L 381,200.33 L 382,201.33 L 382,204.33 L 382,206.33 L 382,207.33 L 382,209.33 L 381,210.33 L 380,212.33 L 379,212.33" fill="none" stroke="#3794ff" stroke-width="2"></path><path d="M 380,170.33 L 378,170.33 L 371,174.33 L 369,178.33 L 369,185.33 L 369,194.33 L 369,199.33 L 369,204.33 L 371,208.33 L 372,209.33 L 374,209.33 L 388,209.33 L 396,209.33 L 399,206.33 L 402,203.33 L 404,198.33 L 405,196.33 L 405,192.33 L 404,190.33 L 403,188.33 L 402,187.33" fill="none" stroke="#3794ff" stroke-width="2"></path><path d="M 528,113.33 L 528,111.33 L 528,110.33 L 528,108.33 L 528,105.33 L 529,101.33 L 531,96.33 L 533,93.33 L 534,92.33 L 535,90.33 L 536,88.33 L 536,87.33 L 537,86.33 L 538,86.33" fill="none" stroke="#3794ff" stroke-width="2"></path><path d="M 548,73.33 L 549,73.33 L 550,73.33 L 552,74.33 L 554,75.33 L 555,77.33 L 556,78.33 L 556,79.33 L 556,81.33 L 557,83.33 L 557,84.33" fill="none" stroke="#3794ff" stroke-width="2"></path><path d="M 585,63.33 L 582,63.33 L 580,63.33 L 579,64.33 L 578,66.33 L 578,68.33 L 578,70.33 L 578,71.33 L 578,73.33 L 578,74.33 L 580,74.33 L 582,74.33 L 584,74.33 L 587,74.33 L 589,73.33 L 590,72.33 L 591,69.33 L 592,67.33 L 592,68.33 L 592,72.33 L 592,79.33 L 592,81.33 L 592,82.33 L 592,83.33" fill="none" stroke="#3794ff" stroke-width="2"></path><path d="M 610,95.33 L 610,93.33 L 610,90.33 L 610,85.33 L 611,81.33 L 611,76.33 L 613,74.33 L 614,72.33 L 615,70.33 L 615,69.33 L 616,69.33 L 617,72.33 L 618,74.33 L 620,79.33 L 622,84.33 L 623,86.33 L 623,87.33 L 623,88.33 L 623,89.33 L 623,90.33 L 623,91.33 L 622,91.33 L 621,91.33 L 619,91.33 L 617,92.33 L 612,93.33 L 609,93.33" fill="none" stroke="#3794ff" stroke-width="2"></path><path d="M 536,133.33 L 537,133.33 L 540,136.33 L 544,140.33 L 549,145.33 L 551,149.33 L 553,150.33 L 554,153.33 L 555,155.33 L 556,155.33 L 556,156.33 L 556,157.33" fill="none" stroke="#3794ff" stroke-width="2"></path><path d="M 552,171.33 L 553,171.33 L 554,172.33 L 557,174.33 L 562,176.33 L 569,177.33 L 574,177.33 L 577,176.33 L 578,175.33 L 579,174.33 L 579,172.33 L 579,169.33 L 578,166.33 L 576,164.33 L 575,162.33 L 572,160.33 L 572,159.33 L 570,158.33" fill="none" stroke="#3794ff" stroke-width="2"></path><path d="M 618,167.33 L 616,167.33 L 615,167.33 L 615,168.33 L 614,169.33 L 613,171.33 L 613,172.33 L 613,174.33 L 612,177.33 L 612,178.33 L 612,180.33 L 612,181.33 L 612,182.33 L 614,182.33 L 617,182.33 L 618,182.33 L 620,181.33 L 621,180.33 L 621,179.33 L 623,177.33 L 623,176.33 L 623,174.33 L 624,172.33 L 624,171.33 L 624,169.33 L 624,168.33 L 624,167.33 L 623,166.33 L 622,166.33 L 621,165.33 L 620,165.33 L 619,165.33 L 618,166.33" fill="none" stroke="#3794ff" stroke-width="2"></path><path d="M 594,166.33 L 596,168.33 L 600,172.33 L 602,175.33 L 602,178.33 L 603,179.33 L 603,181.33 L 603,183.33 L 599,185.33 L 596,186.33 L 592,187.33 L 589,187.33 L 588,187.33 L 588,185.33 L 589,184.33 L 590,183.33 L 591,183.33 L 592,183.33 L 594,183.33 L 595,185.33 L 596,185.33 L 597,186.33 L 597,188.33" fill="none" stroke="#3794ff" stroke-width="2"></path><path d="M 443,195.33 L 445,195.33 L 450,192.33 L 453,192.33 L 454,191.33 L 455,190.33 L 456,189.33 L 456,188.33 L 456,187.33 L 457,186.33 L 457,189.33 L 457,192.33 L 457,195.33 L 457,196.33 L 457,199.33 L 457,200.33 L 458,201.33 L 458,203.33 L 460,205.33 L 460,207.33 L 462,208.33 L 462,210.33 L 463,211.33 L 463,213.33 L 463,214.33 L 463,216.33 L 463,217.33 L 463,219.33 L 463,220.33 L 459,222.33 L 456,222.33 L 452,222.33 L 450,222.33 L 449,222.33 L 448,221.33 L 447,219.33 L 446,217.33 L 446,216.33 L 446,212.33 L 446,211.33 L 447,208.33" fill="none" stroke="#3794ff" stroke-width="2"></path><path d="M 452,206.33 L 453,207.33 L 456,208.33 L 459,208.33 L 461,208.33 L 464,208.33 L 468,208.33 L 469,208.33 L 472,207.33 L 472,206.33 L 473,206.33 L 474,206.33" fill="none" stroke="#3794ff" stroke-width="2"></path><path d="M 486,208.33 L 487,208.33 L 488,208.33 L 491,208.33 L 495,209.33 L 502,211.33 L 509,211.33 L 514,212.33 L 517,213.33 L 520,213.33 L 522,213.33 L 525,213.33 L 530,213.33 L 534,213.33 L 540,213.33 L 547,213.33 L 554,214.33 L 562,214.33 L 565,214.33 L 570,214.33 L 575,214.33 L 581,214.33 L 587,214.33 L 593,214.33 L 598,214.33 L 605,214.33 L 611,214.33 L 616,214.33 L 620,212.33 L 626,211.33 L 629,210.33 L 631,210.33 L 634,207.33 L 636,207.33 L 639,205.33 L 642,203.33 L 644,201.33 L 647,199.33 L 651,195.33 L 655,192.33 L 657,189.33 L 661,184.33 L 663,180.33 L 665,176.33 L 666,172.33 L 667,168.33 L 668,164.33 L 669,161.33 L 670,157.33 L 670,155.33 L 671,151.33 L 671,150.33 L 671,147.33 L 671,144.33 L 671,140.33 L 671,138.33 L 671,136.33 L 670,133.33 L 669,131.33 L 668,127.33 L 667,126.33 L 666,123.33 L 664,122.33 L 662,120.33 L 661,118.33 L 658,115.33 L 656,114.33 L 654,112.33 L 652,111.33 L 651,110.33 L 650,110.33 L 650,109.33 L 649,108.33 L 649,107.33" fill="none" stroke="#3794ff" stroke-width="2"></path><path d="M 629,112.33 L 629,110.33 L 630,109.33 L 631,108.33 L 632,106.33 L 633,105.33 L 633,104.33 L 634,102.33 L 634,101.33 L 635,100.33 L 635,98.33 L 636,97.33 L 637,97.33 L 637,96.33 L 638,96.33 L 640,96.33 L 644,96.33 L 649,98.33 L 653,99.33 L 654,99.33 L 655,100.33 L 655,101.33 L 657,103.33" fill="none" stroke="#3794ff" stroke-width="2"></path></svg>