<svg id="svg" xmlns="http://www.w3.org/2000/svg" viewBox="43 84.33000183105469 643 226.99998474121094" height="226.99998474121094"><path d="M 53,223.33 L 56,222.33 L 65,221.33 L 78,220.33 L 91,220.33 L 105,219.33 L 116,218.33 L 128,218.33 L 140,218.33 L 160,218.33 L 172,218.33 L 186,218.33 L 200,218.33 L 213,218.33 L 224,217.33 L 237,216.33 L 255,214.33 L 271,214.33 L 286,214.33 L 304,214.33 L 320,214.33 L 347,214.33 L 363,214.33 L 377,214.33 L 384,214.33 L 390,215.33 L 396,216.33 L 404,216.33 L 411,217.33 L 418,217.33 L 425,217.33 L 431,217.33 L 440,217.33 L 451,218.33 L 459,218.33 L 468,218.33 L 477,218.33 L 489,218.33 L 500,218.33 L 511,218.33 L 521,218.33 L 532,218.33 L 544,218.33 L 557,218.33 L 567,218.33 L 581,218.33 L 585,218.33 L 587,218.33 L 588,218.33 L 589,218.33 L 590,218.33 L 593,218.33 L 598,218.33 L 604,218.33 L 608,218.33 L 611,218.33 L 613,218.33 L 616,218.33 L 618,218.33 L 621,218.33 L 626,218.33 L 632,218.33 L 638,218.33 L 644,218.33 L 649,218.33 L 651,219.33 L 652,219.33 L 653,219.33 L 654,219.33 L 655,219.33 L 659,219.33 L 662,219.33 L 663,219.33" fill="none" stroke="#3794ff" stroke-width="2"></path><path d="M 657,193.33 L 657,194.33 L 657,202.33 L 657,204.33 L 657,206.33 L 657,212.33 L 657,219.33 L 658,223.33 L 658,225.33 L 658,226.33" fill="none" stroke="#3794ff" stroke-width="2"></path><path d="M 661,201.33 L 662,201.33 L 663,201.33 L 664,201.33 L 668,205.33 L 671,208.33 L 673,211.33 L 674,213.33 L 675,214.33 L 676,215.33 L 676,216.33" fill="none" stroke="#3794ff" stroke-width="2"></path><path d="M 655,229.33 L 656,229.33 L 659,226.33 L 662,224.33 L 667,222.33 L 669,220.33 L 672,218.33 L 673,217.33 L 674,215.33 L 675,215.33 L 675,214.33" fill="none" stroke="#3794ff" stroke-width="2"></path><path d="M 62,190.33 L 61,191.33 L 60,194.33 L 60,196.33 L 59,206.33 L 56,215.33 L 55,224.33 L 55,230.33 L 55,237.33 L 55,242.33 L 55,246.33 L 55,247.33 L 55,248.33" fill="none" stroke="#3794ff" stroke-width="2"></path><path d="M 245,207.33 L 245,209.33 L 245,213.33 L 245,218.33 L 245,221.33 L 245,224.33 L 245,226.33 L 245,227.33 L 245,230.33 L 244,231.33 L 244,232.33" fill="none" stroke="#3794ff" stroke-width="2"></path><path d="M 230,251.33 L 232,251.33 L 235,251.33 L 240,251.33 L 248,251.33 L 253,251.33 L 257,251.33 L 259,251.33 L 262,251.33 L 263,251.33 L 264,252.33 L 265,252.33 L 264,252.33 L 264,251.33 L 263,250.33 L 262,250.33 L 260,249.33 L 259,248.33 L 257,247.33 L 256,246.33 L 255,245.33 L 254,244.33 L 253,243.33 L 252,243.33 L 252,242.33 L 252,241.33 L 252,240.33 L 251,239.33 L 250,239.33 L 247,241.33 L 246,243.33 L 245,245.33 L 244,248.33 L 244,249.33 L 242,252.33 L 241,254.33 L 241,255.33 L 239,257.33 L 238,259.33 L 238,260.33 L 238,261.33 L 237,262.33 L 237,263.33 L 237,264.33 L 237,265.33 L 237,266.33 L 238,266.33 L 240,266.33 L 243,265.33 L 245,265.33 L 248,264.33 L 251,264.33 L 252,264.33 L 255,264.33 L 256,264.33 L 258,263.33 L 260,263.33 L 261,262.33 L 262,262.33 L 263,262.33 L 263,261.33 L 262,261.33 L 261,259.33 L 260,258.33 L 257,255.33 L 254,252.33 L 252,251.33 L 250,249.33 L 249,248.33 L 248,247.33 L 246,246.33 L 246,245.33 L 245,245.33 L 245,244.33 L 244,244.33 L 243,244.33 L 242,244.33 L 241,244.33 L 239,244.33 L 238,246.33 L 238,247.33 L 237,249.33 L 236,250.33" fill="none" stroke="#3794ff" stroke-width="2"></path><path d="M 215,276.33 L 217,276.33 L 219,276.33 L 222,276.33 L 224,276.33 L 226,276.33 L 227,277.33 L 227,278.33 L 227,280.33 L 227,285.33 L 224,287.33 L 220,290.33 L 219,292.33 L 217,293.33" fill="none" stroke="#3794ff" stroke-width="2"></path><path d="M 214,284.33 L 215,284.33 L 219,284.33 L 224,284.33 L 228,284.33 L 234,284.33 L 237,284.33 L 238,284.33" fill="none" stroke="#3794ff" stroke-width="2"></path><path d="M 246,280.33 L 244,280.33 L 242,282.33 L 242,286.33 L 243,289.33 L 245,292.33 L 247,294.33 L 247,295.33 L 247,296.33 L 245,296.33 L 243,296.33 L 241,295.33 L 240,295.33 L 239,294.33 L 238,293.33 L 238,292.33" fill="none" stroke="#3794ff" stroke-width="2"></path><path d="M 269,283.33 L 265,283.33 L 261,285.33 L 259,287.33 L 258,288.33 L 258,290.33 L 261,290.33 L 263,290.33 L 265,290.33 L 266,289.33 L 266,288.33 L 266,287.33 L 265,287.33 L 264,286.33" fill="none" stroke="#3794ff" stroke-width="2"></path><path d="M 474,218.33 L 474,221.33 L 474,222.33 L 474,223.33 L 474,224.33 L 474,226.33 L 474,228.33 L 474,230.33 L 474,231.33" fill="none" stroke="#3794ff" stroke-width="2"></path><path d="M 479,211.33 L 479,210.33 L 478,210.33 L 478,212.33 L 478,214.33 L 478,215.33 L 478,217.33 L 478,218.33 L 478,219.33 L 478,220.33 L 478,221.33 L 478,222.33 L 478,223.33 L 479,224.33" fill="none" stroke="#3794ff" stroke-width="2"></path><path d="M 463,241.33 L 459,241.33 L 453,241.33 L 449,243.33 L 447,245.33 L 446,246.33 L 446,248.33 L 446,251.33 L 446,253.33 L 447,255.33 L 449,256.33 L 453,258.33 L 459,259.33 L 463,259.33 L 466,259.33 L 469,258.33 L 470,257.33 L 472,255.33 L 472,251.33 L 473,249.33 L 473,247.33 L 473,244.33 L 473,242.33 L 473,240.33 L 472,238.33 L 471,237.33 L 470,237.33 L 469,237.33 L 467,237.33 L 466,237.33 L 465,237.33" fill="none" stroke="#3794ff" stroke-width="2"></path><path d="M 440,277.33 L 440,279.33 L 440,285.33 L 439,292.33 L 438,296.33 L 437,299.33 L 437,300.33 L 437,301.33 L 438,301.33" fill="none" stroke="#3794ff" stroke-width="2"></path><path d="M 471,278.33 L 468,278.33 L 462,282.33 L 458,286.33 L 455,291.33 L 454,295.33 L 453,298.33 L 453,299.33 L 454,299.33 L 458,299.33 L 467,296.33 L 472,291.33 L 475,285.33 L 475,282.33" fill="none" stroke="#3794ff" stroke-width="2"></path><path d="M 502,282.33 L 502,281.33 L 501,281.33 L 497,284.33 L 492,288.33 L 488,292.33 L 486,294.33 L 486,295.33 L 486,296.33 L 487,296.33 L 491,294.33 L 496,290.33 L 497,287.33 L 497,285.33 L 497,283.33" fill="none" stroke="#3794ff" stroke-width="2"></path><path d="M 511,282.33 L 506,284.33 L 498,289.33 L 493,294.33 L 493,295.33 L 493,297.33 L 494,297.33 L 496,297.33 L 498,296.33 L 499,295.33 L 500,293.33 L 500,292.33 L 500,290.33 L 500,289.33 L 499,289.33" fill="none" stroke="#3794ff" stroke-width="2"></path><path d="M 299,219.33" fill="none" stroke="#3794ff" stroke-width="2"></path><path d="M 162,213.33 L 163,213.33 L 167,213.33 L 169,213.33 L 170,213.33 L 171,213.33 L 172,213.33 L 175,213.33 L 178,213.33 L 182,213.33 L 183,213.33 L 184,213.33 L 185,213.33 L 187,213.33 L 188,212.33 L 191,212.33 L 193,211.33 L 194,210.33 L 195,210.33 L 197,208.33 L 199,206.33 L 201,205.33 L 202,203.33 L 203,201.33 L 204,199.33 L 204,197.33 L 204,196.33 L 205,194.33 L 205,193.33 L 205,191.33 L 205,190.33 L 206,188.33 L 207,188.33 L 207,186.33 L 208,183.33 L 210,180.33 L 213,176.33 L 214,174.33 L 215,171.33 L 216,170.33 L 218,167.33 L 221,165.33 L 223,163.33 L 226,162.33 L 228,162.33 L 230,162.33 L 235,162.33 L 240,162.33 L 243,162.33 L 247,162.33 L 250,162.33 L 251,162.33 L 252,163.33 L 252,165.33 L 253,167.33 L 254,168.33 L 255,170.33 L 256,172.33 L 256,173.33 L 256,174.33 L 256,175.33 L 257,177.33 L 257,180.33 L 257,181.33 L 257,182.33 L 258,184.33 L 259,185.33 L 259,187.33 L 259,188.33 L 260,189.33 L 260,191.33 L 260,192.33 L 261,193.33 L 262,194.33 L 263,196.33 L 263,197.33 L 265,198.33 L 266,199.33 L 267,200.33 L 268,200.33 L 269,201.33 L 271,203.33 L 272,203.33 L 273,203.33 L 273,204.33 L 275,204.33 L 276,204.33 L 277,204.33 L 279,204.33 L 280,205.33 L 281,205.33 L 282,205.33 L 283,205.33 L 283,206.33 L 284,206.33 L 285,206.33 L 286,206.33 L 287,207.33 L 288,207.33 L 292,207.33 L 293,207.33 L 294,207.33 L 296,207.33 L 297,207.33 L 298,207.33 L 299,207.33 L 300,207.33 L 301,207.33 L 302,207.33 L 303,207.33 L 304,207.33" fill="none" stroke="#3794ff" stroke-width="2"></path><path d="M 403,212.33 L 405,212.33 L 406,212.33 L 409,212.33 L 411,212.33 L 415,212.33 L 420,212.33 L 422,212.33 L 425,212.33 L 429,212.33 L 431,212.33 L 434,212.33 L 436,213.33 L 439,213.33 L 440,213.33 L 441,213.33 L 442,213.33 L 445,213.33 L 447,213.33 L 449,214.33 L 450,214.33 L 453,214.33 L 455,214.33 L 456,214.33 L 458,214.33 L 459,214.33 L 460,213.33 L 462,212.33 L 463,210.33 L 464,209.33 L 465,206.33 L 465,204.33 L 465,201.33 L 468,190.33 L 468,187.33 L 468,182.33 L 469,176.33 L 469,171.33 L 469,166.33 L 469,161.33 L 467,157.33 L 467,153.33 L 465,149.33 L 465,146.33 L 465,143.33 L 465,138.33 L 465,136.33 L 465,134.33 L 466,131.33 L 467,128.33 L 469,126.33 L 471,124.33 L 475,123.33 L 478,122.33 L 482,121.33 L 487,121.33 L 491,121.33 L 494,121.33 L 497,122.33 L 501,125.33 L 505,128.33 L 507,133.33 L 509,138.33 L 512,144.33 L 513,147.33 L 514,150.33 L 515,154.33 L 516,159.33 L 516,163.33 L 516,170.33 L 516,175.33 L 516,178.33 L 516,180.33 L 516,184.33 L 515,187.33 L 515,190.33 L 515,193.33 L 514,195.33 L 514,197.33 L 513,198.33 L 512,200.33 L 512,201.33 L 512,203.33 L 511,204.33 L 510,205.33 L 510,206.33 L 510,207.33 L 510,208.33 L 510,209.33 L 511,210.33 L 512,211.33 L 516,213.33 L 519,213.33 L 522,213.33 L 524,213.33 L 525,213.33 L 526,213.33 L 528,213.33 L 529,213.33 L 533,213.33 L 534,213.33 L 536,213.33 L 538,213.33 L 541,211.33 L 543,211.33 L 544,211.33 L 545,210.33" fill="none" stroke="#3794ff" stroke-width="2"></path><path d="M 326,250.33 L 327,249.33 L 327,248.33 L 329,245.33 L 330,243.33 L 331,240.33 L 333,237.33 L 336,234.33 L 339,231.33 L 343,228.33 L 347,226.33 L 349,225.33 L 351,225.33 L 351,227.33 L 351,230.33 L 352,235.33 L 353,238.33 L 353,240.33 L 353,241.33 L 353,242.33 L 353,243.33 L 353,244.33 L 353,245.33 L 353,246.33 L 352,246.33 L 351,246.33 L 349,248.33 L 343,248.33 L 339,248.33 L 337,248.33 L 334,248.33 L 333,248.33" fill="none" stroke="#f14c4c" stroke-width="2"></path><path d="M 329,272.33 L 329,274.33 L 329,276.33 L 329,277.33 L 329,278.33 L 329,279.33 L 329,280.33 L 329,281.33 L 329,284.33 L 329,285.33 L 329,287.33 L 327,288.33 L 326,289.33 L 325,290.33 L 324,290.33 L 323,290.33 L 322,289.33 L 321,286.33 L 321,283.33 L 321,279.33 L 321,277.33 L 322,277.33 L 327,277.33 L 332,277.33 L 338,277.33 L 340,277.33 L 341,276.33 L 341,275.33" fill="none" stroke="#f14c4c" stroke-width="2"></path><path d="M 351,277.33 L 343,281.33 L 339,283.33 L 338,284.33 L 338,285.33 L 338,286.33 L 341,286.33 L 347,283.33 L 350,281.33 L 352,280.33 L 352,279.33 L 352,277.33" fill="none" stroke="#f14c4c" stroke-width="2"></path><path d="M 362,276.33 L 360,277.33 L 353,279.33 L 351,281.33 L 350,282.33 L 350,283.33 L 350,285.33 L 350,286.33 L 352,286.33 L 355,286.33 L 360,286.33 L 362,285.33 L 363,284.33 L 363,283.33 L 363,282.33 L 363,281.33" fill="none" stroke="#f14c4c" stroke-width="2"></path><path d="M 322,210.33 L 323,210.33 L 324,210.33 L 325,210.33 L 326,209.33 L 327,208.33 L 328,208.33 L 329,207.33 L 331,206.33 L 332,206.33 L 332,205.33 L 334,203.33 L 335,201.33 L 335,199.33 L 336,197.33 L 337,195.33 L 338,193.33 L 339,190.33 L 339,189.33 L 341,185.33 L 342,181.33 L 343,179.33 L 343,177.33 L 344,175.33 L 345,171.33 L 345,169.33 L 345,166.33 L 345,163.33 L 345,162.33 L 346,160.33 L 346,158.33 L 346,157.33 L 346,155.33 L 347,154.33 L 347,153.33 L 348,151.33 L 349,150.33 L 349,149.33 L 352,149.33 L 354,149.33 L 356,148.33 L 357,148.33 L 360,148.33 L 362,148.33 L 364,148.33 L 365,148.33 L 367,148.33 L 369,150.33 L 372,152.33 L 375,155.33 L 378,157.33 L 381,160.33 L 383,162.33 L 385,164.33 L 385,165.33 L 386,165.33 L 386,166.33 L 386,168.33 L 386,169.33 L 386,171.33 L 386,173.33 L 386,174.33 L 386,176.33 L 386,177.33 L 386,178.33 L 386,180.33 L 386,181.33 L 386,183.33 L 386,185.33 L 386,187.33 L 387,190.33 L 387,192.33 L 387,194.33 L 388,195.33 L 388,196.33 L 390,198.33 L 391,199.33 L 392,200.33 L 393,201.33 L 394,203.33 L 396,204.33 L 397,205.33 L 399,206.33 L 400,206.33 L 401,206.33 L 402,207.33 L 403,207.33 L 405,207.33 L 407,208.33 L 408,208.33 L 409,208.33 L 410,209.33 L 411,209.33 L 413,209.33 L 414,209.33 L 416,210.33 L 417,210.33 L 418,210.33 L 420,210.33 L 421,210.33 L 422,210.33 L 423,210.33 L 424,210.33 L 426,210.33 L 427,210.33 L 428,210.33 L 429,210.33 L 430,210.33 L 431,210.33 L 432,209.33 L 433,209.33 L 434,209.33 L 436,208.33 L 438,208.33 L 440,207.33" fill="none" stroke="#f14c4c" stroke-width="2"></path><path d="M 419,133.33 L 419,135.33" fill="none" stroke="#f14c4c" stroke-width="2"></path><path d="M 420,147.33 L 420,148.33 L 420,149.33 L 420,151.33" fill="none" stroke="#f14c4c" stroke-width="2"></path><path d="M 420,156.33 L 420,157.33 L 420,158.33 L 420,159.33 L 420,160.33 L 420,162.33 L 420,164.33 L 420,165.33" fill="none" stroke="#f14c4c" stroke-width="2"></path><path d="M 420,173.33 L 420,174.33 L 420,175.33 L 420,177.33 L 420,178.33 L 420,180.33 L 420,181.33" fill="none" stroke="#f14c4c" stroke-width="2"></path><path d="M 420,186.33 L 420,187.33 L 420,188.33 L 420,189.33 L 420,191.33 L 420,193.33 L 420,195.33 L 419,196.33" fill="none" stroke="#f14c4c" stroke-width="2"></path><path d="M 418,199.33 L 417,200.33 L 417,201.33 L 417,203.33 L 417,204.33 L 417,205.33" fill="none" stroke="#f14c4c" stroke-width="2"></path><path d="M 416,209.33 L 416,210.33 L 416,211.33 L 416,212.33 L 416,214.33 L 416,215.33 L 416,216.33" fill="none" stroke="#f14c4c" stroke-width="2"></path><path d="M 416,224.33 L 416,225.33 L 416,226.33 L 416,227.33" fill="none" stroke="#f14c4c" stroke-width="2"></path><path d="M 415,228.33 L 415,229.33 L 415,231.33" fill="none" stroke="#f14c4c" stroke-width="2"></path><path d="M 415,236.33 L 416,238.33 L 416,239.33 L 416,240.33 L 416,241.33 L 416,243.33 L 416,244.33 L 417,244.33" fill="none" stroke="#f14c4c" stroke-width="2"></path><path d="M 391,102.33 L 391,104.33 L 391,109.33 L 394,112.33 L 397,114.33 L 400,114.33 L 404,113.33 L 409,108.33 L 410,106.33 L 411,101.33 L 411,98.33 L 409,99.33 L 409,100.33 L 406,105.33 L 405,108.33 L 404,111.33 L 404,112.33 L 404,113.33 L 404,114.33 L 404,115.33 L 404,117.33" fill="none" stroke="#f14c4c" stroke-width="2"></path><path d="M 389,99.33 L 390,99.33 L 390,98.33 L 392,96.33 L 393,96.33 L 395,94.33 L 398,94.33 L 401,94.33 L 404,94.33 L 406,94.33 L 407,94.33 L 409,94.33 L 410,94.33 L 411,95.33 L 411,96.33 L 412,98.33 L 412,100.33 L 412,101.33 L 412,102.33 L 412,103.33" fill="none" stroke="#f14c4c" stroke-width="2"></path><path d="M 425,100.33 L 426,100.33 L 427,100.33 L 427,101.33 L 427,104.33 L 427,109.33 L 425,114.33 L 420,118.33 L 409,121.33 L 405,122.33 L 403,122.33 L 403,121.33 L 403,118.33 L 406,114.33 L 409,113.33 L 414,112.33 L 415,112.33 L 417,112.33 L 418,113.33 L 419,115.33 L 419,118.33 L 419,120.33 L 419,121.33 L 419,122.33 L 419,123.33 L 419,124.33 L 421,124.33" fill="none" stroke="#f14c4c" stroke-width="2"></path><path d="M 443,99.33 L 441,100.33 L 438,103.33 L 438,104.33 L 438,108.33 L 438,112.33 L 439,114.33 L 443,116.33 L 445,118.33 L 446,118.33 L 446,119.33 L 446,120.33 L 446,121.33 L 446,122.33 L 445,123.33 L 441,124.33 L 439,124.33 L 436,124.33 L 435,124.33" fill="none" stroke="#f14c4c" stroke-width="2"></path><path d="M 407,109.33 L 404,109.33 L 403,110.33 L 401,114.33 L 400,116.33 L 399,117.33 L 399,119.33 L 399,120.33 L 399,121.33 L 399,122.33 L 399,123.33 L 399,124.33 L 399,125.33 L 399,126.33 L 399,127.33" fill="none" stroke="#f14c4c" stroke-width="2"></path></svg>