<svg id="svg" xmlns="http://www.w3.org/2000/svg" viewBox="1.7963409423828125 84.33000183105469 728.2036743164062 638" height="638"><path d="M 53,223.33 L 56,222.33 L 65,221.33 L 78,220.33 L 91,220.33 L 105,219.33 L 116,218.33 L 128,218.33 L 140,218.33 L 160,218.33 L 172,218.33 L 186,218.33 L 200,218.33 L 213,218.33 L 224,217.33 L 237,216.33 L 255,214.33 L 271,214.33 L 286,214.33 L 304,214.33 L 320,214.33 L 347,214.33 L 363,214.33 L 377,214.33 L 384,214.33 L 390,215.33 L 396,216.33 L 404,216.33 L 411,217.33 L 418,217.33 L 425,217.33 L 431,217.33 L 440,217.33 L 451,218.33 L 459,218.33 L 468,218.33 L 477,218.33 L 489,218.33 L 500,218.33 L 511,218.33 L 521,218.33 L 532,218.33 L 544,218.33 L 557,218.33 L 567,218.33 L 581,218.33 L 585,218.33 L 587,218.33 L 588,218.33 L 589,218.33 L 590,218.33 L 593,218.33 L 598,218.33 L 604,218.33 L 608,218.33 L 611,218.33 L 613,218.33 L 616,218.33 L 618,218.33 L 621,218.33 L 626,218.33 L 632,218.33 L 638,218.33 L 644,218.33 L 649,218.33 L 651,219.33 L 652,219.33 L 653,219.33 L 654,219.33 L 655,219.33 L 659,219.33 L 662,219.33 L 663,219.33" fill="none" stroke="#3794ff" stroke-width="2"></path><path d="M 657,193.33 L 657,194.33 L 657,202.33 L 657,204.33 L 657,206.33 L 657,212.33 L 657,219.33 L 658,223.33 L 658,225.33 L 658,226.33" fill="none" stroke="#3794ff" stroke-width="2"></path><path d="M 661,201.33 L 662,201.33 L 663,201.33 L 664,201.33 L 668,205.33 L 671,208.33 L 673,211.33 L 674,213.33 L 675,214.33 L 676,215.33 L 676,216.33" fill="none" stroke="#3794ff" stroke-width="2"></path><path d="M 655,229.33 L 656,229.33 L 659,226.33 L 662,224.33 L 667,222.33 L 669,220.33 L 672,218.33 L 673,217.33 L 674,215.33 L 675,215.33 L 675,214.33" fill="none" stroke="#3794ff" stroke-width="2"></path><path d="M 62,190.33 L 61,191.33 L 60,194.33 L 60,196.33 L 59,206.33 L 56,215.33 L 55,224.33 L 55,230.33 L 55,237.33 L 55,242.33 L 55,246.33 L 55,247.33 L 55,248.33" fill="none" stroke="#3794ff" stroke-width="2"></path><path d="M 245,207.33 L 245,209.33 L 245,213.33 L 245,218.33 L 245,221.33 L 245,224.33 L 245,226.33 L 245,227.33 L 245,230.33 L 244,231.33 L 244,232.33" fill="none" stroke="#3794ff" stroke-width="2"></path><path d="M 230,251.33 L 232,251.33 L 235,251.33 L 240,251.33 L 248,251.33 L 253,251.33 L 257,251.33 L 259,251.33 L 262,251.33 L 263,251.33 L 264,252.33 L 265,252.33 L 264,252.33 L 264,251.33 L 263,250.33 L 262,250.33 L 260,249.33 L 259,248.33 L 257,247.33 L 256,246.33 L 255,245.33 L 254,244.33 L 253,243.33 L 252,243.33 L 252,242.33 L 252,241.33 L 252,240.33 L 251,239.33 L 250,239.33 L 247,241.33 L 246,243.33 L 245,245.33 L 244,248.33 L 244,249.33 L 242,252.33 L 241,254.33 L 241,255.33 L 239,257.33 L 238,259.33 L 238,260.33 L 238,261.33 L 237,262.33 L 237,263.33 L 237,264.33 L 237,265.33 L 237,266.33 L 238,266.33 L 240,266.33 L 243,265.33 L 245,265.33 L 248,264.33 L 251,264.33 L 252,264.33 L 255,264.33 L 256,264.33 L 258,263.33 L 260,263.33 L 261,262.33 L 262,262.33 L 263,262.33 L 263,261.33 L 262,261.33 L 261,259.33 L 260,258.33 L 257,255.33 L 254,252.33 L 252,251.33 L 250,249.33 L 249,248.33 L 248,247.33 L 246,246.33 L 246,245.33 L 245,245.33 L 245,244.33 L 244,244.33 L 243,244.33 L 242,244.33 L 241,244.33 L 239,244.33 L 238,246.33 L 238,247.33 L 237,249.33 L 236,250.33" fill="none" stroke="#3794ff" stroke-width="2"></path><path d="M 215,276.33 L 217,276.33 L 219,276.33 L 222,276.33 L 224,276.33 L 226,276.33 L 227,277.33 L 227,278.33 L 227,280.33 L 227,285.33 L 224,287.33 L 220,290.33 L 219,292.33 L 217,293.33" fill="none" stroke="#3794ff" stroke-width="2"></path><path d="M 214,284.33 L 215,284.33 L 219,284.33 L 224,284.33 L 228,284.33 L 234,284.33 L 237,284.33 L 238,284.33" fill="none" stroke="#3794ff" stroke-width="2"></path><path d="M 246,280.33 L 244,280.33 L 242,282.33 L 242,286.33 L 243,289.33 L 245,292.33 L 247,294.33 L 247,295.33 L 247,296.33 L 245,296.33 L 243,296.33 L 241,295.33 L 240,295.33 L 239,294.33 L 238,293.33 L 238,292.33" fill="none" stroke="#3794ff" stroke-width="2"></path><path d="M 269,283.33 L 265,283.33 L 261,285.33 L 259,287.33 L 258,288.33 L 258,290.33 L 261,290.33 L 263,290.33 L 265,290.33 L 266,289.33 L 266,288.33 L 266,287.33 L 265,287.33 L 264,286.33" fill="none" stroke="#3794ff" stroke-width="2"></path><path d="M 474,218.33 L 474,221.33 L 474,222.33 L 474,223.33 L 474,224.33 L 474,226.33 L 474,228.33 L 474,230.33 L 474,231.33" fill="none" stroke="#3794ff" stroke-width="2"></path><path d="M 479,211.33 L 479,210.33 L 478,210.33 L 478,212.33 L 478,214.33 L 478,215.33 L 478,217.33 L 478,218.33 L 478,219.33 L 478,220.33 L 478,221.33 L 478,222.33 L 478,223.33 L 479,224.33" fill="none" stroke="#3794ff" stroke-width="2"></path><path d="M 463,241.33 L 459,241.33 L 453,241.33 L 449,243.33 L 447,245.33 L 446,246.33 L 446,248.33 L 446,251.33 L 446,253.33 L 447,255.33 L 449,256.33 L 453,258.33 L 459,259.33 L 463,259.33 L 466,259.33 L 469,258.33 L 470,257.33 L 472,255.33 L 472,251.33 L 473,249.33 L 473,247.33 L 473,244.33 L 473,242.33 L 473,240.33 L 472,238.33 L 471,237.33 L 470,237.33 L 469,237.33 L 467,237.33 L 466,237.33 L 465,237.33" fill="none" stroke="#3794ff" stroke-width="2"></path><path d="M 440,277.33 L 440,279.33 L 440,285.33 L 439,292.33 L 438,296.33 L 437,299.33 L 437,300.33 L 437,301.33 L 438,301.33" fill="none" stroke="#3794ff" stroke-width="2"></path><path d="M 471,278.33 L 468,278.33 L 462,282.33 L 458,286.33 L 455,291.33 L 454,295.33 L 453,298.33 L 453,299.33 L 454,299.33 L 458,299.33 L 467,296.33 L 472,291.33 L 475,285.33 L 475,282.33" fill="none" stroke="#3794ff" stroke-width="2"></path><path d="M 502,282.33 L 502,281.33 L 501,281.33 L 497,284.33 L 492,288.33 L 488,292.33 L 486,294.33 L 486,295.33 L 486,296.33 L 487,296.33 L 491,294.33 L 496,290.33 L 497,287.33 L 497,285.33 L 497,283.33" fill="none" stroke="#3794ff" stroke-width="2"></path><path d="M 511,282.33 L 506,284.33 L 498,289.33 L 493,294.33 L 493,295.33 L 493,297.33 L 494,297.33 L 496,297.33 L 498,296.33 L 499,295.33 L 500,293.33 L 500,292.33 L 500,290.33 L 500,289.33 L 499,289.33" fill="none" stroke="#3794ff" stroke-width="2"></path><path d="M 299,219.33" fill="none" stroke="#3794ff" stroke-width="2"></path><path d="M 162,213.33 L 163,213.33 L 167,213.33 L 169,213.33 L 170,213.33 L 171,213.33 L 172,213.33 L 175,213.33 L 178,213.33 L 182,213.33 L 183,213.33 L 184,213.33 L 185,213.33 L 187,213.33 L 188,212.33 L 191,212.33 L 193,211.33 L 194,210.33 L 195,210.33 L 197,208.33 L 199,206.33 L 201,205.33 L 202,203.33 L 203,201.33 L 204,199.33 L 204,197.33 L 204,196.33 L 205,194.33 L 205,193.33 L 205,191.33 L 205,190.33 L 206,188.33 L 207,188.33 L 207,186.33 L 208,183.33 L 210,180.33 L 213,176.33 L 214,174.33 L 215,171.33 L 216,170.33 L 218,167.33 L 221,165.33 L 223,163.33 L 226,162.33 L 228,162.33 L 230,162.33 L 235,162.33 L 240,162.33 L 243,162.33 L 247,162.33 L 250,162.33 L 251,162.33 L 252,163.33 L 252,165.33 L 253,167.33 L 254,168.33 L 255,170.33 L 256,172.33 L 256,173.33 L 256,174.33 L 256,175.33 L 257,177.33 L 257,180.33 L 257,181.33 L 257,182.33 L 258,184.33 L 259,185.33 L 259,187.33 L 259,188.33 L 260,189.33 L 260,191.33 L 260,192.33 L 261,193.33 L 262,194.33 L 263,196.33 L 263,197.33 L 265,198.33 L 266,199.33 L 267,200.33 L 268,200.33 L 269,201.33 L 271,203.33 L 272,203.33 L 273,203.33 L 273,204.33 L 275,204.33 L 276,204.33 L 277,204.33 L 279,204.33 L 280,205.33 L 281,205.33 L 282,205.33 L 283,205.33 L 283,206.33 L 284,206.33 L 285,206.33 L 286,206.33 L 287,207.33 L 288,207.33 L 292,207.33 L 293,207.33 L 294,207.33 L 296,207.33 L 297,207.33 L 298,207.33 L 299,207.33 L 300,207.33 L 301,207.33 L 302,207.33 L 303,207.33 L 304,207.33" fill="none" stroke="#3794ff" stroke-width="2"></path><path d="M 403,212.33 L 405,212.33 L 406,212.33 L 409,212.33 L 411,212.33 L 415,212.33 L 420,212.33 L 422,212.33 L 425,212.33 L 429,212.33 L 431,212.33 L 434,212.33 L 436,213.33 L 439,213.33 L 440,213.33 L 441,213.33 L 442,213.33 L 445,213.33 L 447,213.33 L 449,214.33 L 450,214.33 L 453,214.33 L 455,214.33 L 456,214.33 L 458,214.33 L 459,214.33 L 460,213.33 L 462,212.33 L 463,210.33 L 464,209.33 L 465,206.33 L 465,204.33 L 465,201.33 L 468,190.33 L 468,187.33 L 468,182.33 L 469,176.33 L 469,171.33 L 469,166.33 L 469,161.33 L 467,157.33 L 467,153.33 L 465,149.33 L 465,146.33 L 465,143.33 L 465,138.33 L 465,136.33 L 465,134.33 L 466,131.33 L 467,128.33 L 469,126.33 L 471,124.33 L 475,123.33 L 478,122.33 L 482,121.33 L 487,121.33 L 491,121.33 L 494,121.33 L 497,122.33 L 501,125.33 L 505,128.33 L 507,133.33 L 509,138.33 L 512,144.33 L 513,147.33 L 514,150.33 L 515,154.33 L 516,159.33 L 516,163.33 L 516,170.33 L 516,175.33 L 516,178.33 L 516,180.33 L 516,184.33 L 515,187.33 L 515,190.33 L 515,193.33 L 514,195.33 L 514,197.33 L 513,198.33 L 512,200.33 L 512,201.33 L 512,203.33 L 511,204.33 L 510,205.33 L 510,206.33 L 510,207.33 L 510,208.33 L 510,209.33 L 511,210.33 L 512,211.33 L 516,213.33 L 519,213.33 L 522,213.33 L 524,213.33 L 525,213.33 L 526,213.33 L 528,213.33 L 529,213.33 L 533,213.33 L 534,213.33 L 536,213.33 L 538,213.33 L 541,211.33 L 543,211.33 L 544,211.33 L 545,210.33" fill="none" stroke="#3794ff" stroke-width="2"></path><path d="M 326,250.33 L 327,249.33 L 327,248.33 L 329,245.33 L 330,243.33 L 331,240.33 L 333,237.33 L 336,234.33 L 339,231.33 L 343,228.33 L 347,226.33 L 349,225.33 L 351,225.33 L 351,227.33 L 351,230.33 L 352,235.33 L 353,238.33 L 353,240.33 L 353,241.33 L 353,242.33 L 353,243.33 L 353,244.33 L 353,245.33 L 353,246.33 L 352,246.33 L 351,246.33 L 349,248.33 L 343,248.33 L 339,248.33 L 337,248.33 L 334,248.33 L 333,248.33" fill="none" stroke="#f14c4c" stroke-width="2"></path><path d="M 329,272.33 L 329,274.33 L 329,276.33 L 329,277.33 L 329,278.33 L 329,279.33 L 329,280.33 L 329,281.33 L 329,284.33 L 329,285.33 L 329,287.33 L 327,288.33 L 326,289.33 L 325,290.33 L 324,290.33 L 323,290.33 L 322,289.33 L 321,286.33 L 321,283.33 L 321,279.33 L 321,277.33 L 322,277.33 L 327,277.33 L 332,277.33 L 338,277.33 L 340,277.33 L 341,276.33 L 341,275.33" fill="none" stroke="#f14c4c" stroke-width="2"></path><path d="M 351,277.33 L 343,281.33 L 339,283.33 L 338,284.33 L 338,285.33 L 338,286.33 L 341,286.33 L 347,283.33 L 350,281.33 L 352,280.33 L 352,279.33 L 352,277.33" fill="none" stroke="#f14c4c" stroke-width="2"></path><path d="M 362,276.33 L 360,277.33 L 353,279.33 L 351,281.33 L 350,282.33 L 350,283.33 L 350,285.33 L 350,286.33 L 352,286.33 L 355,286.33 L 360,286.33 L 362,285.33 L 363,284.33 L 363,283.33 L 363,282.33 L 363,281.33" fill="none" stroke="#f14c4c" stroke-width="2"></path><path d="M 322,210.33 L 323,210.33 L 324,210.33 L 325,210.33 L 326,209.33 L 327,208.33 L 328,208.33 L 329,207.33 L 331,206.33 L 332,206.33 L 332,205.33 L 334,203.33 L 335,201.33 L 335,199.33 L 336,197.33 L 337,195.33 L 338,193.33 L 339,190.33 L 339,189.33 L 341,185.33 L 342,181.33 L 343,179.33 L 343,177.33 L 344,175.33 L 345,171.33 L 345,169.33 L 345,166.33 L 345,163.33 L 345,162.33 L 346,160.33 L 346,158.33 L 346,157.33 L 346,155.33 L 347,154.33 L 347,153.33 L 348,151.33 L 349,150.33 L 349,149.33 L 352,149.33 L 354,149.33 L 356,148.33 L 357,148.33 L 360,148.33 L 362,148.33 L 364,148.33 L 365,148.33 L 367,148.33 L 369,150.33 L 372,152.33 L 375,155.33 L 378,157.33 L 381,160.33 L 383,162.33 L 385,164.33 L 385,165.33 L 386,165.33 L 386,166.33 L 386,168.33 L 386,169.33 L 386,171.33 L 386,173.33 L 386,174.33 L 386,176.33 L 386,177.33 L 386,178.33 L 386,180.33 L 386,181.33 L 386,183.33 L 386,185.33 L 386,187.33 L 387,190.33 L 387,192.33 L 387,194.33 L 388,195.33 L 388,196.33 L 390,198.33 L 391,199.33 L 392,200.33 L 393,201.33 L 394,203.33 L 396,204.33 L 397,205.33 L 399,206.33 L 400,206.33 L 401,206.33 L 402,207.33 L 403,207.33 L 405,207.33 L 407,208.33 L 408,208.33 L 409,208.33 L 410,209.33 L 411,209.33 L 413,209.33 L 414,209.33 L 416,210.33 L 417,210.33 L 418,210.33 L 420,210.33 L 421,210.33 L 422,210.33 L 423,210.33 L 424,210.33 L 426,210.33 L 427,210.33 L 428,210.33 L 429,210.33 L 430,210.33 L 431,210.33 L 432,209.33 L 433,209.33 L 434,209.33 L 436,208.33 L 438,208.33 L 440,207.33" fill="none" stroke="#f14c4c" stroke-width="2"></path><path d="M 419,133.33 L 419,135.33" fill="none" stroke="#f14c4c" stroke-width="2"></path><path d="M 420,147.33 L 420,148.33 L 420,149.33 L 420,151.33" fill="none" stroke="#f14c4c" stroke-width="2"></path><path d="M 420,156.33 L 420,157.33 L 420,158.33 L 420,159.33 L 420,160.33 L 420,162.33 L 420,164.33 L 420,165.33" fill="none" stroke="#f14c4c" stroke-width="2"></path><path d="M 420,173.33 L 420,174.33 L 420,175.33 L 420,177.33 L 420,178.33 L 420,180.33 L 420,181.33" fill="none" stroke="#f14c4c" stroke-width="2"></path><path d="M 420,186.33 L 420,187.33 L 420,188.33 L 420,189.33 L 420,191.33 L 420,193.33 L 420,195.33 L 419,196.33" fill="none" stroke="#f14c4c" stroke-width="2"></path><path d="M 418,199.33 L 417,200.33 L 417,201.33 L 417,203.33 L 417,204.33 L 417,205.33" fill="none" stroke="#f14c4c" stroke-width="2"></path><path d="M 416,209.33 L 416,210.33 L 416,211.33 L 416,212.33 L 416,214.33 L 416,215.33 L 416,216.33" fill="none" stroke="#f14c4c" stroke-width="2"></path><path d="M 416,224.33 L 416,225.33 L 416,226.33 L 416,227.33" fill="none" stroke="#f14c4c" stroke-width="2"></path><path d="M 415,228.33 L 415,229.33 L 415,231.33" fill="none" stroke="#f14c4c" stroke-width="2"></path><path d="M 415,236.33 L 416,238.33 L 416,239.33 L 416,240.33 L 416,241.33 L 416,243.33 L 416,244.33 L 417,244.33" fill="none" stroke="#f14c4c" stroke-width="2"></path><path d="M 391,102.33 L 391,104.33 L 391,109.33 L 394,112.33 L 397,114.33 L 400,114.33 L 404,113.33 L 409,108.33 L 410,106.33 L 411,101.33 L 411,98.33 L 409,99.33 L 409,100.33 L 406,105.33 L 405,108.33 L 404,111.33 L 404,112.33 L 404,113.33 L 404,114.33 L 404,115.33 L 404,117.33" fill="none" stroke="#f14c4c" stroke-width="2"></path><path d="M 389,99.33 L 390,99.33 L 390,98.33 L 392,96.33 L 393,96.33 L 395,94.33 L 398,94.33 L 401,94.33 L 404,94.33 L 406,94.33 L 407,94.33 L 409,94.33 L 410,94.33 L 411,95.33 L 411,96.33 L 412,98.33 L 412,100.33 L 412,101.33 L 412,102.33 L 412,103.33" fill="none" stroke="#f14c4c" stroke-width="2"></path><path d="M 425,100.33 L 426,100.33 L 427,100.33 L 427,101.33 L 427,104.33 L 427,109.33 L 425,114.33 L 420,118.33 L 409,121.33 L 405,122.33 L 403,122.33 L 403,121.33 L 403,118.33 L 406,114.33 L 409,113.33 L 414,112.33 L 415,112.33 L 417,112.33 L 418,113.33 L 419,115.33 L 419,118.33 L 419,120.33 L 419,121.33 L 419,122.33 L 419,123.33 L 419,124.33 L 421,124.33" fill="none" stroke="#f14c4c" stroke-width="2"></path><path d="M 443,99.33 L 441,100.33 L 438,103.33 L 438,104.33 L 438,108.33 L 438,112.33 L 439,114.33 L 443,116.33 L 445,118.33 L 446,118.33 L 446,119.33 L 446,120.33 L 446,121.33 L 446,122.33 L 445,123.33 L 441,124.33 L 439,124.33 L 436,124.33 L 435,124.33" fill="none" stroke="#f14c4c" stroke-width="2"></path><path d="M 407,109.33 L 404,109.33 L 403,110.33 L 401,114.33 L 400,116.33 L 399,117.33 L 399,119.33 L 399,120.33 L 399,121.33 L 399,122.33 L 399,123.33 L 399,124.33 L 399,125.33 L 399,126.33 L 399,127.33" fill="none" stroke="#f14c4c" stroke-width="2"></path><circle cx="61" cy="382.33" fill="none" stroke="#cca700" stroke-width="2" r="49.20365840057018" d="M 11.796341599429823 382.33 a 49.20365840057018 49.20365840057018 0 1 0 98.40731680114035 0a 49.20365840057018 49.20365840057018 0 1 0 -98.40731680114035 0 Z"></circle><path d="M 31,516.33 L 30,515.33 L 30,514.33 L 32,509.33 L 38,501.33 L 47,491.33 L 51,484.33 L 55,478.33 L 56,476.33 L 57,474.33 L 58,474.33 L 60,475.33 L 64,487.33 L 69,497.33 L 74,506.33 L 77,512.33 L 78,515.33 L 80,516.33 L 80,518.33 L 80,519.33 L 80,521.33 L 81,523.33 L 81,525.33 L 80,528.33 L 73,529.33 L 63,529.33 L 52,529.33 L 43,526.33 L 35,523.33 L 32,521.33 L 31,520.33" fill="none" stroke="#cca700" stroke-width="2"></path><path d="M 29,612.33 L 29,610.33 L 37,610.33 L 47,610.33 L 59,610.33 L 70,610.33 L 77,610.33 L 83,611.33 L 85,611.33 L 86,611.33 L 90,612.33 L 95,612.33 L 100,612.33 L 103,612.33 L 104,612.33 L 105,612.33 L 106,612.33 L 105,611.33 L 104,609.33 L 100,605.33 L 97,603.33 L 94,599.33 L 92,591.33 L 90,585.33 L 89,581.33 L 88,579.33 L 88,577.33 L 86,577.33 L 85,578.33 L 83,580.33 L 77,586.33 L 73,595.33 L 68,606.33 L 66,617.33 L 64,629.33 L 63,636.33 L 59,649.33 L 56,657.33 L 53,662.33 L 51,663.33 L 51,665.33 L 50,665.33 L 50,666.33 L 50,667.33 L 52,668.33 L 58,668.33 L 75,672.33 L 85,674.33 L 92,675.33 L 96,675.33 L 96,674.33 L 96,672.33 L 94,659.33 L 89,644.33 L 84,631.33 L 77,612.33 L 73,593.33 L 68,583.33 L 66,579.33 L 65,575.33 L 64,574.33 L 62,574.33 L 62,575.33 L 61,576.33 L 59,583.33 L 56,589.33 L 54,596.33 L 51,602.33 L 49,604.33 L 49,605.33 L 48,606.33 L 48,607.33" fill="none" stroke="#cca700" stroke-width="2"></path><path d="M 142,386.33 L 142,391.33 L 141,395.33 L 140,400.33 L 139,405.33 L 139,410.33 L 138,413.33 L 137,416.33 L 136,417.33 L 135,418.33" fill="none" stroke="#cca700" stroke-width="2"></path><path d="M 155,382.33 L 156,382.33 L 157,383.33 L 158,384.33 L 161,386.33 L 164,389.33 L 166,392.33 L 167,398.33 L 167,400.33 L 167,402.33 L 167,403.33 L 166,404.33 L 164,404.33 L 161,404.33 L 157,404.33 L 152,404.33 L 150,403.33 L 149,402.33" fill="none" stroke="#cca700" stroke-width="2"></path><path d="M 184,408.33 L 184,406.33 L 184,405.33 L 184,404.33 L 185,403.33 L 188,404.33 L 195,407.33 L 202,408.33 L 208,411.33 L 210,412.33" fill="none" stroke="#cca700" stroke-width="2"></path><path d="M 174,421.33 L 175,421.33 L 177,420.33 L 182,420.33 L 183,420.33" fill="none" stroke="#cca700" stroke-width="2"></path><path d="M 218,405.33 L 219,407.33 L 222,409.33 L 224,412.33 L 224,416.33 L 224,420.33 L 218,423.33 L 208,425.33 L 201,425.33 L 198,425.33 L 197,424.33 L 204,421.33 L 212,420.33 L 218,420.33 L 220,420.33 L 221,420.33 L 222,420.33 L 224,422.33 L 225,424.33 L 225,425.33 L 225,426.33 L 226,427.33 L 229,427.33 L 235,427.33" fill="none" stroke="#cca700" stroke-width="2"></path><path d="M 251,413.33 L 251,416.33 L 251,420.33 L 251,425.33 L 252,427.33 L 253,429.33 L 254,430.33 L 254,431.33 L 254,432.33 L 254,433.33 L 251,433.33 L 247,433.33 L 242,432.33 L 241,431.33" fill="none" stroke="#cca700" stroke-width="2"></path><path d="M 276,424.33 L 275,424.33 L 274,424.33 L 272,424.33 L 271,426.33 L 271,430.33 L 271,434.33 L 271,437.33 L 273,438.33 L 276,438.33 L 279,438.33 L 281,438.33 L 284,437.33 L 285,436.33 L 285,434.33 L 285,429.33 L 283,426.33 L 282,425.33" fill="none" stroke="#cca700" stroke-width="2"></path><path d="M 115,487.33 L 115,488.33 L 116,492.33 L 117,496.33 L 118,500.33 L 118,502.33 L 118,505.33 L 118,506.33 L 118,508.33 L 118,510.33 L 118,511.33 L 118,508.33 L 118,507.33 L 118,499.33 L 118,493.33 L 118,488.33 L 118,483.33 L 118,481.33 L 119,480.33 L 123,478.33 L 128,478.33 L 132,478.33 L 136,478.33 L 138,479.33 L 138,482.33 L 138,485.33 L 138,488.33 L 137,491.33 L 134,491.33 L 131,492.33 L 128,492.33 L 125,492.33 L 124,492.33 L 123,492.33" fill="none" stroke="#cca700" stroke-width="2"></path><path d="M 148,494.33 L 150,493.33 L 154,492.33 L 161,491.33 L 169,490.33 L 174,490.33 L 176,490.33 L 179,490.33" fill="none" stroke="#cca700" stroke-width="2"></path><path d="M 138,506.33 L 137,506.33 L 141,506.33 L 145,506.33 L 151,506.33 L 153,506.33 L 156,506.33" fill="none" stroke="#cca700" stroke-width="2"></path><path d="M 184,483.33 L 184,488.33 L 184,494.33 L 183,500.33 L 181,507.33 L 179,510.33 L 179,511.33 L 180,512.33" fill="none" stroke="#cca700" stroke-width="2"></path><path d="M 207,492.33 L 205,492.33 L 204,492.33 L 201,493.33 L 197,496.33 L 194,499.33 L 194,500.33 L 194,502.33 L 194,504.33 L 199,504.33 L 204,504.33 L 208,504.33 L 212,502.33 L 212,501.33 L 212,499.33 L 212,497.33 L 212,496.33 L 212,495.33" fill="none" stroke="#cca700" stroke-width="2"></path><path d="M 238,498.33 L 236,499.33 L 234,500.33 L 230,501.33 L 228,502.33 L 227,503.33 L 224,505.33 L 224,506.33 L 224,507.33 L 224,508.33 L 225,508.33 L 229,508.33 L 232,508.33 L 234,506.33 L 234,504.33 L 234,502.33 L 234,500.33 L 234,499.33 L 233,498.33" fill="none" stroke="#cca700" stroke-width="2"></path><path d="M 266,496.33 L 260,495.33 L 253,495.33 L 247,497.33 L 244,500.33 L 242,501.33 L 242,503.33 L 242,504.33 L 247,504.33 L 254,501.33 L 257,499.33 L 259,497.33 L 259,496.33" fill="none" stroke="#cca700" stroke-width="2"></path><path d="M 128,639.33 L 128,642.33 L 128,644.33 L 128,648.33 L 128,655.33 L 126,662.33 L 124,667.33 L 124,670.33 L 124,668.33" fill="none" stroke="#cca700" stroke-width="2"></path><path d="M 137,635.33 L 144,634.33 L 150,634.33 L 152,634.33 L 155,635.33 L 156,635.33 L 157,638.33 L 157,640.33 L 157,644.33 L 157,646.33 L 150,649.33 L 144,650.33 L 141,650.33 L 137,650.33 L 135,650.33 L 134,650.33 L 133,649.33" fill="none" stroke="#cca700" stroke-width="2"></path><path d="M 163,660.33 L 165,658.33 L 167,658.33 L 170,658.33 L 174,658.33 L 177,658.33 L 181,657.33 L 182,657.33 L 183,657.33" fill="none" stroke="#cca700" stroke-width="2"></path><path d="M 145,668.33 L 146,668.33 L 154,668.33 L 162,668.33 L 172,667.33 L 177,666.33 L 180,665.33" fill="none" stroke="#cca700" stroke-width="2"></path><path d="M 197,650.33 L 195,654.33 L 193,658.33 L 193,660.33 L 193,661.33 L 193,662.33 L 194,662.33 L 198,661.33 L 201,660.33 L 205,658.33 L 206,657.33 L 206,658.33 L 206,665.33 L 206,667.33 L 206,669.33 L 204,671.33 L 204,672.33 L 204,673.33" fill="none" stroke="#cca700" stroke-width="2"></path><path d="M 230,656.33 L 227,655.33 L 223,656.33 L 219,660.33 L 217,663.33 L 217,665.33 L 218,666.33 L 226,660.33 L 232,652.33 L 236,645.33 L 237,641.33 L 237,640.33 L 238,639.33 L 239,638.33" fill="none" stroke="#cca700" stroke-width="2"></path><path d="M 247,645.33 L 246,647.33 L 243,651.33 L 241,656.33 L 240,658.33 L 240,660.33 L 241,660.33 L 242,660.33 L 244,660.33 L 245,659.33 L 245,657.33 L 245,656.33 L 245,655.33 L 243,655.33 L 241,655.33 L 241,656.33 L 240,658.33 L 241,658.33 L 243,658.33 L 247,656.33 L 248,654.33 L 248,652.33 L 248,651.33" fill="none" stroke="#cca700" stroke-width="2"></path><path d="M 332,383.33 L 332,384.33 L 333,388.33 L 336,397.33 L 339,412.33 L 342,428.33 L 345,445.33 L 348,466.33 L 351,491.33 L 355,512.33 L 357,531.33 L 361,548.33 L 363,564.33 L 364,576.33 L 364,587.33 L 364,595.33 L 364,607.33 L 364,613.33 L 364,619.33 L 364,624.33 L 364,628.33 L 364,632.33 L 364,637.33 L 364,642.33 L 364,646.33 L 364,649.33 L 364,653.33 L 364,655.33 L 363,657.33 L 362,660.33 L 361,663.33 L 361,665.33 L 360,668.33 L 360,669.33 L 361,669.33 L 363,669.33 L 367,669.33 L 373,669.33 L 384,669.33 L 399,669.33 L 416,669.33 L 433,669.33 L 452,669.33 L 479,669.33 L 497,669.33 L 511,669.33 L 523,669.33 L 535,669.33 L 547,669.33 L 560,669.33 L 573,669.33 L 588,669.33 L 604,669.33 L 617,669.33 L 635,669.33 L 656,669.33 L 667,668.33 L 674,668.33 L 681,668.33 L 689,668.33 L 697,668.33 L 703,668.33 L 709,668.33 L 714,668.33 L 716,668.33 L 718,668.33 L 719,668.33 L 720,668.33" fill="none" stroke="#cca700" stroke-width="2"></path><path d="M 438,710.33 L 438,709.33 L 438,706.33 L 438,704.33 L 438,703.33 L 438,701.33 L 439,698.33 L 441,695.33 L 442,693.33 L 443,692.33 L 445,692.33 L 447,693.33 L 447,694.33 L 449,696.33 L 451,700.33 L 452,703.33 L 453,707.33 L 453,708.33 L 454,710.33 L 455,711.33 L 456,712.33 L 455,712.33 L 452,712.33 L 446,712.33 L 439,712.33 L 434,712.33 L 431,712.33 L 430,712.33 L 431,710.33 L 432,710.33 L 438,706.33 L 440,705.33 L 441,705.33 L 442,704.33 L 444,704.33 L 445,703.33 L 445,701.33 L 446,699.33 L 448,695.33 L 448,697.33 L 450,704.33 L 451,706.33 L 452,711.33 L 453,712.33" fill="none" stroke="#cca700" stroke-width="2"></path><path d="M 310,443.33 L 309,442.33 L 309,440.33 L 310,439.33 L 311,437.33 L 313,437.33 L 313,436.33 L 314,436.33 L 316,436.33 L 317,437.33 L 318,439.33 L 318,445.33 L 319,453.33 L 320,464.33 L 321,466.33 L 321,468.33 L 321,469.33 L 319,468.33 L 318,468.33 L 317,467.33 L 313,464.33 L 305,458.33 L 304,457.33 L 303,456.33 L 303,455.33 L 303,454.33 L 303,453.33 L 303,452.33 L 307,452.33 L 314,451.33 L 316,450.33 L 318,449.33 L 319,449.33" fill="none" stroke="#cca700" stroke-width="2"></path><path d="M 465,665.33 L 465,664.33 L 465,661.33 L 465,656.33 L 465,653.33 L 465,651.33 L 465,650.33 L 465,649.33" fill="none" stroke="#cca700" stroke-width="2"></path><path d="M 463,641.33 L 463,639.33 L 463,636.33 L 463,633.33" fill="none" stroke="#cca700" stroke-width="2"></path><path d="M 460,609.33 L 460,608.33 L 460,607.33 L 460,606.33 L 460,605.33" fill="none" stroke="#cca700" stroke-width="2"></path><path d="M 461,592.33 L 461,591.33 L 462,590.33 L 462,589.33 L 462,587.33" fill="none" stroke="#cca700" stroke-width="2"></path><path d="M 463,575.33 L 463,574.33 L 464,572.33 L 464,570.33 L 465,566.33 L 465,560.33" fill="none" stroke="#cca700" stroke-width="2"></path><path d="M 466,543.33 L 466,542.33 L 466,539.33 L 466,536.33 L 466,533.33 L 466,529.33 L 466,526.33 L 466,524.33" fill="none" stroke="#cca700" stroke-width="2"></path><path d="M 465,505.33 L 465,504.33 L 465,502.33 L 465,500.33 L 465,496.33 L 465,490.33 L 464,486.33" fill="none" stroke="#cca700" stroke-width="2"></path><path d="M 461,473.33 L 461,472.33 L 461,471.33 L 461,468.33 L 460,464.33 L 460,460.33 L 460,458.33 L 459,455.33 L 459,454.33" fill="none" stroke="#cca700" stroke-width="2"></path><path d="M 353,460.33" fill="none" stroke="#cca700" stroke-width="2"></path><path d="M 374,459.33 L 377,459.33 L 382,459.33 L 387,459.33" fill="none" stroke="#cca700" stroke-width="2"></path><path d="M 399,458.33 L 401,457.33 L 402,457.33 L 404,457.33 L 406,457.33 L 410,457.33 L 415,457.33 L 420,457.33" fill="none" stroke="#cca700" stroke-width="2"></path><path d="M 455,460.33" fill="none" stroke="#cca700" stroke-width="2"></path><path d="M 455,460.33" fill="none" stroke="#cca700" stroke-width="2"></path><path d="M 319,522.33 L 318,522.33 L 317,522.33 L 317,523.33 L 317,524.33 L 316,526.33 L 316,528.33 L 316,531.33 L 316,535.33 L 316,537.33 L 317,539.33 L 319,541.33 L 320,542.33 L 320,543.33 L 322,543.33 L 325,544.33 L 328,544.33 L 332,544.33 L 334,544.33 L 335,543.33 L 335,542.33 L 335,540.33 L 337,537.33 L 338,534.33 L 338,532.33 L 338,531.33 L 338,528.33 L 338,527.33 L 338,526.33 L 337,524.33 L 335,523.33 L 333,522.33 L 330,522.33 L 326,521.33 L 323,520.33 L 322,520.33 L 321,520.33" fill="none" stroke="#cca700" stroke-width="2"></path><path d="M 345,536.33 L 346,536.33" fill="none" stroke="#cca700" stroke-width="2"></path><path d="M 380,536.33 L 385,536.33 L 391,536.33 L 397,536.33 L 400,536.33" fill="none" stroke="#cca700" stroke-width="2"></path><path d="M 461,533.33 L 463,533.33 L 464,533.33" fill="none" stroke="#cca700" stroke-width="2"></path><path d="M 471,533.33 L 472,533.33 L 477,533.33 L 483,533.33 L 490,533.33 L 495,533.33 L 497,533.33" fill="none" stroke="#cca700" stroke-width="2"></path><path d="M 499,533.33 L 501,533.33 L 503,533.33 L 505,533.33 L 509,533.33" fill="none" stroke="#cca700" stroke-width="2"></path><path d="M 512,533.33 L 513,533.33 L 515,533.33 L 517,533.33 L 519,533.33 L 522,533.33" fill="none" stroke="#cca700" stroke-width="2"></path><path d="M 526,531.33 L 527,531.33 L 530,531.33 L 537,533.33" fill="none" stroke="#cca700" stroke-width="2"></path><path d="M 544,534.33 L 547,534.33 L 549,534.33 L 553,535.33" fill="none" stroke="#cca700" stroke-width="2"></path><path d="M 551,552.33 L 551,553.33 L 551,555.33" fill="none" stroke="#cca700" stroke-width="2"></path><path d="M 551,569.33 L 551,571.33 L 552,574.33 L 552,575.33 L 553,576.33" fill="none" stroke="#cca700" stroke-width="2"></path><path d="M 553,582.33 L 553,583.33 L 553,586.33 L 553,590.33 L 553,592.33 L 553,596.33 L 552,598.33 L 551,600.33" fill="none" stroke="#cca700" stroke-width="2"></path><path d="M 550,606.33 L 549,609.33 L 549,610.33 L 548,612.33 L 547,614.33" fill="none" stroke="#cca700" stroke-width="2"></path><path d="M 543,628.33 L 543,629.33 L 542,632.33 L 542,636.33 L 542,637.33 L 541,639.33" fill="none" stroke="#cca700" stroke-width="2"></path><path d="M 546,661.33 L 548,666.33 L 548,667.33" fill="none" stroke="#cca700" stroke-width="2"></path><path d="M 546,687.33 L 544,691.33 L 542,693.33 L 540,695.33 L 537,698.33 L 535,700.33 L 534,703.33 L 534,704.33 L 536,705.33 L 541,705.33 L 548,704.33 L 557,702.33 L 562,700.33 L 567,699.33 L 568,697.33 L 569,697.33 L 569,694.33 L 569,691.33 L 569,689.33 L 566,687.33 L 564,685.33 L 560,684.33 L 557,683.33 L 556,683.33 L 555,683.33 L 553,683.33 L 552,683.33 L 551,683.33 L 550,683.33 L 549,685.33 L 548,686.33" fill="none" stroke="#cca700" stroke-width="2"></path><path d="M 332,615.33 L 332,616.33 L 332,613.33 L 332,610.33 L 332,609.33 L 332,607.33 L 332,606.33" fill="none" stroke="#cca700" stroke-width="2"></path><path d="M 322,615.33 L 321,614.33 L 321,613.33 L 321,612.33 L 321,609.33 L 320,606.33 L 320,599.33 L 320,597.33 L 320,596.33 L 320,595.33 L 320,594.33 L 321,595.33 L 322,595.33 L 325,600.33 L 329,608.33 L 332,612.33 L 334,613.33 L 335,613.33 L 336,615.33 L 338,615.33 L 338,616.33 L 337,616.33 L 332,616.33 L 328,615.33 L 324,614.33 L 322,614.33 L 321,614.33" fill="none" stroke="#cca700" stroke-width="2"></path><path d="M 338,607.33 L 340,605.33 L 343,605.33 L 345,605.33" fill="none" stroke="#cca700" stroke-width="2"></path><path d="M 453,615.33" fill="none" stroke="#cca700" stroke-width="2"></path><path d="M 363,601.33 L 364,601.33 L 365,601.33 L 366,601.33" fill="none" stroke="#cca700" stroke-width="2"></path><path d="M 386,601.33 L 387,601.33 L 388,601.33 L 390,601.33 L 393,601.33 L 396,601.33 L 397,601.33" fill="none" stroke="#cca700" stroke-width="2"></path><path d="M 398,601.33 L 399,601.33 L 401,601.33 L 406,601.33 L 413,601.33 L 415,601.33" fill="none" stroke="#cca700" stroke-width="2"></path><path d="M 423,601.33 L 424,601.33 L 428,601.33 L 437,601.33 L 456,601.33 L 463,601.33" fill="none" stroke="#cca700" stroke-width="2"></path><path d="M 486,601.33 L 490,601.33 L 497,601.33 L 504,601.33 L 506,602.33" fill="none" stroke="#cca700" stroke-width="2"></path><path d="M 508,602.33 L 509,602.33 L 511,602.33 L 516,602.33 L 520,602.33 L 525,602.33 L 528,602.33" fill="none" stroke="#cca700" stroke-width="2"></path><path d="M 552,598.33 L 554,598.33 L 562,597.33 L 572,596.33 L 577,594.33 L 580,594.33" fill="none" stroke="#cca700" stroke-width="2"></path><path d="M 605,594.33 L 615,594.33 L 617,594.33 L 618,594.33" fill="none" stroke="#cca700" stroke-width="2"></path><path d="M 622,594.33 L 623,594.33" fill="none" stroke="#cca700" stroke-width="2"></path><path d="M 623,597.33 L 623,598.33 L 623,601.33 L 623,605.33 L 622,610.33" fill="none" stroke="#cca700" stroke-width="2"></path><path d="M 618,625.33 L 618,627.33 L 619,631.33 L 619,632.33 L 619,634.33 L 619,637.33 L 618,638.33 L 618,639.33 L 618,640.33 L 618,641.33 L 618,643.33 L 618,644.33 L 617,646.33" fill="none" stroke="#cca700" stroke-width="2"></path><path d="M 615,661.33" fill="none" stroke="#cca700" stroke-width="2"></path><path d="M 611,701.33 L 611,700.33 L 612,698.33 L 612,693.33 L 615,687.33 L 617,682.33 L 619,680.33 L 620,680.33 L 621,680.33 L 622,680.33 L 623,682.33 L 623,685.33 L 623,688.33 L 623,690.33 L 624,691.33 L 624,692.33 L 624,693.33 L 624,694.33 L 623,695.33 L 620,696.33 L 617,696.33 L 613,696.33 L 611,696.33 L 610,696.33" fill="none" stroke="#cca700" stroke-width="2"></path><path d="M 144,379.33 L 144,378.33 L 143,376.33 L 143,375.33 L 142,371.33 L 142,369.33 L 142,367.33 L 142,362.33 L 142,358.33 L 142,355.33 L 143,351.33 L 144,350.33 L 144,348.33 L 146,346.33 L 147,346.33 L 149,346.33 L 150,347.33 L 152,353.33 L 154,360.33 L 156,364.33 L 156,367.33 L 157,368.33" fill="none" stroke="#cca700" stroke-width="2"></path><path d="M 141,368.33 L 141,367.33 L 143,367.33 L 148,365.33 L 153,364.33 L 157,363.33 L 162,362.33 L 164,361.33 L 168,360.33 L 170,359.33 L 171,358.33" fill="none" stroke="#cca700" stroke-width="2"></path><path d="M 149,370.33 L 151,370.33 L 153,370.33 L 155,369.33 L 157,369.33 L 158,368.33" fill="none" stroke="#cca700" stroke-width="2"></path><path d="M 178,359.33 L 180,359.33 L 184,359.33 L 190,359.33 L 196,358.33 L 198,358.33 L 199,358.33" fill="none" stroke="#cca700" stroke-width="2"></path><path d="M 184,370.33 L 184,371.33 L 186,371.33 L 188,371.33 L 193,371.33 L 197,371.33 L 198,371.33 L 199,371.33" fill="none" stroke="#cca700" stroke-width="2"></path><path d="M 214,358.33 L 214,359.33 L 214,361.33 L 214,365.33 L 214,369.33 L 214,373.33 L 214,378.33 L 214,382.33 L 214,383.33 L 215,383.33" fill="none" stroke="#cca700" stroke-width="2"></path><path d="M 251,366.33 L 251,365.33 L 247,366.33 L 243,369.33 L 240,371.33 L 239,372.33 L 239,373.33 L 239,374.33 L 240,375.33 L 246,374.33 L 252,370.33 L 254,368.33 L 254,365.33 L 254,364.33" fill="none" stroke="#cca700" stroke-width="2"></path><path d="M 269,363.33 L 270,364.33 L 270,365.33 L 268,366.33 L 265,369.33 L 263,371.33 L 263,373.33 L 262,375.33 L 262,378.33 L 264,379.33 L 268,380.33 L 274,380.33 L 279,380.33 L 282,377.33 L 282,376.33 L 282,374.33 L 282,373.33" fill="none" stroke="#cca700" stroke-width="2"></path><path d="M 287,368.33 L 286,370.33 L 284,372.33 L 282,376.33 L 282,378.33 L 282,380.33 L 282,381.33 L 282,382.33 L 283,382.33 L 287,382.33 L 291,382.33 L 293,382.33 L 294,381.33 L 294,380.33 L 294,379.33 L 293,378.33 L 292,378.33" fill="none" stroke="#cca700" stroke-width="2"></path><path d="M 115,548.33 L 115,547.33 L 115,543.33 L 116,539.33 L 117,535.33 L 118,530.33 L 118,527.33 L 120,524.33 L 121,522.33 L 122,518.33 L 123,518.33 L 123,521.33 L 125,527.33 L 125,532.33 L 126,536.33 L 127,539.33 L 127,541.33 L 127,542.33" fill="none" stroke="#cca700" stroke-width="2"></path><path d="M 118,536.33 L 118,535.33 L 118,534.33 L 125,532.33 L 136,529.33 L 143,528.33 L 148,527.33 L 150,527.33" fill="none" stroke="#cca700" stroke-width="2"></path><path d="M 158,524.33 L 159,524.33 L 160,524.33 L 165,526.33 L 168,527.33 L 172,528.33 L 172,529.33 L 172,530.33 L 172,532.33 L 172,533.33 L 172,537.33 L 170,541.33 L 169,542.33 L 168,545.33 L 167,546.33 L 167,547.33 L 166,548.33" fill="none" stroke="#cca700" stroke-width="2"></path><path d="M 159,541.33 L 159,540.33 L 161,539.33 L 168,539.33 L 176,539.33 L 178,539.33 L 179,539.33" fill="none" stroke="#cca700" stroke-width="2"></path><path d="M 197,527.33 L 196,527.33 L 192,529.33 L 190,531.33 L 190,533.33 L 190,536.33 L 190,537.33 L 190,539.33 L 191,543.33 L 194,548.33 L 196,550.33 L 197,551.33 L 196,551.33 L 193,551.33 L 190,551.33 L 186,551.33 L 185,551.33 L 184,551.33" fill="none" stroke="#cca700" stroke-width="2"></path><path d="M 218,537.33 L 218,536.33 L 217,537.33 L 213,541.33 L 210,545.33 L 209,548.33 L 209,551.33 L 209,552.33 L 210,552.33 L 212,552.33 L 217,552.33 L 225,550.33 L 227,549.33 L 230,547.33 L 230,545.33 L 229,543.33 L 227,541.33 L 225,540.33 L 224,540.33 L 221,540.33 L 220,540.33 L 219,540.33" fill="none" stroke="#cca700" stroke-width="2"></path><path d="M 130,614.33 L 130,615.33 L 130,614.33 L 130,612.33 L 130,607.33 L 131,604.33 L 132,598.33 L 134,593.33 L 134,589.33 L 135,586.33 L 136,584.33 L 137,583.33 L 137,585.33 L 137,588.33 L 137,591.33 L 137,599.33 L 136,606.33 L 134,610.33 L 133,615.33 L 132,618.33" fill="none" stroke="#cca700" stroke-width="2"></path><path d="M 121,603.33 L 121,602.33 L 125,602.33 L 128,602.33 L 136,602.33 L 143,602.33 L 148,602.33 L 152,601.33 L 153,601.33 L 154,601.33" fill="none" stroke="#cca700" stroke-width="2"></path><path d="M 172,592.33 L 165,592.33 L 162,594.33 L 159,596.33 L 157,597.33 L 157,600.33 L 157,603.33 L 159,607.33 L 161,611.33 L 164,614.33 L 164,615.33 L 165,616.33 L 165,617.33 L 164,619.33 L 162,620.33 L 160,622.33 L 159,623.33 L 157,623.33 L 156,623.33 L 155,623.33 L 154,621.33 L 153,617.33 L 153,614.33 L 153,611.33 L 157,606.33 L 164,604.33 L 172,601.33 L 175,600.33 L 176,600.33" fill="none" stroke="#cca700" stroke-width="2"></path><path d="M 192,599.33 L 183,601.33 L 180,604.33 L 180,607.33 L 182,612.33 L 186,618.33 L 189,621.33 L 190,622.33 L 189,622.33 L 186,622.33 L 182,622.33 L 181,622.33 L 181,621.33 L 181,620.33 L 181,617.33 L 183,616.33" fill="none" stroke="#cca700" stroke-width="2"></path><path d="M 218,605.33 L 216,605.33 L 212,605.33 L 208,607.33 L 205,611.33 L 205,614.33 L 205,618.33 L 205,620.33 L 206,620.33 L 208,621.33 L 210,621.33 L 212,618.33 L 213,615.33 L 213,612.33 L 213,609.33 L 213,606.33 L 212,605.33" fill="none" stroke="#cca700" stroke-width="2"></path><path d="M 452,453.33" fill="none" stroke="#cca700" stroke-width="2"></path><path d="M 431,462.33 L 431,464.33 L 432,464.33 L 434,466.33 L 436,467.33 L 437,467.33" fill="none" stroke="#cca700" stroke-width="2"></path><path d="M 441,467.33 L 442,467.33 L 443,467.33 L 444,467.33 L 446,467.33 L 449,467.33 L 451,467.33" fill="none" stroke="#cca700" stroke-width="2"></path><path d="M 457,465.33 L 458,465.33 L 459,464.33 L 459,462.33 L 460,459.33 L 460,456.33 L 460,455.33" fill="none" stroke="#cca700" stroke-width="2"></path><path d="M 451,446.33" fill="none" stroke="#cca700" stroke-width="2"></path><path d="M 479,441.33 L 480,441.33 L 480,442.33 L 480,443.33 L 480,447.33" fill="none" stroke="#cca700" stroke-width="2"></path><path d="M 458,461.33" fill="none" stroke="#cca700" stroke-width="2"></path><path d="M 440,447.33 L 440,446.33 L 441,445.33 L 442,444.33 L 444,443.33 L 445,443.33" fill="none" stroke="#cca700" stroke-width="2"></path><path d="M 453,442.33 L 454,442.33 L 456,442.33 L 459,443.33 L 464,443.33 L 469,444.33 L 470,444.33 L 471,445.33 L 471,446.33 L 471,447.33 L 471,448.33 L 471,449.33 L 471,450.33 L 471,451.33 L 471,452.33" fill="none" stroke="#cca700" stroke-width="2"></path><path d="M 463,455.33 L 462,456.33 L 461,456.33 L 459,457.33 L 457,457.33 L 451,458.33 L 449,459.33" fill="none" stroke="#cca700" stroke-width="2"></path><path d="M 441,460.33 L 441,461.33 L 442,461.33 L 443,459.33 L 444,456.33" fill="none" stroke="#cca700" stroke-width="2"></path><path d="M 451,447.33 L 452,447.33 L 455,447.33 L 460,447.33 L 462,447.33 L 464,447.33 L 466,447.33 L 467,447.33 L 467,448.33 L 469,449.33 L 469,450.33" fill="none" stroke="#cca700" stroke-width="2"></path><path d="M 543,530.33 L 544,529.33 L 545,528.33 L 546,528.33" fill="none" stroke="#cca700" stroke-width="2"></path><path d="M 566,528.33" fill="none" stroke="#cca700" stroke-width="2"></path><path d="M 567,533.33 L 566,533.33 L 566,534.33 L 565,535.33 L 561,537.33" fill="none" stroke="#cca700" stroke-width="2"></path><path d="M 543,542.33 L 542,542.33 L 542,543.33 L 541,543.33 L 541,544.33 L 539,544.33" fill="none" stroke="#cca700" stroke-width="2"></path><path d="M 533,544.33 L 533,543.33 L 533,542.33 L 533,538.33 L 533,536.33 L 533,535.33" fill="none" stroke="#cca700" stroke-width="2"></path><path d="M 533,527.33 L 533,525.33 L 534,524.33" fill="none" stroke="#cca700" stroke-width="2"></path><path d="M 535,523.33 L 536,523.33 L 538,523.33 L 541,523.33 L 545,523.33 L 550,524.33 L 552,525.33" fill="none" stroke="#cca700" stroke-width="2"></path><path d="M 556,539.33 L 556,540.33 L 556,541.33 L 556,544.33 L 556,545.33" fill="none" stroke="#cca700" stroke-width="2"></path><path d="M 558,546.33" fill="none" stroke="#cca700" stroke-width="2"></path><path d="M 614,592.33 L 615,591.33 L 617,589.33" fill="none" stroke="#cca700" stroke-width="2"></path><path d="M 625,585.33 L 626,585.33 L 627,585.33 L 628,586.33 L 628,587.33" fill="none" stroke="#cca700" stroke-width="2"></path><path d="M 628,596.33 L 628,597.33" fill="none" stroke="#cca700" stroke-width="2"></path><path d="M 621,600.33 L 620,600.33 L 619,601.33 L 618,601.33 L 617,601.33 L 615,601.33 L 613,601.33" fill="none" stroke="#cca700" stroke-width="2"></path><path d="M 606,591.33 L 606,589.33 L 606,588.33 L 606,586.33 L 606,583.33 L 606,581.33" fill="none" stroke="#cca700" stroke-width="2"></path><path d="M 621,586.33" fill="none" stroke="#cca700" stroke-width="2"></path><path d="M 624,592.33 L 625,592.33 L 626,594.33" fill="none" stroke="#cca700" stroke-width="2"></path><path d="M 625,598.33 L 625,599.33 L 625,601.33 L 625,602.33" fill="none" stroke="#cca700" stroke-width="2"></path><path d="M 580,606.33 L 581,606.33 L 581,608.33 L 581,609.33 L 581,610.33 L 581,611.33 L 580,611.33 L 579,611.33 L 578,611.33 L 577,611.33 L 577,609.33 L 577,608.33 L 580,608.33 L 582,608.33 L 583,608.33 L 583,610.33 L 583,612.33 L 582,613.33 L 581,614.33 L 580,614.33 L 579,614.33 L 578,614.33 L 577,614.33 L 576,613.33 L 576,612.33 L 576,610.33 L 577,610.33 L 582,609.33 L 584,609.33 L 585,609.33 L 585,610.33 L 585,611.33 L 585,612.33 L 584,614.33 L 583,614.33 L 582,614.33 L 581,614.33 L 580,614.33 L 579,613.33 L 579,612.33 L 579,611.33 L 581,609.33 L 582,609.33 L 584,609.33 L 585,609.33 L 586,609.33 L 586,610.33 L 586,611.33 L 584,613.33 L 582,614.33 L 580,614.33 L 577,614.33 L 576,614.33 L 576,613.33 L 576,612.33 L 576,611.33 L 577,610.33 L 579,609.33 L 580,609.33 L 581,609.33" fill="none" stroke="#cca700" stroke-width="2"></path><path d="M 585,594.33 L 585,593.33 L 585,591.33 L 585,587.33 L 585,581.33 L 585,569.33 L 585,558.33 L 587,548.33 L 588,539.33 L 591,528.33 L 593,519.33 L 595,509.33 L 595,504.33 L 595,501.33 L 596,499.33 L 597,498.33" fill="none" stroke="#cca700" stroke-width="2"></path><path d="M 570,481.33 L 572,481.33 L 576,480.33 L 579,480.33 L 584,479.33 L 589,479.33 L 592,479.33 L 593,479.33 L 594,480.33 L 595,482.33 L 596,484.33 L 596,487.33 L 597,491.33 L 597,492.33 L 597,494.33 L 598,495.33 L 599,498.33 L 601,499.33 L 602,500.33 L 606,501.33 L 608,501.33" fill="none" stroke="#cca700" stroke-width="2"></path><path d="M 573,421.33 L 572,421.33 L 571,421.33 L 569,426.33 L 569,428.33 L 568,432.33 L 567,436.33 L 567,439.33 L 567,441.33 L 567,442.33" fill="none" stroke="#cca700" stroke-width="2"></path><path d="M 564,398.33 L 564,397.33 L 565,397.33 L 568,397.33" fill="none" stroke="#cca700" stroke-width="2"></path><path d="M 586,423.33 L 586,424.33 L 585,426.33 L 584,429.33 L 583,431.33 L 583,432.33 L 583,431.33 L 583,430.33 L 586,425.33 L 588,422.33 L 590,420.33 L 591,420.33 L 592,420.33 L 593,420.33 L 595,420.33 L 595,421.33 L 596,425.33 L 597,427.33 L 597,429.33 L 597,431.33 L 597,432.33 L 596,433.33 L 596,435.33 L 595,435.33" fill="none" stroke="#cca700" stroke-width="2"></path><path d="M 619,423.33 L 618,423.33 L 615,424.33 L 610,426.33 L 607,429.33 L 606,431.33 L 604,433.33 L 604,435.33 L 604,437.33 L 604,439.33 L 605,440.33 L 607,441.33 L 608,441.33 L 610,441.33 L 613,441.33 L 615,441.33 L 618,441.33 L 621,441.33 L 621,440.33 L 621,439.33" fill="none" stroke="#cca700" stroke-width="2"></path><path d="M 640,428.33 L 638,428.33 L 633,428.33 L 627,429.33 L 624,431.33 L 623,434.33 L 623,436.33 L 623,438.33 L 623,440.33 L 625,441.33 L 627,441.33 L 629,441.33 L 631,441.33 L 632,440.33 L 633,439.33 L 633,437.33 L 633,436.33 L 634,433.33 L 634,432.33" fill="none" stroke="#cca700" stroke-width="2"></path><path d="M 653,426.33 L 654,426.33 L 654,429.33 L 652,433.33 L 650,436.33 L 647,439.33 L 645,441.33 L 644,442.33 L 643,443.33 L 642,443.33 L 642,442.33 L 643,439.33 L 646,436.33 L 650,434.33 L 655,433.33 L 657,432.33 L 658,432.33 L 660,432.33 L 661,432.33 L 661,433.33 L 661,435.33 L 661,440.33 L 660,442.33 L 659,443.33 L 658,444.33" fill="none" stroke="#cca700" stroke-width="2"></path><path d="M 673,431.33 L 673,433.33 L 673,436.33 L 672,439.33 L 669,442.33 L 668,443.33 L 667,445.33 L 667,444.33 L 667,443.33 L 669,441.33 L 672,438.33 L 677,435.33 L 683,435.33 L 685,435.33 L 686,435.33 L 687,435.33 L 687,436.33 L 687,437.33 L 687,440.33 L 687,442.33 L 686,444.33 L 685,445.33 L 684,446.33 L 683,447.33" fill="none" stroke="#cca700" stroke-width="2"></path><path d="M 703,435.33 L 702,436.33 L 700,438.33 L 696,441.33 L 694,443.33 L 693,445.33 L 693,446.33 L 693,447.33 L 693,448.33 L 694,448.33 L 695,448.33 L 701,448.33 L 708,446.33 L 711,444.33 L 712,444.33 L 713,442.33 L 713,443.33 L 713,444.33 L 713,445.33 L 713,446.33 L 713,447.33 L 714,447.33 L 715,448.33 L 717,450.33" fill="none" stroke="#cca700" stroke-width="2"></path></svg>