<svg id="svg" xmlns="http://www.w3.org/2000/svg" viewBox="76 85.33000183105469 536 489" height="489"><path d="M 300,173.33 L 299,172.33 L 299,169.33 L 299,166.33 L 299,160.33 L 299,157.33 L 299,153.33 L 299,149.33 L 299,145.33 L 299,144.33 L 301,142.33 L 302,141.33 L 303,141.33 L 305,142.33 L 306,144.33 L 308,148.33 L 311,154.33 L 313,157.33 L 313,160.33 L 313,161.33 L 315,163.33 L 315,162.33 L 315,159.33 L 316,153.33 L 319,146.33 L 323,138.33 L 324,135.33 L 324,133.33 L 325,133.33 L 328,135.33 L 328,138.33 L 328,143.33 L 330,151.33 L 332,161.33 L 332,163.33 L 332,164.33 L 331,164.33" fill="none" stroke="#3794ff" stroke-width="2"></path><path d="M 352,147.33 L 350,147.33 L 350,149.33 L 349,152.33 L 349,156.33 L 349,158.33 L 349,159.33 L 349,161.33 L 349,162.33 L 349,163.33 L 349,164.33 L 349,165.33 L 350,166.33 L 351,166.33 L 352,166.33 L 353,166.33 L 355,166.33 L 355,165.33 L 355,164.33 L 355,162.33 L 355,160.33 L 355,158.33 L 355,155.33 L 355,154.33 L 355,153.33 L 355,152.33 L 355,150.33 L 356,149.33 L 357,149.33 L 358,150.33 L 359,153.33 L 360,158.33 L 360,162.33 L 361,164.33 L 362,166.33 L 363,166.33" fill="none" stroke="#3794ff" stroke-width="2"></path><path d="M 376,142.33 L 375,142.33 L 373,142.33 L 372,144.33 L 372,149.33 L 374,154.33 L 377,158.33 L 381,162.33 L 385,163.33 L 386,163.33 L 387,164.33 L 387,165.33 L 387,166.33 L 385,168.33 L 381,168.33 L 376,168.33 L 372,168.33 L 371,168.33 L 370,168.33 L 370,166.33" fill="none" stroke="#3794ff" stroke-width="2"></path><path d="M 398,120.33 L 398,121.33 L 398,125.33 L 398,134.33 L 398,146.33 L 398,155.33 L 398,160.33 L 398,163.33 L 398,166.33 L 398,168.33" fill="none" stroke="#3794ff" stroke-width="2"></path><path d="M 393,139.33 L 394,139.33 L 397,139.33 L 400,139.33 L 403,139.33 L 406,139.33 L 407,138.33" fill="none" stroke="#3794ff" stroke-width="2"></path><path d="M 407,158.33 L 408,158.33 L 411,158.33 L 413,159.33 L 417,159.33 L 418,159.33 L 421,159.33 L 421,157.33 L 421,156.33 L 421,154.33 L 419,152.33 L 418,152.33 L 415,152.33 L 414,152.33 L 413,156.33 L 413,157.33 L 413,160.33 L 413,163.33 L 413,164.33 L 414,165.33 L 415,166.33 L 417,166.33 L 419,166.33 L 420,166.33 L 425,165.33 L 426,165.33" fill="none" stroke="#3794ff" stroke-width="2"></path><path d="M 431,154.33 L 432,157.33 L 433,159.33 L 433,162.33 L 431,164.33 L 429,164.33 L 427,164.33 L 425,163.33 L 424,159.33 L 424,155.33 L 424,151.33 L 428,146.33 L 442,142.33 L 446,141.33 L 447,141.33 L 449,141.33" fill="none" stroke="#3794ff" stroke-width="2"></path><path d="M 249,95.33 L 250,97.33 L 251,103.33 L 252,118.33 L 256,138.33 L 260,158.33 L 267,177.33 L 271,186.33 L 277,194.33 L 289,205.33 L 297,210.33 L 303,214.33 L 312,216.33 L 326,219.33 L 339,220.33 L 353,220.33 L 364,220.33 L 374,223.33 L 382,223.33 L 389,223.33 L 401,223.33 L 411,223.33 L 425,223.33 L 437,225.33 L 447,225.33 L 455,227.33 L 461,227.33 L 462,227.33 L 463,227.33 L 463,226.33 L 463,220.33 L 464,212.33 L 465,195.33 L 468,181.33 L 470,168.33 L 474,152.33 L 480,136.33 L 482,126.33 L 482,120.33 L 482,114.33 L 482,110.33 L 482,106.33 L 482,104.33 L 482,103.33 L 482,102.33 L 480,102.33 L 465,102.33 L 441,102.33 L 415,102.33 L 388,104.33 L 365,105.33 L 343,105.33 L 319,105.33 L 303,105.33 L 285,105.33 L 281,105.33 L 278,105.33 L 277,105.33" fill="none" stroke="#3794ff" stroke-width="2"></path><path d="M 352,225.33 L 353,225.33 L 354,225.33 L 355,228.33 L 356,232.33 L 356,235.33 L 359,241.33 L 359,247.33 L 359,254.33 L 359,259.33 L 359,269.33 L 359,274.33 L 359,282.33 L 359,289.33 L 359,299.33 L 359,306.33 L 359,309.33 L 359,311.33 L 359,313.33 L 359,314.33 L 359,315.33 L 360,315.33" fill="none" stroke="#3794ff" stroke-width="2"></path><path d="M 358,316.33 L 356,315.33 L 350,315.33 L 340,315.33 L 327,315.33 L 312,315.33 L 296,315.33 L 280,315.33 L 263,315.33 L 240,315.33 L 228,315.33 L 217,315.33 L 213,315.33 L 211,315.33 L 210,315.33 L 208,315.33 L 207,315.33 L 206,315.33 L 204,315.33 L 199,315.33 L 196,315.33 L 194,315.33 L 191,315.33 L 186,315.33 L 182,315.33 L 179,315.33 L 176,315.33 L 175,315.33 L 174,315.33 L 173,316.33 L 173,321.33 L 173,331.33 L 173,351.33 L 173,372.33 L 176,387.33 L 176,401.33 L 176,412.33 L 178,419.33 L 178,422.33 L 178,425.33 L 179,427.33 L 179,429.33 L 180,430.33 L 182,431.33" fill="none" stroke="#3794ff" stroke-width="2"></path><path d="M 356,318.33 L 358,318.33 L 359,327.33 L 359,335.33 L 359,342.33 L 359,346.33 L 359,347.33 L 359,349.33 L 361,351.33 L 361,353.33 L 361,356.33 L 361,358.33 L 361,363.33 L 361,369.33 L 361,373.33 L 361,377.33 L 362,379.33 L 362,380.33 L 363,382.33" fill="none" stroke="#3794ff" stroke-width="2"></path><path d="M 370,314.33 L 378,313.33 L 389,313.33 L 410,313.33 L 441,313.33 L 468,313.33 L 492,313.33 L 514,313.33 L 530,313.33 L 536,313.33 L 537,313.33 L 538,313.33 L 538,316.33 L 538,320.33 L 538,330.33 L 538,345.33 L 538,365.33 L 538,376.33 L 542,385.33 L 544,389.33 L 544,391.33 L 544,392.33 L 544,393.33 L 544,395.33 L 545,396.33 L 545,397.33 L 545,398.33 L 545,399.33 L 544,400.33" fill="none" stroke="#3794ff" stroke-width="2"></path><path d="M 142,454.33 L 138,454.33 L 135,455.33 L 134,457.33 L 134,460.33 L 135,466.33 L 139,470.33 L 142,473.33 L 150,479.33 L 155,482.33 L 158,484.33 L 161,487.33 L 162,487.33 L 162,489.33 L 162,491.33 L 162,492.33 L 162,493.33 L 159,493.33 L 156,493.33 L 151,493.33 L 147,493.33 L 145,492.33 L 144,491.33 L 144,489.33 L 144,485.33 L 145,482.33" fill="none" stroke="#3794ff" stroke-width="2"></path><path d="M 187,437.33 L 186,438.33 L 186,443.33 L 186,454.33 L 186,462.33 L 184,472.33 L 184,475.33 L 184,477.33 L 184,478.33" fill="none" stroke="#3794ff" stroke-width="2"></path><path d="M 200,466.33 L 197,466.33 L 192,466.33 L 190,466.33 L 188,469.33 L 188,472.33 L 188,474.33 L 188,475.33 L 191,475.33 L 193,475.33 L 196,473.33 L 197,473.33 L 198,472.33 L 199,473.33 L 199,476.33 L 200,477.33 L 201,479.33 L 201,477.33" fill="none" stroke="#3794ff" stroke-width="2"></path><path d="M 204,459.33 L 206,463.33 L 207,470.33 L 209,475.33 L 210,481.33 L 210,484.33 L 212,486.33 L 212,487.33 L 214,482.33 L 216,476.33 L 217,470.33 L 219,466.33 L 220,464.33 L 220,463.33" fill="none" stroke="#3794ff" stroke-width="2"></path><path d="M 234,473.33 L 237,474.33 L 239,474.33 L 240,473.33 L 240,472.33 L 240,470.33 L 239,469.33 L 237,468.33 L 235,467.33 L 230,466.33 L 227,466.33 L 225,470.33 L 225,474.33 L 225,479.33 L 225,481.33 L 226,484.33 L 230,487.33 L 234,490.33 L 239,490.33 L 241,490.33 L 242,489.33 L 242,487.33 L 243,485.33 L 243,484.33 L 244,482.33 L 244,479.33 L 243,476.33" fill="none" stroke="#3794ff" stroke-width="2"></path><path d="M 182,429.33 L 176,428.33 L 168,428.33 L 157,428.33 L 144,428.33 L 132,428.33 L 121,428.33 L 111,428.33 L 101,428.33 L 92,428.33 L 88,428.33 L 87,428.33 L 86,428.33 L 86,430.33 L 88,441.33 L 91,459.33 L 99,479.33 L 101,489.33 L 104,496.33 L 105,499.33 L 105,501.33 L 105,504.33 L 108,517.33 L 112,528.33 L 115,532.33 L 118,535.33 L 122,538.33 L 132,540.33 L 142,543.33 L 158,545.33 L 177,547.33 L 195,547.33 L 213,547.33 L 228,547.33 L 241,546.33 L 247,544.33 L 251,540.33 L 254,536.33 L 258,528.33 L 264,520.33 L 270,512.33 L 276,503.33 L 281,494.33 L 284,486.33 L 285,479.33 L 285,475.33 L 285,469.33 L 284,463.33 L 280,454.33 L 275,446.33 L 269,439.33 L 262,433.33 L 253,428.33 L 239,423.33 L 223,416.33 L 208,412.33 L 191,409.33 L 176,409.33 L 159,409.33 L 154,409.33 L 151,409.33 L 148,410.33 L 147,411.33 L 144,414.33 L 142,416.33 L 141,418.33 L 141,420.33 L 141,421.33" fill="none" stroke="#3794ff" stroke-width="2"></path><path d="M 358,381.33 L 358,383.33 L 359,384.33 L 359,386.33 L 359,392.33 L 361,401.33 L 363,407.33 L 363,408.33 L 365,410.33 L 365,411.33 L 365,412.33 L 365,413.33 L 365,414.33 L 365,415.33 L 365,416.33 L 365,418.33 L 365,419.33 L 365,420.33 L 365,422.33 L 365,424.33 L 365,425.33 L 365,428.33 L 365,432.33 L 365,435.33 L 365,438.33 L 365,439.33 L 365,441.33 L 365,442.33 L 365,443.33 L 365,444.33 L 365,445.33 L 365,446.33 L 358,446.33 L 348,444.33 L 343,444.33 L 339,443.33 L 334,443.33 L 328,441.33 L 322,441.33 L 318,441.33 L 317,441.33 L 316,440.33 L 316,442.33 L 316,444.33 L 316,447.33 L 317,457.33 L 317,478.33 L 317,490.33 L 317,502.33 L 317,512.33 L 317,519.33 L 317,526.33 L 317,534.33 L 316,541.33 L 315,545.33 L 315,547.33 L 315,551.33 L 315,555.33 L 315,559.33 L 317,562.33 L 321,564.33 L 323,564.33 L 329,564.33 L 340,564.33 L 349,564.33 L 363,563.33 L 374,562.33 L 384,562.33 L 390,560.33 L 394,559.33 L 395,559.33 L 397,559.33 L 398,558.33 L 400,557.33 L 401,556.33 L 403,554.33 L 404,550.33 L 408,540.33 L 411,528.33 L 416,513.33 L 418,497.33 L 418,483.33 L 418,475.33 L 420,470.33 L 420,466.33 L 421,463.33 L 421,460.33 L 421,458.33 L 421,457.33 L 421,455.33 L 421,452.33 L 421,450.33 L 409,446.33 L 396,446.33 L 378,443.33 L 361,441.33 L 349,438.33 L 344,438.33 L 341,438.33 L 340,438.33 L 340,439.33" fill="none" stroke="#3794ff" stroke-width="2"></path><path d="M 546,396.33 L 546,398.33 L 546,401.33 L 547,409.33 L 548,415.33 L 548,421.33 L 548,425.33 L 548,429.33 L 548,433.33 L 548,438.33 L 548,441.33 L 548,445.33 L 548,449.33 L 548,450.33 L 548,453.33 L 548,454.33 L 548,456.33 L 548,458.33 L 548,459.33 L 548,460.33 L 540,458.33 L 524,455.33 L 510,453.33 L 502,452.33 L 496,451.33 L 493,451.33 L 491,451.33 L 490,451.33 L 488,451.33 L 487,451.33 L 487,453.33 L 487,455.33 L 487,460.33 L 487,465.33 L 487,472.33 L 487,479.33 L 487,490.33 L 487,500.33 L 487,509.33 L 487,514.33 L 487,518.33 L 487,523.33 L 487,527.33 L 487,530.33 L 488,533.33 L 489,535.33 L 492,542.33 L 496,546.33 L 500,549.33 L 506,551.33 L 513,551.33 L 518,551.33 L 524,551.33 L 528,551.33 L 535,551.33 L 541,551.33 L 550,551.33 L 561,550.33 L 570,549.33 L 581,547.33 L 587,546.33 L 590,545.33 L 592,544.33 L 592,543.33 L 594,543.33 L 595,542.33 L 595,540.33 L 597,536.33 L 599,530.33 L 601,525.33 L 601,517.33 L 601,509.33 L 601,501.33 L 601,493.33 L 601,483.33 L 602,482.33 L 602,479.33 L 602,477.33 L 602,475.33 L 602,472.33 L 602,470.33 L 602,467.33 L 602,465.33 L 601,463.33 L 595,461.33 L 586,461.33 L 565,461.33 L 552,461.33 L 544,461.33 L 539,461.33" fill="none" stroke="#3794ff" stroke-width="2"></path><path d="M 370,484.33 L 363,483.33 L 359,483.33 L 357,483.33 L 357,485.33 L 359,491.33 L 364,498.33 L 368,503.33 L 371,505.33 L 373,506.33 L 373,507.33 L 373,509.33 L 371,511.33 L 366,511.33 L 360,511.33 L 358,511.33 L 357,511.33 L 355,511.33 L 355,510.33 L 355,509.33 L 355,507.33 L 358,506.33" fill="none" stroke="#3794ff" stroke-width="2"></path><path d="M 550,488.33 L 550,487.33 L 548,486.33 L 543,486.33 L 537,486.33 L 535,486.33 L 534,487.33 L 534,495.33 L 537,503.33 L 541,508.33 L 544,513.33 L 545,514.33 L 547,516.33 L 547,517.33 L 547,519.33 L 545,521.33 L 541,521.33 L 538,521.33 L 535,521.33 L 534,520.33 L 532,519.33 L 531,519.33 L 530,517.33" fill="none" stroke="#3794ff" stroke-width="2"></path></svg>