<svg id="svg" xmlns="http://www.w3.org/2000/svg" viewBox="7 30.330001831054688 842 564" height="564"><path d="M 130,100.33 L 131,100.33 L 133,102.33 L 133,107.33 L 134,110.33 L 136,115.33 L 137,117.33 L 137,121.33 L 137,123.33 L 137,129.33 L 137,132.33 L 137,133.33" fill="none" stroke="#1a85ff" stroke-width="2"></path><path d="M 128,92.33 L 128,91.33 L 128,90.33 L 130,90.33" fill="none" stroke="#1a85ff" stroke-width="2"></path><path d="M 150,110.33 L 144,112.33 L 142,114.33 L 141,116.33 L 142,121.33 L 144,122.33 L 146,124.33 L 151,124.33 L 158,122.33 L 167,115.33 L 173,107.33 L 178,99.33 L 179,92.33 L 179,85.33 L 179,79.33 L 179,75.33 L 179,73.33 L 179,75.33 L 179,82.33 L 179,96.33 L 178,115.33 L 177,134.33 L 177,150.33 L 177,157.33 L 177,159.33 L 177,160.33" fill="none" stroke="#1a85ff" stroke-width="2"></path><path d="M 101,51.33 L 102,51.33 L 102,54.33 L 104,59.33 L 104,66.33 L 104,80.33 L 104,93.33 L 104,106.33 L 104,120.33 L 104,137.33 L 104,151.33 L 106,169.33 L 108,184.33 L 108,198.33 L 108,212.33 L 108,225.33 L 108,241.33 L 108,257.33 L 108,269.33 L 108,286.33 L 108,300.33 L 108,323.33 L 109,339.33 L 110,354.33 L 110,369.33 L 110,385.33 L 110,404.33 L 110,422.33 L 110,441.33 L 110,457.33 L 113,477.33 L 114,499.33 L 117,515.33 L 119,528.33 L 122,533.33 L 122,535.33 L 122,537.33 L 123,539.33 L 123,540.33 L 123,541.33" fill="none" stroke="#1a85ff" stroke-width="2"></path><path d="M 106,47.33 L 108,47.33 L 121,48.33 L 150,49.33 L 190,52.33 L 231,52.33 L 270,53.33 L 299,53.33 L 327,54.33 L 349,57.33 L 366,58.33 L 387,59.33 L 405,59.33 L 425,59.33 L 433,59.33 L 441,59.33 L 450,59.33 L 458,59.33 L 469,59.33 L 478,59.33 L 488,59.33 L 494,59.33 L 499,59.33 L 508,59.33 L 523,59.33 L 551,63.33 L 572,65.33 L 594,66.33 L 612,66.33 L 625,66.33 L 630,66.33 L 635,66.33 L 639,66.33 L 644,66.33 L 651,64.33 L 662,63.33 L 676,63.33 L 702,63.33 L 713,63.33 L 719,63.33 L 725,62.33 L 731,59.33 L 745,59.33 L 765,59.33 L 781,59.33 L 789,58.33 L 790,58.33 L 791,58.33 L 792,58.33 L 793,58.33 L 795,58.33 L 795,59.33 L 795,61.33 L 797,64.33 L 803,73.33 L 808,80.33 L 810,82.33 L 811,83.33 L 813,87.33 L 817,101.33 L 826,122.33 L 834,144.33 L 839,171.33 L 839,576.33 L 839,577.33 L 838,580.33 L 837,582.33 L 837,583.33 L 835,584.33 L 834,584.33 L 824,572.33 L 814,558.33 L 806,549.33 L 798,541.33 L 796,539.33 L 790,537.33 L 786,534.33 L 778,534.33 L 763,533.33 L 747,530.33 L 735,530.33 L 724,530.33 L 711,530.33 L 696,529.33 L 677,525.33 L 660,524.33 L 642,523.33 L 626,523.33 L 602,520.33 L 586,520.33 L 571,520.33 L 557,520.33 L 541,520.33 L 521,520.33 L 501,520.33 L 480,520.33 L 460,520.33 L 440,517.33 L 424,517.33 L 404,517.33 L 374,515.33 L 358,513.33 L 339,512.33 L 326,512.33 L 311,512.33 L 295,512.33 L 279,512.33 L 266,512.33 L 256,512.33 L 248,512.33 L 238,512.33 L 230,512.33 L 220,512.33 L 213,512.33 L 207,513.33 L 200,514.33 L 193,514.33 L 187,514.33 L 180,516.33 L 173,516.33 L 167,517.33 L 161,518.33 L 156,518.33 L 153,519.33 L 148,519.33 L 144,522.33 L 141,523.33 L 135,525.33 L 130,528.33 L 125,531.33 L 122,533.33 L 120,534.33 L 119,534.33 L 118,534.33 L 116,531.33 L 114,523.33 L 112,508.33" fill="none" stroke="#1a85ff" stroke-width="2"></path><path d="M 110,174.33 L 111,175.33 L 121,175.33 L 140,175.33 L 168,176.33 L 206,178.33 L 285,191.33 L 337,198.33 L 379,201.33 L 413,207.33 L 441,211.33 L 462,214.33 L 488,218.33 L 509,218.33 L 529,218.33 L 547,218.33 L 563,218.33 L 581,218.33 L 613,218.33 L 635,218.33 L 652,218.33 L 669,218.33 L 688,217.33 L 704,215.33 L 722,211.33 L 737,209.33 L 748,205.33 L 756,202.33 L 764,201.33 L 771,200.33 L 778,198.33 L 782,198.33 L 786,197.33 L 791,197.33 L 799,196.33 L 807,193.33 L 811,193.33 L 815,193.33 L 820,192.33 L 821,192.33 L 823,192.33 L 825,192.33 L 827,192.33" fill="none" stroke="#1a85ff" stroke-width="2"></path><text font-family="inherit" font-size="14" fill="#1a85ff" x="123" y="207.33">user_AD</text><text font-family="inherit" font-size="14" fill="#1a85ff" x="54" y="269.33">F</text><path d="M 227,54.33 L 228,62.33 L 231,84.33 L 234,110.33 L 234,141.33 L 235,183.33 L 236,233.33 L 241,283.33 L 249,338.33 L 261,392.33 L 268,422.33 L 271,441.33 L 271,458.33 L 271,465.33 L 271,470.33 L 271,475.33 L 271,479.33 L 271,483.33 L 271,487.33 L 271,493.33 L 271,496.33 L 270,500.33 L 270,501.33 L 269,504.33 L 269,505.33 L 269,507.33 L 269,508.33 L 269,509.33 L 269,510.33" fill="none" stroke="#1a85ff" stroke-width="2"></path><path d="M 65,265.33 L 66,265.33 L 68,265.33 L 69,265.33 L 70,262.33 L 70,260.33 L 71,255.33 L 71,252.33 L 71,247.33 L 71,242.33 L 71,241.33 L 71,239.33 L 72,236.33 L 72,235.33 L 72,234.33 L 72,233.33 L 73,233.33 L 74,233.33 L 77,233.33 L 80,233.33 L 86,233.33 L 93,233.33 L 97,233.33 L 104,234.33 L 107,234.33 L 109,235.33 L 110,235.33" fill="none" stroke="#1a85ff" stroke-width="2"></path><path d="M 66,265.33 L 67,265.33 L 68,266.33 L 68,268.33 L 68,273.33 L 68,281.33 L 67,285.33 L 67,289.33 L 67,291.33 L 67,293.33 L 67,294.33 L 66,295.33 L 66,296.33 L 66,297.33 L 66,298.33 L 66,299.33 L 66,301.33 L 66,302.33 L 66,303.33 L 67,304.33 L 73,304.33 L 83,304.33 L 95,304.33 L 103,304.33 L 109,304.33 L 113,304.33 L 116,306.33 L 118,306.33 L 119,306.33" fill="none" stroke="#1a85ff" stroke-width="2"></path><path d="M 19,407.33 L 18,407.33 L 18,406.33 L 18,404.33 L 18,400.33 L 22,395.33 L 24,390.33 L 26,386.33 L 28,380.33 L 29,377.33 L 30,375.33 L 30,374.33 L 33,378.33 L 34,384.33 L 35,394.33 L 38,401.33 L 38,404.33 L 38,405.33 L 38,406.33 L 39,406.33 L 41,403.33 L 42,400.33 L 44,393.33 L 45,390.33 L 45,385.33 L 45,383.33 L 46,381.33" fill="none" stroke="#1a85ff" stroke-width="2"></path><path d="M 25,438.33 L 26,438.33 L 29,438.33 L 31,438.33 L 32,438.33 L 34,438.33 L 35,438.33 L 37,439.33 L 40,441.33 L 43,441.33" fill="none" stroke="#1a85ff" stroke-width="2"></path><path d="M 17,461.33 L 17,462.33 L 17,463.33 L 20,464.33 L 26,466.33 L 31,468.33 L 37,470.33 L 38,470.33 L 39,471.33 L 39,472.33 L 39,476.33 L 39,478.33 L 39,482.33 L 38,484.33 L 36,486.33 L 36,487.33 L 37,487.33 L 39,487.33 L 42,487.33 L 43,487.33 L 44,487.33 L 45,487.33" fill="none" stroke="#1a85ff" stroke-width="2"></path><path d="M 58,388.33 L 58,385.33 L 58,382.33 L 58,379.33 L 58,375.33 L 58,373.33 L 58,372.33 L 62,372.33 L 70,372.33 L 79,372.33 L 84,372.33 L 86,372.33 L 87,372.33 L 88,372.33 L 91,372.33 L 95,372.33 L 99,372.33 L 104,372.33 L 105,372.33 L 107,372.33" fill="none" stroke="#1a85ff" stroke-width="2"></path><path d="M 62,385.33 L 62,386.33 L 62,390.33 L 62,394.33 L 62,401.33 L 62,409.33 L 62,413.33 L 62,419.33 L 62,423.33 L 62,426.33 L 62,428.33 L 62,430.33 L 62,431.33 L 62,432.33 L 62,433.33 L 65,434.33 L 73,434.33 L 83,434.33 L 93,434.33 L 103,434.33 L 111,434.33 L 114,434.33" fill="none" stroke="#1a85ff" stroke-width="2"></path><path d="M 51,466.33 L 51,469.33 L 51,473.33 L 51,479.33 L 51,485.33 L 51,491.33 L 51,496.33 L 51,500.33 L 51,503.33 L 51,508.33 L 51,509.33 L 50,510.33 L 50,511.33 L 54,512.33 L 64,512.33 L 74,513.33 L 92,516.33 L 104,517.33 L 114,517.33 L 118,517.33 L 120,517.33" fill="none" stroke="#1a85ff" stroke-width="2"></path><path d="M 48,468.33 L 48,467.33 L 48,466.33 L 51,466.33 L 56,464.33 L 66,464.33 L 80,464.33 L 97,464.33 L 104,464.33 L 108,464.33 L 110,464.33 L 112,464.33 L 113,464.33" fill="none" stroke="#1a85ff" stroke-width="2"></path><path d="M 310,40.33" fill="none" stroke="#1a85ff" stroke-width="2"></path></svg>