<svg id="svg" xmlns="http://www.w3.org/2000/svg" viewBox="17 -6.670000076293945 768 513.0000305175781" height="513.0000305175781"><path d="M 199,121.33" fill="none" stroke="#3794ff" stroke-width="2"></path><path d="M 46,231.33 L 46,232.33 L 47,237.33 L 48,250.33 L 50,263.33 L 52,277.33 L 55,298.33 L 57,309.33 L 59,319.33 L 60,329.33 L 61,341.33 L 63,357.33 L 63,375.33 L 64,390.33 L 64,399.33 L 65,405.33 L 65,406.33 L 66,409.33 L 66,415.33 L 66,426.33 L 66,437.33 L 64,449.33 L 63,459.33 L 63,463.33 L 63,467.33 L 63,470.33 L 63,474.33 L 63,476.33 L 63,477.33 L 63,479.33 L 63,481.33 L 63,483.33 L 63,484.33 L 63,486.33 L 63,487.33 L 65,487.33 L 69,487.33 L 84,487.33 L 103,487.33 L 132,487.33 L 147,488.33 L 157,491.33 L 163,493.33 L 166,494.33 L 167,495.33 L 168,495.33 L 168,496.33 L 169,496.33 L 170,496.33 L 171,496.33 L 172,496.33 L 173,496.33 L 175,496.33 L 178,494.33 L 181,485.33 L 183,472.33 L 184,455.33 L 184,436.33 L 184,415.33 L 184,394.33 L 184,369.33 L 184,331.33 L 184,313.33 L 181,293.33 L 179,285.33 L 179,281.33 L 178,278.33 L 177,275.33 L 177,274.33 L 177,273.33 L 177,271.33 L 177,269.33 L 177,264.33 L 177,260.33 L 177,255.33 L 176,249.33 L 173,242.33 L 172,238.33 L 170,233.33 L 168,230.33 L 167,228.33 L 164,228.33 L 161,227.33 L 154,225.33 L 146,224.33 L 139,224.33 L 129,224.33 L 113,224.33 L 100,224.33 L 87,224.33 L 77,224.33 L 64,224.33 L 56,224.33 L 50,224.33 L 47,224.33 L 46,223.33" fill="none" stroke="#3794ff" stroke-width="2"></path><path d="M 52,176.33 L 52,175.33 L 51,175.33 L 45,175.33 L 39,176.33 L 34,179.33 L 29,183.33 L 27,187.33 L 27,191.33 L 27,195.33 L 27,197.33 L 27,199.33 L 28,199.33 L 29,199.33 L 34,199.33 L 39,195.33 L 44,190.33 L 48,184.33 L 49,180.33 L 49,177.33 L 49,176.33 L 48,186.33 L 47,192.33 L 47,198.33 L 47,199.33 L 47,201.33 L 49,201.33 L 51,200.33 L 55,198.33" fill="none" stroke="#3794ff" stroke-width="2"></path><path d="M 83,177.33 L 83,176.33 L 80,176.33 L 75,176.33 L 70,178.33 L 65,181.33 L 60,185.33 L 60,186.33 L 60,188.33 L 60,190.33 L 60,193.33 L 60,195.33 L 61,196.33 L 62,196.33 L 66,196.33 L 71,196.33 L 73,196.33 L 75,195.33 L 76,195.33 L 77,193.33 L 79,189.33" fill="none" stroke="#3794ff" stroke-width="2"></path><path d="M 108,135.33 L 108,136.33 L 108,143.33 L 108,151.33 L 108,161.33 L 107,171.33 L 106,184.33 L 106,187.33 L 106,188.33 L 106,189.33 L 105,189.33" fill="none" stroke="#3794ff" stroke-width="2"></path><path d="M 91,163.33 L 91,162.33 L 95,161.33 L 101,161.33 L 108,161.33 L 115,161.33 L 117,161.33 L 118,161.33" fill="none" stroke="#3794ff" stroke-width="2"></path><path d="M 119,173.33 L 119,174.33 L 120,174.33 L 120,176.33 L 120,177.33 L 120,178.33 L 121,180.33 L 121,183.33 L 121,185.33 L 121,189.33 L 121,191.33 L 121,192.33" fill="none" stroke="#3794ff" stroke-width="2"></path><path d="M 118,170.33 L 118,169.33 L 118,169.33 L 118,169.33 L 119,168.33 L 120,167.33" fill="none" stroke="#3794ff" stroke-width="2"></path><path d="M 136,168.33 L 136,174.33 L 137,179.33 L 138,185.33 L 138,186.33 L 140,189.33 L 140,190.33 L 141,190.33 L 142,189.33 L 145,183.33 L 147,179.33" fill="none" stroke="#3794ff" stroke-width="2"></path><path d="M 152,170.33 L 153,169.33 L 153,170.33 L 153,175.33 L 153,179.33 L 153,184.33 L 153,185.33 L 153,187.33 L 153,188.33 L 153,189.33 L 152,190.33" fill="none" stroke="#3794ff" stroke-width="2"></path><path d="M 152,158.33" fill="none" stroke="#3794ff" stroke-width="2"></path><path d="M 174,133.33 L 174,135.33 L 174,138.33 L 174,140.33 L 174,147.33 L 174,156.33 L 173,163.33 L 172,168.33 L 172,171.33 L 171,176.33 L 171,179.33 L 170,180.33" fill="none" stroke="#3794ff" stroke-width="2"></path><path d="M 152,155.33 L 152,154.33 L 154,154.33 L 163,153.33 L 171,153.33 L 179,153.33 L 185,153.33 L 189,153.33" fill="none" stroke="#3794ff" stroke-width="2"></path><path d="M 187,170.33 L 187,171.33 L 188,172.33 L 188,173.33 L 189,174.33 L 190,175.33 L 192,175.33 L 193,173.33 L 195,170.33 L 195,168.33 L 195,167.33 L 194,167.33 L 193,172.33 L 192,180.33 L 192,188.33 L 192,193.33 L 193,196.33 L 193,198.33 L 193,199.33 L 193,201.33 L 192,201.33 L 191,201.33 L 187,201.33 L 181,201.33 L 177,200.33 L 173,199.33 L 171,197.33 L 169,196.33" fill="none" stroke="#3794ff" stroke-width="2"></path><path d="M 210,350.33 L 212,350.33 L 214,350.33 L 221,350.33 L 233,348.33 L 247,348.33 L 262,348.33 L 278,348.33 L 291,348.33 L 302,348.33 L 313,348.33 L 322,348.33 L 331,347.33 L 344,345.33 L 352,344.33 L 358,344.33 L 364,343.33 L 369,342.33 L 376,341.33 L 383,340.33 L 388,339.33 L 392,339.33 L 397,339.33 L 401,338.33 L 404,338.33 L 408,337.33 L 410,337.33 L 411,337.33 L 412,337.33 L 414,337.33 L 418,337.33 L 420,337.33 L 424,337.33 L 429,337.33 L 435,337.33 L 442,337.33 L 451,337.33 L 465,337.33 L 472,337.33 L 477,337.33 L 481,337.33 L 485,337.33 L 487,337.33 L 488,337.33 L 495,337.33 L 498,337.33 L 504,337.33 L 509,337.33 L 512,337.33" fill="none" stroke="#3794ff" stroke-width="2"></path><path d="M 502,320.33 L 507,320.33 L 517,320.33 L 531,322.33 L 542,326.33 L 552,331.33 L 557,334.33 L 561,336.33 L 563,340.33 L 563,341.33 L 563,344.33 L 562,348.33 L 555,352.33 L 541,357.33 L 533,360.33 L 531,362.33 L 529,363.33 L 528,364.33" fill="none" stroke="#3794ff" stroke-width="2"></path><path d="M 239,386.33 L 239,387.33 L 239,392.33 L 237,401.33 L 236,407.33 L 235,412.33 L 235,417.33 L 234,420.33 L 233,423.33 L 233,424.33 L 233,426.33 L 233,427.33 L 233,426.33 L 232,423.33 L 232,416.33 L 231,409.33 L 231,399.33 L 231,394.33 L 231,390.33 L 233,386.33 L 235,383.33 L 235,382.33 L 236,381.33 L 237,381.33 L 238,381.33 L 243,381.33 L 248,381.33 L 253,381.33 L 257,381.33 L 258,382.33 L 258,383.33 L 258,384.33" fill="none" stroke="#3794ff" stroke-width="2"></path><path d="M 230,400.33 L 230,401.33 L 233,401.33 L 236,401.33 L 242,402.33 L 250,402.33 L 255,402.33 L 257,402.33 L 258,401.33" fill="none" stroke="#3794ff" stroke-width="2"></path><path d="M 267,386.33 L 267,391.33 L 267,398.33 L 267,405.33 L 266,409.33 L 266,413.33 L 265,416.33 L 265,418.33 L 264,420.33 L 264,421.33 L 264,422.33" fill="none" stroke="#3794ff" stroke-width="2"></path><path d="M 285,402.33 L 284,405.33 L 284,406.33 L 282,410.33 L 282,412.33 L 282,414.33 L 282,415.33 L 283,415.33 L 284,415.33 L 289,414.33 L 293,411.33 L 296,407.33 L 298,404.33 L 299,401.33 L 300,398.33 L 300,397.33 L 300,400.33 L 300,402.33 L 298,405.33 L 298,409.33 L 297,412.33 L 297,415.33 L 297,417.33 L 297,418.33" fill="none" stroke="#3794ff" stroke-width="2"></path><path d="M 318,393.33 L 319,394.33 L 321,403.33 L 323,410.33 L 325,416.33 L 329,426.33 L 331,428.33 L 332,431.33 L 334,430.33 L 334,429.33" fill="none" stroke="#3794ff" stroke-width="2"></path><path d="M 344,400.33 L 344,401.33 L 339,409.33 L 332,413.33 L 325,418.33 L 322,420.33 L 321,422.33" fill="none" stroke="#3794ff" stroke-width="2"></path><path d="M 368,422.33 L 368,421.33 L 370,420.33 L 371,419.33 L 374,418.33 L 377,416.33 L 382,415.33 L 385,414.33 L 387,413.33 L 388,412.33 L 388,411.33 L 388,410.33 L 387,409.33 L 386,409.33 L 381,409.33 L 373,411.33 L 367,415.33 L 364,418.33 L 363,419.33 L 363,422.33 L 363,424.33 L 363,426.33 L 364,427.33 L 365,428.33 L 366,428.33 L 369,428.33 L 371,428.33 L 373,428.33 L 375,428.33" fill="none" stroke="#3794ff" stroke-width="2"></path><path d="M 372,402.33 L 372,401.33 L 373,400.33 L 375,400.33 L 376,400.33 L 380,398.33 L 383,396.33 L 385,395.33" fill="none" stroke="#3794ff" stroke-width="2"></path><path d="M 399,410.33 L 397,410.33 L 392,410.33 L 386,413.33 L 381,417.33 L 378,419.33 L 377,421.33 L 377,424.33 L 377,428.33 L 378,431.33 L 378,432.33 L 379,433.33 L 380,433.33 L 382,433.33 L 384,433.33 L 386,433.33" fill="none" stroke="#3794ff" stroke-width="2"></path><path d="M 401,418.33 L 402,418.33 L 403,419.33 L 403,424.33 L 403,431.33 L 403,433.33 L 402,436.33 L 401,438.33 L 400,439.33 L 399,438.33 L 399,437.33 L 397,432.33 L 396,426.33 L 396,419.33 L 399,413.33 L 404,409.33 L 409,408.33 L 411,407.33 L 412,407.33 L 413,407.33 L 414,409.33 L 415,414.33 L 415,416.33" fill="none" stroke="#3794ff" stroke-width="2"></path><path d="M 415,419.33 L 417,422.33 L 417,427.33 L 417,430.33 L 417,433.33 L 416,434.33 L 416,436.33 L 415,437.33 L 415,438.33 L 414,439.33 L 414,440.33" fill="none" stroke="#3794ff" stroke-width="2"></path><path d="M 421,415.33 L 421,414.33 L 424,409.33 L 428,404.33" fill="none" stroke="#3794ff" stroke-width="2"></path><path d="M 447,372.33 L 447,375.33 L 447,383.33 L 447,395.33 L 445,408.33 L 442,419.33 L 441,427.33 L 440,430.33 L 440,432.33 L 440,434.33 L 439,435.33" fill="none" stroke="#3794ff" stroke-width="2"></path><path d="M 427,391.33 L 433,391.33 L 439,391.33 L 445,392.33 L 451,394.33 L 454,394.33 L 456,394.33 L 457,395.33" fill="none" stroke="#3794ff" stroke-width="2"></path><path d="M 451,407.33 L 451,408.33 L 451,410.33 L 450,413.33 L 450,417.33 L 450,419.33 L 450,421.33 L 450,422.33 L 453,421.33 L 457,417.33 L 460,415.33 L 462,411.33 L 463,408.33 L 463,407.33 L 463,409.33 L 461,419.33 L 460,421.33 L 458,426.33 L 458,427.33 L 458,429.33" fill="none" stroke="#3794ff" stroke-width="2"></path><path d="M 470,418.33 L 470,420.33 L 471,421.33 L 472,425.33 L 472,427.33 L 472,432.33 L 472,434.33 L 471,434.33 L 470,434.33 L 469,429.33 L 469,424.33 L 469,417.33 L 473,409.33 L 479,403.33 L 488,398.33 L 495,396.33 L 500,395.33 L 502,395.33" fill="none" stroke="#3794ff" stroke-width="2"></path><path d="M 498,412.33 L 500,412.33 L 503,412.33 L 506,410.33 L 511,408.33 L 517,404.33 L 519,402.33 L 519,401.33 L 518,400.33 L 517,398.33 L 509,398.33 L 500,399.33 L 495,404.33 L 492,409.33 L 491,412.33 L 491,415.33 L 491,417.33 L 491,419.33 L 491,420.33 L 495,421.33 L 500,419.33 L 503,419.33 L 508,418.33" fill="none" stroke="#3794ff" stroke-width="2"></path><path d="M 559,268.33 L 559,267.33 L 560,273.33 L 561,279.33 L 562,292.33 L 563,308.33 L 566,325.33 L 568,340.33 L 570,357.33 L 571,378.33 L 572,399.33 L 572,418.33 L 572,436.33 L 572,444.33 L 572,450.33 L 573,455.33 L 573,459.33 L 573,464.33 L 574,469.33 L 574,476.33 L 574,480.33 L 575,482.33 L 575,483.33 L 575,484.33 L 576,485.33 L 579,486.33 L 582,486.33 L 588,486.33 L 604,486.33 L 625,486.33 L 644,486.33 L 661,486.33 L 679,486.33 L 694,486.33 L 707,486.33 L 729,486.33 L 740,486.33 L 747,485.33 L 749,484.33 L 750,484.33 L 751,483.33 L 752,483.33 L 752,482.33 L 752,481.33 L 752,480.33 L 753,473.33 L 753,465.33 L 750,444.33 L 747,430.33 L 745,418.33 L 744,406.33 L 742,392.33 L 740,377.33 L 738,363.33 L 736,351.33 L 735,338.33 L 733,326.33 L 733,315.33 L 732,308.33 L 732,300.33 L 731,295.33 L 730,290.33 L 730,288.33 L 730,284.33 L 730,278.33 L 729,274.33 L 728,270.33 L 728,265.33 L 728,259.33 L 728,254.33 L 727,251.33 L 727,246.33 L 727,245.33 L 726,245.33 L 720,246.33 L 709,249.33 L 695,254.33 L 679,258.33 L 665,261.33 L 657,261.33 L 650,261.33 L 641,261.33 L 635,261.33 L 629,261.33 L 623,261.33 L 618,261.33 L 613,261.33 L 607,261.33 L 602,263.33 L 599,263.33 L 596,264.33 L 593,264.33 L 591,264.33 L 587,265.33 L 583,266.33 L 579,266.33 L 575,266.33 L 572,266.33 L 570,266.33 L 569,267.33" fill="none" stroke="#3794ff" stroke-width="2"></path><path d="M 268,95.33 L 268,94.33 L 269,90.33 L 274,81.33 L 282,67.33 L 290,53.33 L 297,40.33 L 308,20.33 L 310,10.33 L 312,3.33 L 289,9.33 L 289,21.33 L 290,40.33 L 295,56.33 L 301,69.33 L 305,79.33 L 308,86.33 L 308,92.33 L 308,100.33 L 308,107.33 L 306,113.33 L 302,119.33 L 293,125.33 L 282,129.33 L 271,130.33 L 262,131.33 L 257,132.33 L 256,132.33 L 255,132.33 L 255,131.33 L 255,129.33 L 255,126.33 L 255,122.33 L 261,114.33 L 263,111.33" fill="none" stroke="#3794ff" stroke-width="2"></path><path d="M 281,90.33 L 285,88.33 L 292,87.33 L 307,84.33 L 317,80.33 L 323,79.33 L 330,75.33 L 332,74.33 L 333,73.33 L 334,72.33" fill="none" stroke="#3794ff" stroke-width="2"></path><path d="M 348,38.33 L 348,39.33 L 348,44.33 L 347,53.33 L 344,61.33 L 342,70.33 L 341,79.33 L 340,85.33 L 338,91.33 L 338,95.33 L 338,97.33 L 338,100.33 L 338,102.33 L 338,106.33 L 338,110.33 L 337,112.33 L 337,113.33" fill="none" stroke="#3794ff" stroke-width="2"></path><path d="M 381,79.33 L 380,78.33 L 378,80.33 L 374,87.33 L 372,95.33 L 370,106.33 L 370,111.33 L 370,118.33 L 370,119.33 L 370,120.33 L 371,119.33 L 377,116.33 L 382,114.33 L 391,109.33 L 398,103.33 L 403,97.33 L 405,91.33 L 406,85.33 L 407,81.33 L 407,79.33 L 407,77.33 L 407,79.33 L 406,81.33 L 402,90.33 L 401,97.33 L 399,107.33 L 398,115.33 L 398,120.33 L 398,122.33 L 398,123.33 L 398,124.33 L 402,124.33 L 406,123.33 L 417,120.33" fill="none" stroke="#3794ff" stroke-width="2"></path><path d="M 453,86.33 L 450,85.33 L 447,84.33 L 445,84.33 L 442,86.33 L 440,89.33 L 439,94.33 L 439,98.33 L 440,102.33 L 441,104.33 L 442,108.33 L 444,111.33 L 445,113.33 L 445,115.33 L 445,117.33 L 445,119.33 L 440,119.33 L 430,119.33 L 419,119.33 L 413,119.33 L 411,119.33 L 411,118.33 L 411,116.33 L 418,112.33" fill="none" stroke="#3794ff" stroke-width="2"></path><path d="M 485,53.33 L 485,55.33 L 485,60.33 L 485,70.33 L 481,84.33 L 476,101.33 L 469,120.33 L 462,136.33 L 456,147.33 L 452,158.33 L 451,161.33 L 450,161.33 L 450,157.33 L 450,150.33 L 455,138.33 L 465,127.33 L 480,116.33 L 496,109.33 L 512,103.33 L 519,101.33 L 521,101.33 L 522,101.33 L 523,103.33 L 524,108.33 L 524,113.33 L 524,117.33 L 524,121.33 L 522,124.33 L 521,125.33 L 519,127.33 L 517,128.33" fill="none" stroke="#3794ff" stroke-width="2"></path><path d="M 322,239.33 L 322,240.33 L 322,241.33 L 321,243.33 L 319,244.33 L 318,244.33" fill="none" stroke="#3794ff" stroke-width="2"></path><path d="M 341,205.33 L 340,205.33 L 336,205.33 L 332,207.33 L 329,209.33 L 327,210.33 L 327,214.33 L 325,222.33 L 323,232.33 L 322,239.33 L 322,243.33 L 323,244.33 L 325,246.33 L 327,246.33 L 331,246.33 L 335,246.33 L 338,246.33 L 342,242.33 L 345,240.33 L 347,237.33 L 349,235.33 L 349,232.33" fill="none" stroke="#3794ff" stroke-width="2"></path><path d="M 354,166.33 L 355,166.33 L 356,168.33 L 358,176.33 L 360,186.33 L 361,198.33 L 362,209.33 L 364,219.33 L 365,226.33 L 366,232.33 L 366,236.33 L 366,239.33" fill="none" stroke="#3794ff" stroke-width="2"></path><path d="M 401,192.33 L 398,192.33 L 392,194.33 L 385,199.33 L 382,203.33 L 379,208.33 L 377,212.33 L 377,216.33 L 377,220.33 L 379,222.33 L 383,222.33 L 392,222.33 L 401,221.33 L 407,217.33 L 409,214.33 L 410,210.33 L 410,205.33 L 410,202.33 L 410,199.33 L 410,198.33 L 409,196.33" fill="none" stroke="#3794ff" stroke-width="2"></path><path d="M 442,186.33 L 438,187.33 L 434,191.33 L 434,195.33 L 434,200.33 L 436,204.33 L 440,209.33 L 442,213.33 L 443,215.33 L 443,216.33 L 443,217.33 L 443,218.33 L 443,219.33 L 440,220.33 L 435,220.33 L 432,220.33 L 431,220.33 L 431,219.33 L 431,218.33 L 431,217.33 L 433,213.33 L 436,210.33" fill="none" stroke="#3794ff" stroke-width="2"></path><path d="M 457,204.33 L 458,203.33 L 459,203.33 L 461,202.33 L 463,201.33 L 469,199.33 L 473,197.33 L 475,195.33 L 475,194.33 L 475,192.33 L 470,192.33 L 464,193.33 L 459,196.33 L 457,198.33 L 457,201.33 L 457,203.33 L 457,204.33 L 458,207.33 L 459,208.33 L 461,209.33 L 469,211.33 L 477,211.33 L 484,211.33 L 490,211.33 L 495,211.33 L 496,211.33 L 497,209.33 L 497,208.33" fill="none" stroke="#3794ff" stroke-width="2"></path><path d="M 516,281.33 L 515,281.33 L 513,281.33 L 509,283.33 L 502,289.33 L 495,295.33 L 491,300.33 L 490,305.33 L 493,310.33 L 507,317.33 L 522,322.33 L 529,324.33 L 530,325.33 L 527,327.33 L 523,328.33 L 514,332.33 L 504,340.33 L 503,349.33 L 503,358.33 L 509,368.33 L 514,373.33 L 516,375.33 L 516,376.33 L 514,381.33 L 513,384.33 L 513,390.33 L 515,396.33 L 518,401.33 L 520,406.33 L 521,409.33 L 521,411.33 L 521,412.33 L 521,415.33 L 521,417.33 L 521,419.33 L 522,419.33 L 526,420.33 L 531,420.33 L 538,417.33 L 544,413.33 L 549,407.33 L 552,400.33 L 555,391.33 L 558,383.33 L 560,375.33 L 561,367.33 L 561,360.33 L 558,353.33 L 557,350.33 L 557,347.33 L 557,344.33 L 557,340.33 L 558,335.33 L 560,330.33 L 561,325.33 L 561,321.33 L 560,317.33 L 556,314.33 L 554,312.33 L 554,311.33 L 552,310.33 L 551,307.33 L 550,304.33 L 550,301.33 L 549,298.33 L 547,294.33 L 542,291.33 L 536,290.33 L 532,290.33 L 529,290.33 L 527,290.33 L 525,290.33" fill="none" stroke="#3794ff" stroke-width="2"></path><path d="M 526,289.33 L 526,288.33 L 526,284.33 L 526,279.33 L 526,274.33 L 526,269.33 L 527,264.33 L 529,259.33 L 529,256.33 L 529,252.33 L 530,248.33 L 533,242.33 L 534,238.33 L 536,234.33 L 539,230.33 L 542,223.33 L 545,217.33 L 548,210.33 L 551,204.33 L 553,200.33 L 555,197.33 L 555,196.33 L 556,195.33 L 557,192.33 L 558,192.33 L 558,191.33 L 559,189.33 L 560,188.33 L 561,186.33 L 563,183.33 L 565,179.33 L 566,176.33" fill="none" stroke="#3794ff" stroke-width="2"></path><path d="M 555,154.33 L 558,153.33 L 564,151.33 L 569,151.33 L 574,151.33 L 575,151.33 L 576,154.33 L 577,159.33 L 577,167.33 L 577,173.33 L 576,178.33 L 576,182.33 L 575,183.33 L 575,184.33" fill="none" stroke="#3794ff" stroke-width="2"></path><path d="M 585,105.33 L 585,107.33 L 585,111.33 L 585,122.33 L 585,140.33 L 585,148.33 L 585,154.33 L 585,158.33 L 585,161.33 L 585,163.33" fill="none" stroke="#3794ff" stroke-width="2"></path><path d="M 588,110.33 L 589,110.33 L 595,107.33 L 601,107.33 L 606,107.33 L 608,108.33 L 610,110.33 L 610,111.33 L 610,113.33 L 610,115.33 L 607,119.33 L 603,121.33 L 601,122.33 L 600,123.33 L 600,124.33 L 601,126.33 L 605,127.33 L 609,128.33 L 610,129.33 L 610,130.33 L 609,135.33 L 606,139.33 L 604,142.33 L 601,145.33 L 597,147.33" fill="none" stroke="#3794ff" stroke-width="2"></path><path d="M 631,131.33 L 626,134.33 L 621,138.33 L 618,140.33 L 615,143.33 L 615,144.33 L 620,143.33 L 623,139.33 L 625,137.33 L 626,137.33 L 626,138.33 L 626,140.33 L 626,144.33 L 626,148.33 L 627,150.33 L 628,150.33 L 628,151.33 L 629,151.33 L 630,151.33 L 631,151.33" fill="none" stroke="#3794ff" stroke-width="2"></path><path d="M 633,148.33 L 635,147.33 L 645,138.33 L 656,129.33 L 665,120.33 L 671,112.33 L 673,106.33 L 673,102.33 L 673,98.33 L 671,96.33 L 671,95.33 L 666,98.33 L 662,109.33 L 658,123.33 L 657,137.33 L 657,154.33 L 656,163.33 L 653,171.33 L 650,176.33 L 646,179.33 L 642,180.33 L 639,180.33 L 637,180.33 L 637,179.33 L 646,170.33 L 669,158.33 L 687,148.33 L 706,136.33 L 717,127.33 L 721,118.33 L 721,113.33 L 721,110.33 L 720,107.33 L 719,106.33 L 716,106.33 L 710,107.33 L 703,117.33 L 700,127.33 L 698,138.33 L 696,147.33 L 694,152.33 L 691,156.33 L 689,158.33 L 682,160.33 L 673,161.33 L 667,161.33 L 663,161.33 L 662,160.33 L 662,159.33 L 662,158.33" fill="none" stroke="#3794ff" stroke-width="2"></path><path d="M 715,142.33 L 714,142.33 L 709,144.33 L 707,146.33 L 705,149.33 L 704,155.33 L 704,157.33 L 704,159.33 L 705,161.33 L 708,164.33 L 709,164.33 L 711,164.33 L 713,164.33 L 713,162.33" fill="none" stroke="#3794ff" stroke-width="2"></path><path d="M 732,153.33 L 734,153.33 L 734,154.33 L 734,155.33 L 734,157.33 L 734,161.33 L 731,164.33 L 728,165.33 L 725,165.33 L 724,165.33 L 723,164.33 L 723,161.33 L 723,159.33 L 723,155.33 L 725,150.33 L 733,145.33 L 746,140.33 L 760,136.33 L 772,133.33 L 774,133.33 L 775,133.33 L 775,134.33 L 775,136.33 L 775,138.33 L 775,140.33 L 774,142.33 L 771,144.33" fill="none" stroke="#3794ff" stroke-width="2"></path><path d="M 758,153.33 L 759,153.33" fill="none" stroke="#3794ff" stroke-width="2"></path><path d="M 719,141.33 L 719,142.33 L 719,143.33 L 717,145.33 L 715,147.33 L 714,149.33 L 712,150.33 L 710,151.33 L 708,151.33 L 707,151.33 L 706,151.33 L 705,151.33" fill="none" stroke="#3794ff" stroke-width="2"></path><path d="M 342,310.33 L 344,313.33 L 352,324.33 L 362,341.33 L 371,359.33 L 380,372.33 L 385,380.33 L 386,381.33 L 386,379.33 L 387,374.33" fill="none" stroke="#3794ff" stroke-width="2"></path><path d="M 398,322.33 L 384,326.33 L 367,334.33 L 349,341.33 L 331,350.33 L 319,356.33 L 312,360.33 L 312,361.33" fill="none" stroke="#3794ff" stroke-width="2"></path><path d="M 614,243.33 L 613,242.33 L 612,242.33 L 608,245.33 L 607,247.33 L 607,246.33 L 607,245.33 L 607,244.33 L 607,243.33 L 608,242.33" fill="none" stroke="#3794ff" stroke-width="2"></path><path d="M 626,180.33 L 626,182.33 L 625,187.33 L 625,193.33 L 625,208.33 L 625,216.33 L 625,225.33 L 625,231.33 L 625,233.33 L 625,235.33 L 625,236.33 L 625,238.33 L 626,239.33 L 627,240.33 L 627,242.33" fill="none" stroke="#3794ff" stroke-width="2"></path><path d="M 609,209.33 L 610,209.33 L 611,208.33 L 617,206.33 L 626,203.33 L 636,201.33 L 640,199.33 L 642,199.33" fill="none" stroke="#3794ff" stroke-width="2"></path><path d="M 645,208.33 L 645,209.33 L 646,212.33 L 647,215.33 L 649,220.33 L 651,222.33 L 651,223.33 L 652,225.33 L 653,226.33 L 654,227.33 L 655,228.33" fill="none" stroke="#3794ff" stroke-width="2"></path><path d="M 663,212.33 L 663,214.33 L 661,217.33 L 654,223.33 L 645,230.33 L 638,236.33 L 635,239.33 L 634,241.33 L 633,242.33" fill="none" stroke="#3794ff" stroke-width="2"></path><path d="M 685,183.33 L 685,182.33 L 686,186.33 L 686,192.33 L 685,199.33 L 683,207.33 L 682,213.33 L 681,218.33 L 680,223.33 L 680,224.33 L 680,226.33" fill="none" stroke="#3794ff" stroke-width="2"></path></svg>