<svg id="svg" xmlns="http://www.w3.org/2000/svg" viewBox="-4 53.33000183105469 811 607" height="607"><path d="M 142,169.33 L 140,169.33 L 134,169.33 L 131,169.33 L 125,173.33 L 119,178.33 L 109,186.33 L 103,191.33 L 99,196.33 L 96,205.33 L 93,215.33 L 92,228.33 L 92,241.33 L 96,252.33 L 100,255.33 L 109,256.33 L 118,256.33 L 131,256.33 L 145,251.33 L 155,247.33 L 166,241.33 L 171,237.33 L 173,233.33 L 173,226.33 L 173,220.33 L 169,210.33 L 164,200.33 L 157,190.33 L 150,180.33 L 142,166.33 L 139,159.33 L 137,155.33 L 136,153.33 L 135,152.33" fill="none" stroke="#3794ff" stroke-width="2"></path><path d="M 128,262.33 L 128,264.33 L 129,274.33 L 129,290.33 L 129,313.33 L 129,339.33 L 129,360.33 L 129,371.33 L 129,376.33 L 129,378.33 L 129,380.33 L 129,382.33 L 129,383.33 L 129,385.33 L 129,387.33 L 129,388.33" fill="none" stroke="#3794ff" stroke-width="2"></path><path d="M 127,394.33 L 127,396.33 L 126,398.33 L 121,404.33 L 115,410.33 L 111,414.33 L 106,417.33 L 102,420.33" fill="none" stroke="#3794ff" stroke-width="2"></path><path d="M 122,389.33 L 123,389.33 L 125,391.33 L 130,399.33 L 136,410.33 L 143,421.33 L 148,427.33 L 154,433.33 L 160,439.33 L 162,441.33 L 163,442.33" fill="none" stroke="#3794ff" stroke-width="2"></path><path d="M 133,350.33 L 132,348.33 L 130,345.33 L 128,343.33 L 126,342.33 L 124,339.33 L 122,337.33 L 119,334.33 L 115,332.33 L 111,330.33" fill="none" stroke="#3794ff" stroke-width="2"></path><path d="M 149,326.33 L 150,325.33 L 150,324.33 L 151,324.33 L 153,322.33 L 157,321.33" fill="none" stroke="#3794ff" stroke-width="2"></path><path d="M 6,548.33 L 17,545.33 L 24,543.33 L 46,538.33 L 65,534.33 L 74,528.33 L 76,526.33" fill="none" stroke="#3794ff" stroke-width="2"></path><path d="M 34,532.33 L 35,534.33 L 36,537.33 L 38,541.33 L 41,550.33 L 42,560.33 L 43,575.33 L 43,580.33 L 43,582.33 L 42,582.33 L 39,582.33 L 35,582.33 L 29,583.33 L 24,583.33 L 22,583.33" fill="none" stroke="#3794ff" stroke-width="2"></path><path d="M 91,567.33 L 88,567.33 L 83,567.33 L 71,568.33 L 60,573.33 L 54,579.33 L 53,580.33 L 53,581.33 L 60,579.33 L 65,575.33 L 69,571.33 L 70,568.33 L 70,565.33 L 69,561.33" fill="none" stroke="#3794ff" stroke-width="2"></path><path d="M 92,563.33 L 91,564.33 L 90,567.33 L 89,572.33 L 88,575.33 L 88,579.33 L 88,580.33 L 88,581.33 L 88,582.33 L 96,580.33 L 103,575.33 L 105,571.33 L 106,567.33 L 106,569.33 L 106,570.33 L 107,573.33 L 108,575.33 L 108,577.33 L 108,578.33 L 109,579.33" fill="none" stroke="#3794ff" stroke-width="2"></path><path d="M 114,577.33 L 120,575.33 L 125,573.33 L 132,570.33 L 134,568.33 L 134,566.33 L 134,564.33 L 134,562.33 L 134,561.33 L 132,561.33 L 129,561.33 L 124,564.33 L 122,568.33 L 121,573.33 L 120,575.33 L 120,577.33 L 120,578.33 L 122,579.33 L 123,580.33 L 125,580.33 L 127,580.33 L 131,580.33 L 133,579.33" fill="none" stroke="#3794ff" stroke-width="2"></path><path d="M 143,565.33 L 144,565.33 L 144,566.33 L 142,571.33 L 141,580.33 L 140,583.33 L 140,584.33 L 140,585.33 L 140,586.33 L 142,586.33 L 144,583.33 L 148,578.33 L 150,575.33 L 151,573.33 L 151,572.33 L 152,572.33 L 153,572.33 L 153,573.33 L 154,577.33 L 154,579.33 L 155,580.33 L 155,582.33 L 155,583.33" fill="none" stroke="#3794ff" stroke-width="2"></path><path d="M 166,568.33 L 167,570.33 L 169,576.33 L 170,582.33 L 170,586.33 L 170,591.33 L 170,592.33 L 169,592.33 L 168,592.33 L 167,589.33 L 166,586.33 L 166,580.33 L 166,572.33 L 171,561.33 L 181,553.33 L 188,550.33 L 189,550.33 L 191,550.33 L 192,550.33 L 193,553.33" fill="none" stroke="#3794ff" stroke-width="2"></path><path d="M 308,116.33 L 308,117.33 L 308,124.33 L 308,130.33 L 304,161.33 L 302,182.33 L 299,198.33 L 297,209.33 L 297,212.33 L 296,212.33 L 295,211.33" fill="none" stroke="#3794ff" stroke-width="2"></path><path d="M 315,110.33 L 317,110.33 L 323,110.33 L 341,110.33 L 352,116.33 L 358,120.33 L 360,124.33 L 360,130.33 L 360,134.33 L 357,137.33 L 355,139.33 L 354,140.33 L 353,140.33 L 352,140.33 L 351,140.33 L 347,139.33 L 344,137.33 L 340,136.33 L 339,135.33" fill="none" stroke="#3794ff" stroke-width="2"></path><path d="M 368,170.33 L 365,170.33 L 357,170.33 L 349,173.33 L 346,177.33 L 345,187.33 L 344,194.33 L 344,199.33 L 344,200.33 L 345,200.33 L 350,197.33 L 355,193.33 L 359,189.33 L 361,186.33 L 363,182.33 L 364,182.33 L 364,189.33 L 364,195.33 L 365,199.33 L 365,201.33 L 365,202.33 L 365,200.33 L 365,197.33" fill="none" stroke="#3794ff" stroke-width="2"></path><path d="M 383,197.33 L 383,199.33 L 383,201.33 L 381,203.33 L 378,203.33 L 378,202.33 L 378,196.33 L 382,191.33 L 389,184.33 L 397,179.33 L 404,176.33 L 406,175.33 L 407,179.33" fill="none" stroke="#3794ff" stroke-width="2"></path><path d="M 410,185.33 L 411,185.33 L 411,187.33 L 411,189.33 L 411,195.33 L 411,201.33 L 411,205.33 L 410,206.33 L 410,207.33" fill="none" stroke="#3794ff" stroke-width="2"></path><path d="M 423,154.33" fill="none" stroke="#3794ff" stroke-width="2"></path><path d="M 424,138.33 L 424,139.33 L 424,141.33 L 424,148.33 L 424,158.33 L 423,166.33 L 421,175.33 L 418,184.33 L 416,193.33 L 414,199.33 L 413,204.33 L 412,207.33 L 412,210.33 L 411,211.33" fill="none" stroke="#3794ff" stroke-width="2"></path><path d="M 400,167.33 L 404,166.33 L 418,166.33 L 430,166.33 L 440,166.33 L 446,166.33 L 447,166.33" fill="none" stroke="#3794ff" stroke-width="2"></path><path d="M 439,185.33 L 439,188.33 L 439,189.33 L 439,190.33 L 439,191.33 L 439,192.33" fill="none" stroke="#3794ff" stroke-width="2"></path><path d="M 447,159.33 L 449,157.33 L 450,157.33 L 452,157.33" fill="none" stroke="#3794ff" stroke-width="2"></path><path d="M 458,197.33 L 459,197.33 L 461,197.33 L 464,197.33 L 468,194.33 L 470,192.33 L 472,191.33 L 472,189.33 L 472,187.33 L 471,186.33 L 467,186.33 L 464,188.33 L 462,190.33 L 461,193.33 L 461,195.33 L 461,197.33 L 462,199.33 L 465,199.33 L 472,200.33 L 480,200.33 L 486,199.33 L 487,199.33" fill="none" stroke="#3794ff" stroke-width="2"></path><path d="M 385,260.33 L 386,260.33 L 387,261.33 L 388,263.33 L 390,269.33 L 390,275.33 L 390,278.33 L 390,281.33 L 390,286.33 L 390,288.33 L 390,289.33" fill="none" stroke="#3794ff" stroke-width="2"></path><path d="M 388,257.33 L 388,256.33 L 389,256.33 L 390,256.33 L 393,256.33 L 396,256.33 L 399,256.33 L 402,257.33 L 405,260.33 L 410,265.33 L 411,269.33 L 413,274.33 L 413,277.33 L 413,281.33 L 413,284.33 L 412,287.33 L 410,288.33 L 408,289.33 L 406,290.33 L 404,291.33 L 403,291.33" fill="none" stroke="#3794ff" stroke-width="2"></path><path d="M 433,285.33 L 434,284.33 L 435,283.33 L 435,282.33 L 435,281.33 L 432,281.33 L 428,281.33 L 424,281.33 L 420,282.33 L 419,283.33 L 419,284.33 L 419,285.33 L 419,287.33 L 419,288.33 L 421,289.33 L 424,289.33 L 427,289.33 L 430,289.33 L 432,289.33 L 432,288.33" fill="none" stroke="#3794ff" stroke-width="2"></path><path d="M 438,276.33 L 438,284.33 L 438,291.33 L 438,297.33 L 438,303.33 L 438,305.33 L 438,307.33 L 438,308.33 L 438,307.33 L 438,303.33 L 438,296.33 L 438,288.33 L 440,282.33 L 443,278.33 L 445,276.33 L 447,275.33 L 449,275.33 L 450,275.33 L 453,276.33 L 454,278.33 L 454,281.33 L 454,284.33 L 450,289.33 L 448,290.33 L 447,290.33 L 446,290.33" fill="none" stroke="#3794ff" stroke-width="2"></path><path d="M 481,238.33 L 481,239.33 L 481,242.33 L 481,247.33 L 479,254.33 L 477,262.33 L 476,267.33 L 474,271.33 L 474,277.33 L 473,278.33 L 473,279.33 L 473,280.33 L 472,281.33 L 472,282.33" fill="none" stroke="#3794ff" stroke-width="2"></path><path d="M 493,269.33 L 489,269.33 L 485,272.33 L 481,275.33 L 480,277.33 L 480,279.33 L 480,280.33 L 482,280.33 L 485,280.33 L 489,278.33 L 492,276.33 L 492,275.33 L 492,277.33 L 492,278.33 L 492,280.33 L 492,282.33 L 492,283.33" fill="none" stroke="#3794ff" stroke-width="2"></path><path d="M 515,270.33 L 511,270.33 L 505,274.33 L 501,276.33 L 500,279.33 L 500,281.33 L 500,282.33 L 500,283.33 L 502,283.33 L 504,283.33 L 506,283.33 L 510,284.33 L 514,284.33 L 516,284.33" fill="none" stroke="#3794ff" stroke-width="2"></path><path d="M 518,283.33 L 519,282.33 L 521,280.33 L 524,279.33 L 526,277.33 L 529,274.33 L 530,272.33 L 530,271.33 L 530,270.33 L 529,270.33 L 526,272.33 L 523,275.33 L 522,277.33 L 522,278.33 L 522,279.33 L 523,279.33 L 524,279.33" fill="none" stroke="#3794ff" stroke-width="2"></path><path d="M 536,266.33 L 537,266.33 L 538,266.33 L 539,266.33 L 539,267.33 L 539,272.33 L 539,276.33 L 539,280.33 L 538,281.33 L 538,280.33 L 539,279.33 L 545,275.33 L 550,272.33 L 556,272.33 L 557,272.33 L 557,273.33 L 557,275.33 L 556,278.33 L 553,281.33 L 551,283.33 L 551,284.33 L 556,279.33 L 561,278.33 L 566,277.33 L 566,276.33 L 567,277.33 L 567,279.33 L 566,282.33 L 564,285.33 L 563,286.33" fill="none" stroke="#3794ff" stroke-width="2"></path><path d="M 563,286.33 L 566,285.33 L 570,284.33 L 572,283.33 L 576,281.33 L 578,279.33 L 579,276.33 L 579,275.33 L 579,274.33 L 579,273.33 L 578,273.33 L 575,273.33 L 572,277.33 L 570,281.33 L 569,284.33 L 569,285.33 L 573,285.33 L 579,283.33 L 583,280.33 L 585,279.33 L 586,278.33 L 587,277.33 L 587,278.33 L 587,279.33 L 585,283.33 L 584,285.33 L 584,284.33 L 584,282.33 L 586,281.33 L 591,279.33 L 595,279.33 L 596,279.33 L 597,279.33 L 597,282.33 L 597,284.33 L 597,283.33 L 598,280.33 L 598,278.33" fill="none" stroke="#3794ff" stroke-width="2"></path><path d="M 613,254.33 L 613,256.33 L 611,261.33 L 608,268.33 L 604,275.33 L 601,278.33 L 601,280.33 L 600,281.33 L 598,280.33" fill="none" stroke="#3794ff" stroke-width="2"></path><path d="M 588,264.33 L 589,264.33 L 593,263.33 L 599,263.33 L 611,263.33 L 618,263.33 L 619,263.33" fill="none" stroke="#3794ff" stroke-width="2"></path><path d="M 626,256.33 L 624,262.33 L 621,270.33 L 617,278.33 L 612,285.33 L 611,286.33 L 611,284.33 L 613,280.33 L 617,275.33 L 620,271.33 L 629,269.33 L 633,269.33 L 635,270.33 L 637,272.33 L 638,276.33 L 638,281.33 L 637,284.33 L 635,286.33 L 632,288.33 L 631,289.33 L 631,288.33" fill="none" stroke="#3794ff" stroke-width="2"></path><path d="M 673,274.33 L 670,275.33 L 666,279.33 L 663,282.33 L 661,284.33 L 665,279.33 L 666,277.33 L 666,276.33 L 666,277.33 L 665,279.33 L 664,281.33 L 661,286.33 L 660,288.33 L 662,288.33 L 665,286.33 L 671,283.33 L 675,281.33 L 675,280.33 L 676,280.33 L 676,281.33" fill="none" stroke="#3794ff" stroke-width="2"></path><path d="M 670,275.33 L 664,275.33 L 652,278.33 L 648,280.33 L 645,283.33 L 645,285.33 L 645,287.33 L 645,288.33 L 646,288.33 L 653,286.33 L 662,282.33 L 670,278.33 L 671,277.33 L 672,276.33 L 670,277.33 L 669,279.33 L 667,287.33 L 666,290.33 L 666,292.33 L 670,291.33" fill="none" stroke="#3794ff" stroke-width="2"></path><path d="M 679,277.33 L 679,279.33 L 678,281.33 L 676,287.33 L 676,288.33 L 676,289.33 L 676,290.33 L 678,289.33 L 682,286.33 L 684,284.33 L 685,282.33 L 686,281.33 L 686,283.33 L 683,292.33 L 682,297.33 L 683,296.33 L 685,295.33" fill="none" stroke="#3794ff" stroke-width="2"></path><path d="M 707,255.33 L 707,256.33 L 707,263.33 L 707,270.33 L 706,278.33 L 704,284.33 L 699,291.33 L 698,292.33 L 697,293.33" fill="none" stroke="#3794ff" stroke-width="2"></path><path d="M 690,271.33 L 694,270.33 L 702,268.33 L 704,268.33 L 706,268.33" fill="none" stroke="#3794ff" stroke-width="2"></path><path d="M 423,236.33 L 422,235.33 L 419,235.33 L 417,235.33 L 413,235.33 L 407,235.33 L 400,236.33 L 391,238.33 L 382,240.33 L 378,243.33 L 375,247.33 L 373,252.33 L 372,259.33 L 371,266.33 L 370,274.33 L 370,280.33 L 370,283.33 L 370,287.33 L 372,290.33 L 375,293.33 L 382,298.33 L 395,303.33 L 420,309.33 L 442,314.33 L 463,319.33 L 481,321.33 L 496,323.33 L 509,325.33 L 521,326.33 L 534,326.33 L 545,326.33 L 556,326.33 L 567,326.33 L 580,326.33 L 595,326.33 L 604,325.33 L 611,323.33 L 620,321.33 L 626,319.33 L 634,317.33 L 642,316.33 L 648,313.33 L 654,312.33 L 659,311.33 L 666,310.33 L 672,309.33 L 681,308.33 L 685,307.33 L 687,306.33 L 690,306.33 L 694,304.33 L 697,304.33 L 699,303.33 L 702,302.33 L 705,301.33 L 708,298.33 L 710,297.33 L 712,295.33 L 716,293.33 L 718,292.33 L 720,290.33 L 721,289.33 L 722,286.33 L 724,284.33 L 724,281.33 L 724,278.33 L 724,274.33 L 724,271.33 L 724,268.33 L 722,265.33 L 721,263.33 L 720,263.33 L 720,262.33 L 719,261.33 L 718,261.33 L 717,259.33 L 715,258.33 L 714,257.33 L 712,256.33 L 710,255.33 L 708,254.33 L 705,253.33 L 696,252.33 L 687,251.33 L 676,250.33 L 669,249.33 L 665,248.33 L 663,248.33 L 661,248.33 L 656,248.33 L 647,248.33 L 636,248.33 L 625,248.33 L 613,248.33 L 604,248.33 L 599,248.33 L 592,248.33 L 586,248.33 L 577,248.33 L 570,248.33 L 565,248.33 L 557,248.33 L 551,248.33 L 543,248.33 L 536,248.33 L 529,248.33 L 517,247.33 L 511,246.33 L 502,245.33 L 496,244.33 L 492,243.33 L 490,243.33 L 487,241.33 L 484,241.33 L 479,238.33 L 473,236.33 L 469,235.33 L 464,234.33 L 452,230.33 L 445,230.33 L 438,229.33 L 435,228.33 L 434,228.33 L 433,228.33 L 432,228.33 L 431,228.33 L 430,228.33 L 427,228.33 L 423,229.33 L 421,229.33 L 420,230.33 L 417,231.33 L 414,231.33 L 413,231.33 L 412,231.33 L 411,231.33 L 411,232.33" fill="none" stroke="#3794ff" stroke-width="2"></path><path d="M 393,433.33 L 394,434.33 L 396,438.33 L 399,443.33 L 402,449.33 L 404,452.33 L 407,457.33" fill="none" stroke="#3794ff" stroke-width="2"></path><path d="M 411,428.33 L 412,427.33 L 415,428.33 L 418,431.33 L 425,439.33 L 429,445.33 L 431,447.33 L 434,450.33 L 436,453.33 L 437,455.33 L 438,456.33 L 439,458.33 L 439,459.33" fill="none" stroke="#3794ff" stroke-width="2"></path><path d="M 493,425.33 L 493,424.33 L 491,425.33 L 487,428.33 L 481,435.33 L 474,444.33 L 471,454.33 L 471,463.33 L 471,473.33 L 474,477.33 L 475,477.33 L 477,478.33 L 478,478.33 L 479,478.33 L 479,476.33 L 479,475.33 L 479,472.33 L 479,467.33 L 479,463.33 L 478,460.33 L 476,457.33 L 476,456.33 L 475,456.33 L 476,457.33 L 477,458.33" fill="none" stroke="#3794ff" stroke-width="2"></path><path d="M 514,457.33 L 513,456.33 L 509,457.33 L 505,461.33 L 501,466.33 L 498,470.33 L 497,475.33 L 497,476.33 L 497,478.33 L 501,478.33 L 507,476.33 L 514,472.33 L 518,468.33 L 520,465.33 L 520,463.33 L 520,462.33 L 520,461.33 L 520,464.33 L 520,467.33 L 521,470.33 L 522,471.33 L 523,472.33 L 526,472.33 L 531,472.33 L 538,470.33 L 544,466.33 L 547,463.33 L 549,459.33" fill="none" stroke="#3794ff" stroke-width="2"></path><path d="M 552,447.33 L 552,448.33 L 552,455.33 L 552,461.33 L 556,467.33 L 559,471.33 L 560,473.33 L 561,473.33 L 556,473.33 L 551,473.33 L 547,473.33 L 545,473.33 L 545,472.33 L 544,472.33 L 544,471.33" fill="none" stroke="#3794ff" stroke-width="2"></path><path d="M 404,402.33 L 398,402.33 L 392,402.33 L 389,404.33 L 388,407.33 L 387,411.33 L 387,419.33 L 386,425.33 L 386,432.33 L 386,440.33 L 387,449.33 L 391,459.33 L 397,471.33 L 404,484.33 L 412,498.33 L 416,504.33 L 421,510.33 L 427,516.33 L 435,521.33 L 445,523.33 L 456,524.33 L 469,526.33 L 482,526.33 L 496,526.33 L 507,527.33 L 515,529.33 L 527,529.33 L 536,526.33 L 543,522.33 L 551,518.33 L 557,513.33 L 563,505.33 L 567,495.33 L 571,486.33 L 573,479.33 L 574,473.33 L 575,466.33 L 575,460.33 L 574,452.33 L 571,447.33 L 568,441.33 L 562,432.33 L 555,425.33 L 546,419.33 L 532,413.33 L 517,407.33 L 503,403.33 L 491,400.33 L 476,399.33 L 460,397.33 L 439,396.33 L 431,396.33 L 426,396.33 L 421,396.33 L 416,396.33 L 412,396.33 L 409,397.33 L 406,397.33 L 403,398.33 L 398,398.33 L 390,399.33 L 386,399.33" fill="none" stroke="#3794ff" stroke-width="2"></path><path d="M 272,325.33 L 270,324.33 L 266,323.33 L 263,323.33 L 261,323.33 L 259,324.33 L 257,327.33 L 256,329.33 L 256,330.33 L 256,332.33 L 256,333.33 L 256,334.33 L 258,334.33 L 259,334.33 L 264,332.33 L 266,328.33 L 270,323.33 L 274,316.33 L 276,311.33 L 277,306.33 L 277,305.33 L 276,306.33 L 271,314.33 L 270,320.33 L 269,323.33 L 269,325.33 L 269,326.33 L 269,327.33 L 269,328.33 L 271,329.33" fill="none" stroke="#1a85ff" stroke-width="2"></path><path d="M 282,334.33 L 287,335.33 L 291,335.33 L 293,333.33 L 293,331.33 L 293,330.33 L 293,329.33 L 293,327.33 L 291,327.33 L 289,327.33 L 285,327.33 L 281,330.33 L 280,331.33 L 279,333.33 L 279,334.33 L 279,335.33 L 279,336.33 L 280,336.33 L 281,336.33 L 282,336.33 L 283,336.33 L 284,336.33 L 285,336.33" fill="none" stroke="#1a85ff" stroke-width="2"></path><path d="M 295,329.33 L 295,331.33 L 295,336.33 L 295,344.33 L 293,349.33 L 293,351.33 L 292,352.33 L 292,349.33 L 292,347.33 L 292,343.33 L 293,336.33 L 296,330.33 L 297,327.33 L 298,326.33 L 300,327.33 L 301,329.33 L 301,331.33 L 301,333.33 L 301,334.33 L 301,335.33 L 301,336.33 L 300,336.33 L 299,336.33 L 298,336.33" fill="none" stroke="#1a85ff" stroke-width="2"></path><path d="M 314,305.33 L 314,310.33 L 312,316.33 L 310,323.33 L 309,329.33 L 309,333.33 L 309,335.33 L 309,336.33 L 308,337.33" fill="none" stroke="#1a85ff" stroke-width="2"></path><path d="M 330,332.33 L 330,331.33 L 329,331.33 L 326,331.33 L 324,331.33 L 322,331.33 L 321,332.33 L 321,333.33 L 321,334.33 L 321,335.33 L 322,335.33 L 324,335.33 L 325,334.33 L 325,333.33 L 325,332.33 L 325,333.33 L 325,335.33 L 324,338.33 L 324,340.33 L 324,341.33 L 324,340.33" fill="none" stroke="#1a85ff" stroke-width="2"></path><path d="M 346,333.33 L 342,332.33 L 339,331.33 L 335,331.33 L 334,331.33 L 332,331.33 L 330,332.33 L 330,333.33 L 330,335.33 L 330,337.33 L 331,340.33 L 333,342.33 L 334,343.33 L 336,344.33 L 337,344.33 L 339,344.33 L 342,343.33" fill="none" stroke="#1a85ff" stroke-width="2"></path><path d="M 343,337.33 L 343,336.33 L 342,336.33 L 342,337.33 L 342,338.33 L 342,339.33 L 342,340.33 L 344,340.33 L 345,340.33 L 347,340.33 L 347,339.33 L 347,338.33 L 347,337.33 L 346,338.33 L 345,340.33 L 344,343.33 L 344,344.33 L 344,345.33 L 345,345.33 L 350,345.33 L 354,343.33 L 355,342.33 L 357,341.33 L 357,342.33 L 357,343.33 L 357,345.33 L 357,347.33 L 356,347.33 L 356,345.33 L 356,344.33 L 356,340.33 L 356,338.33 L 357,335.33 L 358,335.33 L 359,335.33" fill="none" stroke="#1a85ff" stroke-width="2"></path><path d="M 264,296.33 L 261,296.33 L 257,299.33 L 254,303.33 L 249,309.33 L 248,312.33 L 247,316.33 L 247,320.33 L 247,327.33 L 249,336.33 L 251,342.33 L 255,346.33 L 259,353.33 L 267,361.33 L 274,368.33 L 286,373.33 L 309,383.33 L 326,388.33 L 340,390.33 L 348,391.33 L 354,391.33 L 356,390.33 L 358,388.33 L 359,386.33 L 360,380.33 L 363,376.33 L 363,372.33 L 363,365.33 L 363,361.33 L 363,356.33 L 363,351.33 L 363,348.33 L 362,344.33 L 360,340.33 L 358,336.33 L 354,333.33 L 350,329.33 L 346,326.33 L 341,323.33 L 336,319.33 L 327,314.33 L 317,311.33 L 306,308.33 L 294,305.33 L 285,303.33 L 278,302.33 L 273,302.33 L 270,302.33 L 269,302.33 L 268,302.33 L 267,302.33 L 266,302.33 L 265,303.33 L 264,304.33" fill="none" stroke="#1a85ff" stroke-width="2"></path><path d="M 366,293.33 L 365,293.33 L 363,293.33 L 356,293.33 L 353,294.33 L 350,295.33 L 348,295.33 L 347,296.33 L 346,296.33 L 346,297.33 L 345,297.33" fill="none" stroke="#1a85ff" stroke-width="2"></path><path d="M 341,291.33 L 339,291.33 L 336,291.33 L 333,291.33 L 330,293.33 L 328,294.33 L 327,295.33 L 327,296.33 L 327,298.33 L 330,299.33 L 335,301.33 L 339,301.33 L 346,303.33 L 348,303.33 L 349,303.33" fill="none" stroke="#1a85ff" stroke-width="2"></path><path d="M 375,410.33 L 374,409.33 L 374,407.33 L 369,402.33 L 363,397.33 L 358,392.33 L 356,388.33 L 355,387.33" fill="none" stroke="#1a85ff" stroke-width="2"></path><path d="M 349,391.33 L 350,390.33 L 351,385.33 L 352,382.33 L 354,380.33 L 355,379.33 L 356,379.33 L 357,379.33 L 358,379.33 L 360,380.33 L 361,381.33 L 361,383.33 L 362,383.33 L 362,385.33 L 364,387.33 L 364,388.33 L 364,390.33 L 366,392.33" fill="none" stroke="#1a85ff" stroke-width="2"></path><text font-family="inherit" font-size="14" fill="#1a85ff" x="370" y="347.33">heritage: deplacement est la classe abstraitre souvent en italique</text><path d="M 236,333.33 L 232,333.33 L 225,333.33 L 214,333.33 L 204,333.33 L 194,333.33 L 186,332.33 L 179,331.33 L 176,331.33 L 174,330.33 L 173,330.33 L 173,329.33" fill="none" stroke="#1a85ff" stroke-width="2"></path><path d="M 250,63.33 L 249,65.33 L 249,67.33 L 248,73.33 L 247,84.33 L 247,93.33 L 247,107.33 L 244,122.33 L 244,139.33 L 242,158.33 L 242,177.33 L 241,194.33 L 241,209.33 L 241,224.33 L 240,241.33 L 237,263.33 L 234,280.33 L 232,297.33 L 230,311.33 L 228,325.33 L 225,341.33 L 225,358.33 L 225,377.33 L 225,393.33 L 225,407.33 L 225,416.33 L 225,424.33 L 226,436.33 L 228,445.33 L 229,456.33 L 231,468.33 L 234,478.33 L 238,489.33 L 244,500.33 L 250,514.33 L 258,528.33 L 265,542.33 L 269,553.33 L 275,565.33 L 283,580.33 L 284,585.33 L 287,590.33 L 288,594.33 L 289,596.33 L 289,598.33 L 292,603.33 L 295,607.33 L 301,613.33 L 309,617.33 L 320,621.33 L 341,627.33 L 385,635.33 L 429,640.33 L 477,643.33 L 528,643.33 L 586,643.33 L 654,643.33 L 700,643.33 L 742,644.33 L 783,650.33 L 797,527.33 L 796,512.33 L 796,499.33 L 795,485.33 L 792,467.33 L 790,451.33 L 789,440.33 L 789,428.33 L 789,417.33 L 787,406.33 L 786,395.33 L 786,390.33 L 786,385.33 L 786,379.33 L 785,367.33 L 783,354.33 L 781,342.33 L 779,328.33 L 776,317.33 L 774,304.33 L 772,296.33 L 770,286.33 L 764,271.33 L 758,255.33 L 750,235.33 L 746,217.33 L 743,204.33 L 742,194.33 L 740,186.33 L 739,176.33 L 738,167.33 L 736,157.33 L 732,149.33 L 731,140.33 L 731,131.33 L 731,127.33 L 731,123.33 L 731,120.33 L 731,119.33 L 731,118.33 L 731,117.33 L 731,115.33 L 731,113.33 L 731,111.33 L 731,108.33 L 732,106.33 L 733,103.33 L 735,99.33 L 736,96.33 L 738,92.33 L 739,90.33 L 739,88.33 L 740,87.33 L 741,86.33 L 740,84.33 L 739,84.33 L 734,84.33 L 727,84.33 L 719,84.33 L 704,85.33 L 680,88.33 L 662,91.33 L 643,92.33 L 626,93.33 L 604,95.33 L 589,98.33 L 574,99.33 L 562,100.33 L 548,101.33 L 530,101.33 L 510,101.33 L 494,101.33 L 466,101.33 L 447,101.33 L 428,101.33 L 411,101.33 L 400,100.33 L 394,100.33 L 387,100.33 L 381,100.33 L 377,100.33 L 374,100.33 L 371,99.33 L 369,99.33 L 366,99.33 L 365,98.33 L 363,97.33 L 361,96.33 L 359,96.33 L 357,95.33 L 354,93.33 L 349,92.33 L 347,90.33 L 339,87.33 L 337,86.33 L 334,85.33 L 330,84.33 L 328,84.33 L 325,83.33 L 323,82.33 L 320,82.33 L 315,82.33 L 310,81.33 L 306,80.33 L 300,79.33 L 297,79.33 L 292,77.33 L 287,76.33 L 283,75.33 L 280,74.33 L 277,73.33 L 275,72.33 L 271,70.33 L 266,69.33 L 265,69.33 L 263,68.33 L 261,67.33 L 259,67.33 L 257,67.33 L 256,67.33 L 256,66.33 L 255,66.33 L 254,66.33 L 252,66.33 L 251,66.33 L 250,66.33 L 249,66.33 L 248,66.33 L 247,66.33 L 246,66.33 L 244,66.33" fill="none" stroke="#1a85ff" stroke-width="2"></path></svg>