<svg id="svg" xmlns="http://www.w3.org/2000/svg" viewBox="34 -9.669999986886978 720 684" height="684"><path d="M 58,170.33 L 66,167.33 L 83,161.33 L 96,157.33 L 112,154.33 L 130,153.33 L 143,153.33 L 162,153.33 L 174,153.33 L 184,153.33 L 191,153.33 L 202,153.33 L 211,153.33 L 215,153.33 L 219,153.33 L 223,153.33 L 227,153.33 L 230,153.33 L 233,153.33 L 243,153.33 L 257,153.33 L 273,153.33 L 294,154.33 L 312,156.33 L 327,158.33 L 337,159.33 L 342,159.33 L 347,159.33 L 352,159.33 L 354,159.33 L 356,159.33 L 361,160.33 L 364,160.33 L 365,160.33 L 367,160.33 L 370,160.33 L 372,160.33 L 373,160.33" fill="none" stroke="#1a85ff" stroke-width="2"></path><path d="M 44,379.33 L 45,379.33 L 51,378.33 L 62,377.33 L 75,377.33 L 91,377.33 L 111,377.33 L 132,377.33 L 154,377.33 L 178,377.33 L 214,377.33 L 237,377.33 L 257,377.33 L 271,377.33 L 283,377.33 L 291,377.33 L 295,377.33 L 296,377.33 L 297,377.33 L 298,377.33 L 299,377.33 L 303,377.33 L 310,377.33 L 316,377.33 L 319,377.33 L 322,376.33 L 325,376.33 L 326,376.33 L 328,376.33 L 333,376.33 L 338,376.33 L 341,376.33 L 343,376.33 L 345,376.33 L 348,376.33 L 349,376.33 L 350,376.33" fill="none" stroke="#1a85ff" stroke-width="2"></path><path d="M 141,124.33 L 141,126.33 L 140,130.33 L 139,134.33 L 139,136.33 L 138,138.33 L 138,136.33 L 139,130.33 L 143,126.33 L 149,123.33 L 152,122.33 L 153,122.33 L 155,122.33 L 157,123.33 L 158,128.33 L 158,132.33 L 158,136.33 L 158,137.33" fill="none" stroke="#1a85ff" stroke-width="2"></path><path d="M 180,131.33 L 177,131.33 L 173,133.33 L 170,137.33 L 168,141.33 L 168,143.33 L 168,144.33 L 170,144.33 L 172,142.33 L 175,136.33 L 177,131.33 L 177,128.33 L 177,126.33 L 177,125.33" fill="none" stroke="#1a85ff" stroke-width="2"></path><path d="M 206,128.33 L 207,128.33 L 207,133.33 L 207,139.33 L 207,144.33 L 207,146.33 L 207,147.33 L 206,147.33 L 206,143.33 L 208,140.33 L 214,137.33 L 219,136.33 L 220,136.33 L 220,138.33 L 221,140.33 L 221,143.33 L 221,145.33 L 221,146.33 L 222,146.33 L 223,145.33 L 224,145.33 L 225,146.33 L 226,146.33 L 226,148.33 L 226,149.33 L 227,150.33" fill="none" stroke="#1a85ff" stroke-width="2"></path><path d="M 264,136.33 L 263,136.33 L 261,137.33 L 258,139.33 L 257,142.33 L 256,143.33 L 256,144.33 L 256,145.33 L 256,146.33 L 257,146.33" fill="none" stroke="#1a85ff" stroke-width="2"></path><path d="M 372,186.33 L 376,186.33 L 388,190.33 L 389,190.33 L 390,192.33 L 390,194.33 L 387,199.33 L 376,204.33 L 366,212.33 L 358,222.33 L 353,235.33 L 353,252.33 L 357,271.33 L 363,286.33 L 376,300.33 L 378,303.33 L 380,304.33 L 381,305.33 L 382,305.33 L 382,306.33 L 382,308.33 L 383,310.33 L 385,313.33 L 386,316.33 L 386,319.33 L 386,322.33 L 381,325.33 L 374,328.33 L 365,333.33 L 359,336.33 L 357,339.33 L 356,341.33 L 356,342.33 L 355,342.33" fill="none" stroke="#1a85ff" stroke-width="2"></path><path d="M 408,265.33 L 405,265.33 L 399,269.33 L 398,274.33 L 397,277.33 L 397,279.33 L 399,277.33 L 402,273.33 L 402,271.33 L 403,271.33 L 403,274.33 L 403,277.33 L 403,280.33 L 403,283.33 L 403,284.33 L 404,285.33" fill="none" stroke="#1a85ff" stroke-width="2"></path><path d="M 426,242.33 L 426,245.33 L 426,249.33 L 426,258.33 L 426,266.33 L 424,271.33 L 424,274.33 L 423,275.33" fill="none" stroke="#1a85ff" stroke-width="2"></path><path d="M 411,253.33 L 412,252.33 L 413,252.33 L 415,252.33 L 421,252.33 L 427,252.33 L 430,252.33" fill="none" stroke="#1a85ff" stroke-width="2"></path><path d="M 448,247.33 L 448,250.33 L 446,258.33 L 443,267.33 L 438,274.33 L 436,278.33 L 434,281.33" fill="none" stroke="#1a85ff" stroke-width="2"></path><path d="M 424,262.33 L 424,261.33 L 428,260.33 L 432,260.33 L 437,260.33 L 443,260.33 L 448,260.33" fill="none" stroke="#1a85ff" stroke-width="2"></path><path d="M 455,270.33 L 455,271.33 L 455,273.33 L 455,274.33 L 455,276.33 L 453,277.33 L 452,279.33 L 452,278.33 L 452,277.33 L 452,275.33 L 454,274.33 L 455,274.33 L 456,274.33 L 457,274.33" fill="none" stroke="#1a85ff" stroke-width="2"></path><path d="M 468,273.33 L 468,274.33 L 468,276.33 L 465,280.33 L 464,284.33 L 463,287.33" fill="none" stroke="#1a85ff" stroke-width="2"></path><path d="M 473,262.33" fill="none" stroke="#1a85ff" stroke-width="2"></path><path d="M 494,246.33 L 493,246.33 L 484,255.33 L 466,278.33 L 459,289.33 L 458,295.33 L 457,299.33 L 457,300.33 L 458,300.33 L 462,297.33 L 465,292.33 L 467,288.33 L 468,285.33 L 468,283.33 L 468,282.33 L 468,284.33 L 468,286.33 L 468,287.33 L 468,288.33 L 469,288.33" fill="none" stroke="#1a85ff" stroke-width="2"></path><path d="M 481,281.33 L 480,286.33 L 477,292.33 L 476,295.33 L 475,296.33 L 478,293.33 L 483,287.33 L 486,282.33 L 486,279.33 L 487,278.33 L 487,281.33 L 487,282.33 L 486,284.33 L 486,285.33 L 486,286.33 L 485,287.33 L 486,287.33 L 494,282.33 L 500,275.33 L 501,274.33" fill="none" stroke="#1a85ff" stroke-width="2"></path><path d="M 508,256.33 L 507,261.33 L 503,270.33 L 498,277.33 L 495,282.33 L 495,283.33 L 494,282.33 L 494,280.33 L 494,277.33 L 494,273.33 L 496,271.33 L 499,270.33 L 503,269.33 L 505,269.33 L 508,269.33 L 509,268.33 L 510,268.33" fill="none" stroke="#1a85ff" stroke-width="2"></path><path d="M 394,411.33 L 411,414.33 L 420,418.33 L 446,433.33 L 454,438.33 L 456,440.33 L 456,444.33 L 451,451.33 L 434,458.33 L 414,467.33 L 397,479.33 L 386,494.33 L 383,511.33 L 383,528.33 L 385,540.33 L 397,554.33 L 403,560.33 L 404,562.33 L 404,563.33 L 402,565.33 L 399,568.33 L 398,573.33 L 398,584.33 L 400,595.33 L 401,608.33 L 401,617.33 L 393,628.33 L 381,636.33 L 366,644.33 L 352,650.33 L 339,655.33 L 331,660.33 L 327,662.33 L 326,662.33 L 326,663.33 L 327,664.33" fill="none" stroke="#1a85ff" stroke-width="2"></path><path d="M 472,544.33 L 467,545.33 L 463,552.33 L 457,563.33 L 454,573.33 L 453,578.33 L 453,581.33 L 454,583.33 L 462,583.33 L 472,576.33 L 479,567.33 L 481,560.33 L 481,553.33 L 480,547.33 L 479,545.33" fill="none" stroke="#1a85ff" stroke-width="2"></path><path d="M 490,557.33 L 491,558.33 L 491,569.33 L 491,588.33 L 491,610.33 L 491,630.33 L 491,642.33 L 491,645.33 L 491,640.33 L 491,631.33 L 493,614.33 L 498,594.33 L 508,578.33" fill="none" stroke="#1a85ff" stroke-width="2"></path><path d="M 546,558.33 L 546,564.33 L 544,568.33 L 532,574.33 L 521,575.33 L 515,575.33 L 510,575.33 L 508,574.33 L 507,574.33" fill="none" stroke="#1a85ff" stroke-width="2"></path><path d="M 505,555.33 L 507,555.33 L 514,555.33 L 526,556.33 L 534,561.33 L 536,563.33 L 537,565.33 L 538,568.33 L 537,570.33 L 531,577.33 L 525,580.33 L 522,580.33 L 517,581.33 L 515,581.33 L 513,581.33 L 512,581.33" fill="none" stroke="#1a85ff" stroke-width="2"></path><path d="M 558,574.33 L 551,574.33 L 540,582.33 L 535,591.33 L 534,598.33 L 534,602.33 L 534,604.33 L 535,605.33 L 538,605.33 L 546,604.33 L 555,599.33" fill="none" stroke="#1a85ff" stroke-width="2"></path><path d="M 563,558.33 L 564,557.33 L 566,556.33 L 568,556.33 L 570,556.33 L 573,556.33 L 576,558.33 L 577,560.33" fill="none" stroke="#1a85ff" stroke-width="2"></path><path d="M 567,578.33 L 566,578.33 L 563,580.33 L 561,583.33 L 558,584.33 L 557,584.33 L 556,584.33 L 555,584.33 L 553,584.33" fill="none" stroke="#1a85ff" stroke-width="2"></path><path d="M 583,584.33 L 582,588.33 L 578,593.33 L 574,599.33 L 571,603.33 L 569,604.33 L 569,599.33 L 570,589.33 L 576,582.33 L 583,576.33 L 591,572.33 L 593,572.33 L 594,572.33 L 596,575.33 L 596,580.33" fill="none" stroke="#1a85ff" stroke-width="2"></path><path d="M 593,583.33 L 590,586.33 L 587,590.33 L 585,595.33 L 585,597.33 L 585,598.33 L 587,599.33 L 594,595.33 L 601,589.33 L 604,585.33 L 606,583.33 L 606,582.33 L 603,589.33 L 602,594.33 L 602,597.33 L 602,598.33 L 605,598.33 L 606,597.33 L 612,591.33" fill="none" stroke="#1a85ff" stroke-width="2"></path><path d="M 632,553.33 L 632,554.33 L 628,564.33 L 615,589.33 L 608,602.33 L 605,610.33 L 603,612.33 L 601,612.33" fill="none" stroke="#1a85ff" stroke-width="2"></path><path d="M 607,584.33 L 612,586.33 L 618,586.33 L 624,586.33 L 625,586.33 L 626,586.33 L 627,588.33 L 627,592.33 L 626,598.33 L 622,605.33 L 621,608.33 L 620,609.33" fill="none" stroke="#1a85ff" stroke-width="2"></path><path d="M 626,588.33" fill="none" stroke="#1a85ff" stroke-width="2"></path><path d="M 637,577.33 L 637,576.33 L 636,576.33 L 636,575.33 L 636,578.33 L 636,582.33" fill="none" stroke="#1a85ff" stroke-width="2"></path><path d="M 654,596.33 L 654,595.33 L 647,595.33 L 642,597.33 L 638,601.33 L 636,605.33 L 636,606.33 L 637,606.33 L 638,605.33 L 641,601.33 L 643,599.33 L 644,597.33" fill="none" stroke="#1a85ff" stroke-width="2"></path><path d="M 663,595.33 L 664,595.33 L 662,600.33 L 660,603.33 L 658,604.33 L 658,605.33 L 658,604.33" fill="none" stroke="#1a85ff" stroke-width="2"></path><path d="M 658,604.33 L 658,603.33 L 658,602.33 L 658,601.33 L 659,599.33 L 661,597.33 L 664,594.33 L 667,591.33 L 670,590.33 L 672,589.33 L 673,589.33 L 673,591.33 L 673,593.33 L 673,598.33 L 673,600.33 L 671,604.33 L 670,605.33 L 674,604.33 L 678,602.33 L 688,600.33 L 703,596.33 L 706,595.33 L 706,594.33 L 705,594.33 L 700,596.33 L 697,601.33 L 695,605.33 L 694,609.33 L 694,613.33 L 692,613.33 L 690,613.33 L 688,613.33 L 687,613.33" fill="none" stroke="#1a85ff" stroke-width="2"></path><text font-family="inherit" font-size="14" fill="#1a85ff" x="84" y="184.33">Couleur</text><text font-family="inherit" font-size="14" fill="#1a85ff" x="100" y="211.33">position</text><text font-family="inherit" font-size="14" fill="#1a85ff" x="464" y="480.33">Fonction</text><text font-family="inherit" font-size="14" fill="#1a85ff" x="490" y="204.33">variables</text><text font-family="inherit" font-size="14" fill="#1a85ff" x="113" y="245.33">vitesse</text><text font-family="inherit" font-size="14" fill="#1a85ff" x="102" y="406.33">+ snake()</text><text font-family="inherit" font-size="14" fill="#1a85ff" x="99" y="430.33">tic</text><text font-family="inherit" font-size="14" fill="#1a85ff" x="380" y="46.33">- : priver</text><text font-family="inherit" font-size="14" fill="#1a85ff" x="387" y="67.33"># proteger</text><rect x="114" y="185.33" fill="rgba(240, 240,240, 0.4)" stroke="#BBB" stroke-width="1"></rect><rect x="115" y="182.33" fill="rgba(240, 240,240, 0.4)" stroke="#BBB" stroke-width="1"></rect><rect x="115" y="182.33" fill="rgba(240, 240,240, 0.4)" stroke="#BBB" stroke-width="1"></rect><rect x="115" y="182.33" fill="rgba(240, 240,240, 0.4)" stroke="#BBB" stroke-width="1"></rect><rect x="138" y="182.33" fill="rgba(240, 240,240, 0.4)" stroke="#BBB" stroke-width="1"></rect><rect x="168" y="174.33" fill="rgba(240, 240,240, 0.4)" stroke="#BBB" stroke-width="1"></rect><text font-family="inherit" font-size="14" fill="#1a85ff" x="144" y="182.33">:color</text><text font-family="inherit" font-size="14" fill="#1a85ff" x="159" y="205.33">:point</text><text font-family="inherit" font-size="14" fill="#1a85ff" x="173" y="240.33">:float</text><text font-family="inherit" font-size="14" fill="#1a85ff" x="128" y="427.33">et: float: bool</text><path d="M 119,120.33 L 118,123.33 L 118,126.33 L 115,130.33 L 113,133.33 L 112,136.33 L 110,138.33 L 109,140.33 L 108,141.33" fill="none" stroke="#1a85ff" stroke-width="2"></path><path d="M 272,129.33 L 273,129.33 L 273,130.33 L 272,132.33 L 270,134.33 L 269,136.33 L 266,138.33 L 265,139.33 L 264,140.33 L 263,141.33 L 262,141.33 L 262,142.33 L 261,142.33 L 260,143.33" fill="none" stroke="#1a85ff" stroke-width="2"></path><path d="M 145,88.33 L 143,88.33 L 142,88.33 L 141,91.33 L 140,94.33 L 140,96.33 L 140,97.33 L 140,98.33 L 141,98.33 L 142,96.33 L 143,94.33 L 144,92.33 L 144,91.33 L 144,90.33 L 144,89.33 L 144,90.33 L 144,91.33 L 145,94.33" fill="none" stroke="#1a85ff" stroke-width="2"></path><text font-family="inherit" font-size="14" fill="#1a85ff" x="146" y="89.33">abstractou en italique</text><polygon points="376 354.83, 368 361.33, 360 354.83, 368 348.33" fill="none" stroke="#1a85ff" stroke-width="2" d="M 376 354.83 L ,  368 361.33 ,  360 354.83 ,  368 348.33 Z"></polygon><text font-family="inherit" font-size="14" fill="#1a85ff" x="510" y="350.33">coor</text><path d="M 379,357.33 L 379,356.33 L 380,356.33 L 383,355.33 L 387,354.33 L 392,353.33 L 399,353.33 L 410,353.33 L 419,353.33 L 429,353.33 L 439,353.33 L 448,353.33 L 458,353.33 L 465,353.33 L 473,353.33 L 480,353.33 L 486,353.33 L 490,353.33 L 493,353.33 L 495,353.33 L 496,352.33" fill="none" stroke="#1a85ff" stroke-width="2"></path><text font-family="inherit" font-size="14" fill="#1a85ff" x="522" y="345.33">color</text><polygon points="500 82.33, 538 96.33, 552 51.33, 488 49.33, 478 116.33, 538 142.33, 559 94.33, 602 95.33, 585 149.33, 553 163.33, 470 116.33, 538 53.33, 560 51.33, 565 108.33, 565 125.33, 513 131.33, 684 86.33, 684 86.33, 663 129.33, 643 195.33, 624 223.33, 529 150.33, 592 108.33, 648 222.33, 744 101.33, 690 95.33, 606 99.33, 575 176.33, 568 188.33, 463 167.33, 461 131.33, 589 93.33, 618 67.33, 636 58.33, 650 114.33, 612 138.33, 516 150.33, 507 155.33, 587 169.33, 609 178.33, 657 178.33, 659 153.33, 656 148.33, 177 0.33" fill="none" stroke="#1a85ff" stroke-width="2" width="NaN" height="NaN"></polygon><path d="M 494,333.33 L 494,334.33 L 494,336.33 L 494,341.33 L 494,347.33 L 494,352.33 L 494,355.33 L 494,362.33 L 494,364.33 L 494,368.33 L 494,370.33 L 494,372.33 L 494,373.33 L 494,374.33 L 495,375.33 L 496,375.33 L 499,375.33 L 509,375.33 L 519,375.33 L 528,375.33 L 538,375.33 L 546,375.33 L 552,375.33 L 557,375.33 L 561,375.33 L 563,375.33 L 565,375.33 L 568,376.33 L 571,376.33 L 575,377.33 L 577,377.33 L 579,377.33 L 580,378.33 L 581,378.33 L 582,378.33 L 583,378.33 L 583,377.33 L 583,374.33 L 584,370.33 L 584,366.33 L 584,362.33 L 584,354.33 L 584,347.33 L 584,342.33 L 584,338.33 L 584,336.33 L 584,335.33 L 584,334.33 L 584,333.33 L 584,332.33 L 583,332.33 L 579,331.33 L 572,331.33 L 562,331.33 L 554,331.33 L 546,331.33 L 538,332.33 L 533,333.33 L 530,333.33 L 527,333.33 L 526,333.33 L 524,333.33 L 522,333.33 L 520,333.33 L 518,333.33 L 517,333.33 L 515,333.33 L 512,333.33 L 510,333.33 L 507,333.33 L 503,333.33 L 501,333.33 L 500,333.33 L 499,333.33 L 499,332.33 L 498,332.33 L 497,332.33 L 496,332.33 L 495,332.33 L 494,332.33" fill="none" stroke="#1a85ff" stroke-width="2"></path></svg>